G04 EAGLE Gerber RS-274X export*
G75*
%MOMM*%
%FSLAX34Y34*%
%LPD*%
%INTop Copper*%
%IPPOS*%
%AMOC8*
5,1,8,0,0,1.08239X$1,22.5*%
G01*
%ADD10C,1.422400*%
%ADD11R,1.100000X0.400000*%
%ADD12R,2.667000X2.667000*%
%ADD13P,2.886734X8X292.500000*%
%ADD14R,1.422400X1.422400*%
%ADD15P,1.539592X8X112.500000*%
%ADD16C,1.625600*%
%ADD17R,1.300000X1.500000*%
%ADD18C,5.842000*%
%ADD19C,1.009600*%
%ADD20C,3.810000*%
%ADD21C,0.254000*%
%ADD22C,0.858000*%

G36*
X707464Y2798D02*
X707464Y2798D01*
X707483Y2796D01*
X707585Y2818D01*
X707687Y2834D01*
X707704Y2844D01*
X707724Y2848D01*
X707813Y2901D01*
X707904Y2950D01*
X707918Y2964D01*
X707935Y2974D01*
X708002Y3053D01*
X708074Y3128D01*
X708082Y3146D01*
X708095Y3161D01*
X708134Y3257D01*
X708177Y3351D01*
X708179Y3371D01*
X708187Y3389D01*
X708205Y3556D01*
X708205Y432444D01*
X708202Y432464D01*
X708204Y432483D01*
X708182Y432585D01*
X708166Y432687D01*
X708156Y432704D01*
X708152Y432724D01*
X708099Y432813D01*
X708050Y432904D01*
X708036Y432918D01*
X708026Y432935D01*
X707947Y433002D01*
X707872Y433074D01*
X707854Y433082D01*
X707839Y433095D01*
X707743Y433134D01*
X707649Y433177D01*
X707629Y433179D01*
X707611Y433187D01*
X707444Y433205D01*
X3556Y433205D01*
X3536Y433202D01*
X3517Y433204D01*
X3415Y433182D01*
X3313Y433166D01*
X3296Y433156D01*
X3276Y433152D01*
X3187Y433099D01*
X3096Y433050D01*
X3082Y433036D01*
X3065Y433026D01*
X2998Y432947D01*
X2926Y432872D01*
X2918Y432854D01*
X2905Y432839D01*
X2866Y432743D01*
X2823Y432649D01*
X2821Y432629D01*
X2813Y432611D01*
X2795Y432444D01*
X2795Y3556D01*
X2798Y3536D01*
X2796Y3517D01*
X2818Y3415D01*
X2834Y3313D01*
X2844Y3296D01*
X2848Y3276D01*
X2901Y3187D01*
X2950Y3096D01*
X2964Y3082D01*
X2974Y3065D01*
X3053Y2998D01*
X3128Y2926D01*
X3146Y2918D01*
X3161Y2905D01*
X3257Y2866D01*
X3351Y2823D01*
X3371Y2821D01*
X3389Y2813D01*
X3556Y2795D01*
X707444Y2795D01*
X707464Y2798D01*
G37*
%LPC*%
G36*
X116956Y35257D02*
X116956Y35257D01*
X115467Y36746D01*
X115467Y53074D01*
X116956Y54563D01*
X129068Y54563D01*
X129158Y54577D01*
X129249Y54585D01*
X129279Y54597D01*
X129311Y54602D01*
X129392Y54645D01*
X129476Y54681D01*
X129508Y54707D01*
X129528Y54718D01*
X129551Y54741D01*
X129606Y54786D01*
X136006Y61186D01*
X136059Y61259D01*
X136119Y61329D01*
X136131Y61359D01*
X136150Y61385D01*
X136177Y61472D01*
X136211Y61557D01*
X136215Y61598D01*
X136222Y61620D01*
X136221Y61653D01*
X136229Y61724D01*
X136229Y174203D01*
X161606Y199580D01*
X161659Y199654D01*
X161719Y199723D01*
X161731Y199753D01*
X161750Y199780D01*
X161777Y199866D01*
X161811Y199951D01*
X161815Y199992D01*
X161822Y200015D01*
X161821Y200047D01*
X161829Y200118D01*
X161829Y211357D01*
X166686Y216214D01*
X166739Y216288D01*
X166799Y216357D01*
X166811Y216387D01*
X166830Y216413D01*
X166857Y216500D01*
X166891Y216585D01*
X166895Y216626D01*
X166902Y216648D01*
X166901Y216681D01*
X166909Y216752D01*
X166909Y228752D01*
X168398Y230241D01*
X169642Y230241D01*
X169712Y230252D01*
X169784Y230254D01*
X169833Y230272D01*
X169885Y230280D01*
X169948Y230314D01*
X170015Y230339D01*
X170056Y230371D01*
X170102Y230396D01*
X170151Y230447D01*
X170207Y230492D01*
X170235Y230536D01*
X170271Y230574D01*
X170301Y230639D01*
X170340Y230699D01*
X170353Y230750D01*
X170375Y230797D01*
X170383Y230868D01*
X170400Y230938D01*
X170396Y230990D01*
X170402Y231041D01*
X170387Y231112D01*
X170381Y231183D01*
X170361Y231231D01*
X170350Y231282D01*
X170313Y231343D01*
X170285Y231409D01*
X170240Y231465D01*
X170224Y231493D01*
X170206Y231508D01*
X170180Y231540D01*
X169638Y232082D01*
X168675Y234406D01*
X168675Y236922D01*
X169638Y239246D01*
X171416Y241024D01*
X173740Y241987D01*
X176256Y241987D01*
X178580Y241024D01*
X180358Y239246D01*
X181321Y236922D01*
X181321Y234406D01*
X180358Y232082D01*
X179816Y231540D01*
X179774Y231482D01*
X179725Y231430D01*
X179703Y231383D01*
X179672Y231341D01*
X179651Y231272D01*
X179621Y231207D01*
X179615Y231155D01*
X179600Y231105D01*
X179602Y231034D01*
X179594Y230963D01*
X179605Y230912D01*
X179606Y230860D01*
X179631Y230792D01*
X179646Y230722D01*
X179673Y230677D01*
X179691Y230629D01*
X179736Y230573D01*
X179772Y230511D01*
X179812Y230477D01*
X179845Y230437D01*
X179905Y230398D01*
X179959Y230351D01*
X180008Y230332D01*
X180051Y230304D01*
X180121Y230286D01*
X180188Y230259D01*
X180259Y230251D01*
X180290Y230243D01*
X180313Y230245D01*
X180354Y230241D01*
X181502Y230241D01*
X182991Y228752D01*
X182991Y223772D01*
X182994Y223752D01*
X182992Y223733D01*
X183014Y223631D01*
X183030Y223529D01*
X183040Y223512D01*
X183044Y223492D01*
X183097Y223403D01*
X183146Y223312D01*
X183160Y223298D01*
X183170Y223281D01*
X183249Y223214D01*
X183324Y223142D01*
X183342Y223134D01*
X183357Y223121D01*
X183453Y223082D01*
X183547Y223039D01*
X183567Y223037D01*
X183585Y223029D01*
X183752Y223011D01*
X204978Y223011D01*
X237831Y190158D01*
X237831Y178902D01*
X237834Y178882D01*
X237832Y178863D01*
X237854Y178761D01*
X237870Y178659D01*
X237880Y178642D01*
X237884Y178622D01*
X237937Y178533D01*
X237986Y178442D01*
X238000Y178428D01*
X238010Y178411D01*
X238089Y178344D01*
X238164Y178272D01*
X238182Y178264D01*
X238197Y178251D01*
X238293Y178212D01*
X238387Y178169D01*
X238407Y178167D01*
X238425Y178159D01*
X238592Y178141D01*
X252552Y178141D01*
X253962Y176731D01*
X253978Y176720D01*
X253990Y176704D01*
X254078Y176648D01*
X254161Y176588D01*
X254180Y176582D01*
X254197Y176571D01*
X254298Y176546D01*
X254397Y176516D01*
X254416Y176516D01*
X254436Y176511D01*
X254539Y176519D01*
X254642Y176522D01*
X254661Y176529D01*
X254681Y176530D01*
X254776Y176571D01*
X254873Y176606D01*
X254889Y176619D01*
X254907Y176627D01*
X255038Y176731D01*
X256448Y178141D01*
X271536Y178141D01*
X271626Y178155D01*
X271717Y178163D01*
X271747Y178175D01*
X271779Y178180D01*
X271860Y178223D01*
X271944Y178259D01*
X271976Y178285D01*
X271996Y178296D01*
X272019Y178319D01*
X272075Y178364D01*
X288312Y194602D01*
X288365Y194675D01*
X288425Y194745D01*
X288437Y194775D01*
X288456Y194801D01*
X288483Y194888D01*
X288517Y194973D01*
X288521Y195014D01*
X288528Y195036D01*
X288527Y195069D01*
X288535Y195140D01*
X288535Y195420D01*
X290005Y198968D01*
X292720Y201683D01*
X296268Y203153D01*
X313820Y203153D01*
X313891Y203164D01*
X313963Y203166D01*
X314012Y203184D01*
X314063Y203192D01*
X314126Y203226D01*
X314194Y203251D01*
X314234Y203283D01*
X314280Y203308D01*
X314330Y203360D01*
X314386Y203404D01*
X314414Y203448D01*
X314450Y203486D01*
X314480Y203551D01*
X314519Y203611D01*
X314531Y203662D01*
X314553Y203709D01*
X314561Y203780D01*
X314579Y203850D01*
X314575Y203902D01*
X314580Y203953D01*
X314565Y204024D01*
X314560Y204095D01*
X314539Y204143D01*
X314528Y204194D01*
X314491Y204255D01*
X314463Y204321D01*
X314419Y204377D01*
X314402Y204405D01*
X314384Y204420D01*
X314359Y204452D01*
X309786Y209024D01*
X309712Y209077D01*
X309643Y209137D01*
X309613Y209149D01*
X309587Y209168D01*
X309500Y209195D01*
X309415Y209229D01*
X309374Y209233D01*
X309352Y209240D01*
X309319Y209239D01*
X309248Y209247D01*
X296268Y209247D01*
X292720Y210717D01*
X290005Y213432D01*
X288535Y216980D01*
X288535Y220820D01*
X290005Y224368D01*
X292720Y227083D01*
X296268Y228553D01*
X314332Y228553D01*
X317880Y227083D01*
X320595Y224368D01*
X322065Y220820D01*
X322065Y216980D01*
X320595Y213432D01*
X318914Y211751D01*
X318903Y211735D01*
X318887Y211723D01*
X318831Y211636D01*
X318771Y211552D01*
X318765Y211533D01*
X318754Y211516D01*
X318729Y211415D01*
X318698Y211317D01*
X318699Y211297D01*
X318694Y211277D01*
X318702Y211174D01*
X318705Y211071D01*
X318712Y211052D01*
X318713Y211032D01*
X318754Y210937D01*
X318789Y210840D01*
X318802Y210824D01*
X318810Y210806D01*
X318914Y210675D01*
X327145Y202444D01*
X327145Y161736D01*
X307454Y142044D01*
X307401Y141971D01*
X307341Y141901D01*
X307329Y141871D01*
X307310Y141845D01*
X307283Y141758D01*
X307249Y141673D01*
X307245Y141632D01*
X307238Y141610D01*
X307239Y141577D01*
X307231Y141506D01*
X307231Y140802D01*
X307234Y140782D01*
X307232Y140763D01*
X307254Y140661D01*
X307270Y140559D01*
X307280Y140542D01*
X307284Y140522D01*
X307337Y140433D01*
X307386Y140342D01*
X307400Y140328D01*
X307410Y140311D01*
X307489Y140244D01*
X307564Y140172D01*
X307582Y140164D01*
X307597Y140151D01*
X307693Y140112D01*
X307787Y140069D01*
X307807Y140067D01*
X307825Y140059D01*
X307992Y140041D01*
X310972Y140041D01*
X312382Y138631D01*
X312398Y138620D01*
X312410Y138604D01*
X312498Y138548D01*
X312581Y138488D01*
X312600Y138482D01*
X312617Y138471D01*
X312718Y138446D01*
X312817Y138416D01*
X312836Y138416D01*
X312856Y138411D01*
X312959Y138419D01*
X313062Y138422D01*
X313081Y138429D01*
X313101Y138430D01*
X313196Y138471D01*
X313293Y138506D01*
X313309Y138519D01*
X313327Y138527D01*
X313458Y138631D01*
X314868Y140041D01*
X329972Y140041D01*
X331461Y138552D01*
X331461Y121448D01*
X329972Y119959D01*
X326992Y119959D01*
X326972Y119956D01*
X326953Y119958D01*
X326851Y119936D01*
X326749Y119920D01*
X326732Y119910D01*
X326712Y119906D01*
X326623Y119853D01*
X326532Y119804D01*
X326518Y119790D01*
X326501Y119780D01*
X326434Y119701D01*
X326362Y119626D01*
X326354Y119608D01*
X326341Y119593D01*
X326302Y119497D01*
X326259Y119403D01*
X326257Y119383D01*
X326249Y119365D01*
X326231Y119198D01*
X326231Y55324D01*
X326234Y55304D01*
X326232Y55285D01*
X326254Y55183D01*
X326270Y55081D01*
X326280Y55064D01*
X326284Y55044D01*
X326337Y54955D01*
X326386Y54864D01*
X326400Y54850D01*
X326410Y54833D01*
X326489Y54766D01*
X326564Y54694D01*
X326582Y54686D01*
X326597Y54673D01*
X326693Y54634D01*
X326787Y54591D01*
X326807Y54589D01*
X326825Y54581D01*
X326909Y54572D01*
X332573Y48908D01*
X332573Y40912D01*
X326918Y35257D01*
X318922Y35257D01*
X313872Y40307D01*
X313814Y40349D01*
X313762Y40398D01*
X313715Y40420D01*
X313673Y40450D01*
X313604Y40471D01*
X313539Y40502D01*
X313487Y40507D01*
X313437Y40523D01*
X313366Y40521D01*
X313295Y40529D01*
X313244Y40518D01*
X313192Y40516D01*
X313124Y40492D01*
X313054Y40476D01*
X313009Y40450D01*
X312961Y40432D01*
X312905Y40387D01*
X312843Y40350D01*
X312809Y40311D01*
X312769Y40278D01*
X312730Y40218D01*
X312683Y40163D01*
X312664Y40115D01*
X312636Y40071D01*
X312618Y40002D01*
X312591Y39935D01*
X312583Y39864D01*
X312575Y39833D01*
X312577Y39809D01*
X312573Y39768D01*
X312573Y36746D01*
X311084Y35257D01*
X294756Y35257D01*
X293267Y36746D01*
X293267Y53074D01*
X294756Y54563D01*
X297310Y54563D01*
X297381Y54574D01*
X297453Y54576D01*
X297502Y54594D01*
X297553Y54602D01*
X297616Y54636D01*
X297684Y54661D01*
X297724Y54693D01*
X297770Y54718D01*
X297820Y54770D01*
X297876Y54814D01*
X297904Y54858D01*
X297940Y54896D01*
X297970Y54961D01*
X298009Y55021D01*
X298021Y55072D01*
X298043Y55119D01*
X298051Y55190D01*
X298069Y55260D01*
X298065Y55312D01*
X298070Y55363D01*
X298055Y55434D01*
X298050Y55505D01*
X298029Y55553D01*
X298018Y55604D01*
X297981Y55665D01*
X297953Y55731D01*
X297909Y55787D01*
X297892Y55815D01*
X297874Y55830D01*
X297849Y55862D01*
X278544Y75166D01*
X278471Y75219D01*
X278401Y75279D01*
X278371Y75291D01*
X278345Y75310D01*
X278258Y75337D01*
X278173Y75371D01*
X278132Y75375D01*
X278110Y75382D01*
X278077Y75381D01*
X278006Y75389D01*
X252922Y75389D01*
X241189Y87122D01*
X241189Y119198D01*
X241186Y119218D01*
X241188Y119237D01*
X241166Y119339D01*
X241150Y119441D01*
X241140Y119458D01*
X241136Y119478D01*
X241083Y119567D01*
X241034Y119658D01*
X241020Y119672D01*
X241010Y119689D01*
X240931Y119756D01*
X240856Y119828D01*
X240838Y119836D01*
X240823Y119849D01*
X240727Y119888D01*
X240633Y119931D01*
X240613Y119933D01*
X240595Y119941D01*
X240428Y119959D01*
X238592Y119959D01*
X238572Y119956D01*
X238553Y119958D01*
X238451Y119936D01*
X238349Y119920D01*
X238332Y119910D01*
X238312Y119906D01*
X238223Y119853D01*
X238132Y119804D01*
X238118Y119790D01*
X238101Y119780D01*
X238034Y119701D01*
X237962Y119626D01*
X237954Y119608D01*
X237941Y119593D01*
X237902Y119497D01*
X237859Y119403D01*
X237857Y119383D01*
X237849Y119365D01*
X237831Y119198D01*
X237831Y55066D01*
X237845Y54975D01*
X237853Y54885D01*
X237865Y54855D01*
X237870Y54823D01*
X237913Y54742D01*
X237949Y54658D01*
X237975Y54626D01*
X237986Y54605D01*
X238009Y54583D01*
X238054Y54527D01*
X243673Y48908D01*
X243673Y40912D01*
X238018Y35257D01*
X230022Y35257D01*
X224972Y40307D01*
X224914Y40349D01*
X224862Y40398D01*
X224815Y40420D01*
X224773Y40450D01*
X224704Y40471D01*
X224639Y40502D01*
X224587Y40507D01*
X224537Y40523D01*
X224466Y40521D01*
X224395Y40529D01*
X224344Y40518D01*
X224292Y40516D01*
X224224Y40492D01*
X224154Y40476D01*
X224109Y40450D01*
X224061Y40432D01*
X224005Y40387D01*
X223943Y40350D01*
X223909Y40311D01*
X223869Y40278D01*
X223830Y40218D01*
X223783Y40163D01*
X223764Y40115D01*
X223736Y40071D01*
X223718Y40002D01*
X223691Y39935D01*
X223683Y39864D01*
X223675Y39833D01*
X223677Y39809D01*
X223673Y39768D01*
X223673Y36746D01*
X222184Y35257D01*
X205856Y35257D01*
X204367Y36746D01*
X204367Y53074D01*
X205856Y54563D01*
X209448Y54563D01*
X209468Y54566D01*
X209487Y54564D01*
X209589Y54586D01*
X209691Y54602D01*
X209708Y54612D01*
X209728Y54616D01*
X209817Y54669D01*
X209908Y54718D01*
X209922Y54732D01*
X209939Y54742D01*
X210006Y54821D01*
X210078Y54896D01*
X210086Y54914D01*
X210099Y54929D01*
X210138Y55025D01*
X210181Y55119D01*
X210183Y55139D01*
X210191Y55157D01*
X210209Y55324D01*
X210209Y189160D01*
X210195Y189250D01*
X210187Y189341D01*
X210175Y189371D01*
X210170Y189403D01*
X210127Y189484D01*
X210091Y189568D01*
X210065Y189600D01*
X210054Y189620D01*
X210031Y189643D01*
X209986Y189698D01*
X203614Y196070D01*
X203541Y196123D01*
X203471Y196183D01*
X203441Y196195D01*
X203415Y196214D01*
X203328Y196241D01*
X203243Y196275D01*
X203202Y196279D01*
X203180Y196286D01*
X203147Y196285D01*
X203076Y196293D01*
X183752Y196293D01*
X183732Y196290D01*
X183713Y196292D01*
X183611Y196270D01*
X183509Y196254D01*
X183492Y196244D01*
X183472Y196240D01*
X183383Y196187D01*
X183292Y196138D01*
X183278Y196124D01*
X183261Y196114D01*
X183194Y196035D01*
X183122Y195960D01*
X183114Y195942D01*
X183101Y195927D01*
X183062Y195831D01*
X183019Y195737D01*
X183017Y195717D01*
X183009Y195699D01*
X182991Y195532D01*
X182991Y183648D01*
X181502Y182159D01*
X179522Y182159D01*
X179502Y182156D01*
X179483Y182158D01*
X179381Y182136D01*
X179279Y182120D01*
X179262Y182110D01*
X179242Y182106D01*
X179153Y182053D01*
X179062Y182004D01*
X179048Y181990D01*
X179031Y181980D01*
X178964Y181901D01*
X178892Y181826D01*
X178884Y181808D01*
X178871Y181793D01*
X178832Y181697D01*
X178789Y181603D01*
X178787Y181583D01*
X178779Y181565D01*
X178761Y181398D01*
X178761Y181016D01*
X178775Y180926D01*
X178783Y180835D01*
X178795Y180806D01*
X178800Y180774D01*
X178843Y180693D01*
X178879Y180609D01*
X178905Y180577D01*
X178916Y180556D01*
X178939Y180534D01*
X178984Y180478D01*
X180620Y178842D01*
X181583Y176518D01*
X181583Y174002D01*
X180620Y171678D01*
X178842Y169900D01*
X176518Y168937D01*
X174002Y168937D01*
X171678Y169900D01*
X169900Y171678D01*
X168937Y174002D01*
X168937Y176518D01*
X169900Y178842D01*
X170916Y179858D01*
X170969Y179932D01*
X171029Y180001D01*
X171041Y180032D01*
X171060Y180058D01*
X171087Y180145D01*
X171121Y180230D01*
X171125Y180271D01*
X171132Y180293D01*
X171131Y180325D01*
X171139Y180396D01*
X171139Y181398D01*
X171136Y181418D01*
X171138Y181437D01*
X171116Y181539D01*
X171100Y181641D01*
X171090Y181658D01*
X171086Y181678D01*
X171033Y181767D01*
X170984Y181858D01*
X170970Y181872D01*
X170960Y181889D01*
X170881Y181956D01*
X170806Y182028D01*
X170788Y182036D01*
X170773Y182049D01*
X170677Y182088D01*
X170583Y182131D01*
X170563Y182133D01*
X170545Y182141D01*
X170378Y182159D01*
X168398Y182159D01*
X166909Y183648D01*
X166909Y185082D01*
X166898Y185153D01*
X166896Y185225D01*
X166878Y185274D01*
X166870Y185325D01*
X166836Y185388D01*
X166811Y185456D01*
X166779Y185496D01*
X166754Y185542D01*
X166702Y185592D01*
X166658Y185648D01*
X166614Y185676D01*
X166576Y185712D01*
X166511Y185742D01*
X166451Y185781D01*
X166400Y185793D01*
X166353Y185815D01*
X166282Y185823D01*
X166212Y185841D01*
X166160Y185837D01*
X166109Y185842D01*
X166038Y185827D01*
X165967Y185822D01*
X165919Y185801D01*
X165868Y185790D01*
X165807Y185753D01*
X165741Y185725D01*
X165685Y185681D01*
X165657Y185664D01*
X165642Y185646D01*
X165610Y185621D01*
X149154Y169164D01*
X149101Y169091D01*
X149041Y169021D01*
X149029Y168991D01*
X149010Y168965D01*
X148983Y168878D01*
X148949Y168793D01*
X148945Y168752D01*
X148938Y168730D01*
X148939Y168697D01*
X148931Y168626D01*
X148931Y55066D01*
X148945Y54975D01*
X148953Y54885D01*
X148965Y54855D01*
X148970Y54823D01*
X149013Y54742D01*
X149049Y54658D01*
X149075Y54626D01*
X149086Y54605D01*
X149109Y54583D01*
X149154Y54527D01*
X154773Y48908D01*
X154773Y40912D01*
X149118Y35257D01*
X141122Y35257D01*
X136072Y40307D01*
X136014Y40349D01*
X135962Y40398D01*
X135915Y40420D01*
X135873Y40450D01*
X135804Y40471D01*
X135739Y40502D01*
X135687Y40507D01*
X135637Y40523D01*
X135566Y40521D01*
X135495Y40529D01*
X135444Y40518D01*
X135392Y40516D01*
X135324Y40492D01*
X135254Y40476D01*
X135209Y40450D01*
X135161Y40432D01*
X135105Y40387D01*
X135043Y40350D01*
X135009Y40311D01*
X134969Y40278D01*
X134930Y40218D01*
X134883Y40163D01*
X134864Y40115D01*
X134836Y40071D01*
X134818Y40002D01*
X134791Y39935D01*
X134783Y39864D01*
X134775Y39833D01*
X134777Y39809D01*
X134773Y39768D01*
X134773Y36746D01*
X133284Y35257D01*
X116956Y35257D01*
G37*
%LPD*%
%LPC*%
G36*
X448142Y35257D02*
X448142Y35257D01*
X442678Y40721D01*
X442662Y40732D01*
X442650Y40748D01*
X442562Y40804D01*
X442479Y40864D01*
X442460Y40870D01*
X442443Y40881D01*
X442342Y40906D01*
X442243Y40937D01*
X442224Y40936D01*
X442204Y40941D01*
X442101Y40933D01*
X441998Y40930D01*
X441979Y40923D01*
X441959Y40922D01*
X441864Y40882D01*
X441767Y40846D01*
X441751Y40833D01*
X441733Y40826D01*
X441602Y40721D01*
X436138Y35257D01*
X428142Y35257D01*
X422678Y40721D01*
X422662Y40732D01*
X422650Y40748D01*
X422562Y40804D01*
X422479Y40864D01*
X422460Y40870D01*
X422443Y40881D01*
X422342Y40906D01*
X422243Y40937D01*
X422224Y40936D01*
X422204Y40941D01*
X422101Y40933D01*
X421998Y40930D01*
X421979Y40923D01*
X421959Y40922D01*
X421864Y40882D01*
X421767Y40846D01*
X421751Y40833D01*
X421733Y40826D01*
X421602Y40721D01*
X416138Y35257D01*
X408142Y35257D01*
X403092Y40307D01*
X403034Y40349D01*
X402982Y40398D01*
X402935Y40420D01*
X402893Y40450D01*
X402824Y40471D01*
X402759Y40502D01*
X402707Y40507D01*
X402657Y40523D01*
X402586Y40521D01*
X402515Y40529D01*
X402464Y40518D01*
X402412Y40516D01*
X402344Y40492D01*
X402274Y40476D01*
X402229Y40450D01*
X402181Y40432D01*
X402125Y40387D01*
X402063Y40350D01*
X402029Y40311D01*
X401989Y40278D01*
X401950Y40218D01*
X401903Y40163D01*
X401884Y40115D01*
X401856Y40071D01*
X401838Y40002D01*
X401811Y39935D01*
X401803Y39864D01*
X401795Y39833D01*
X401797Y39809D01*
X401793Y39768D01*
X401793Y36746D01*
X400304Y35257D01*
X383976Y35257D01*
X382487Y36746D01*
X382487Y53074D01*
X383976Y54563D01*
X400304Y54563D01*
X401793Y53074D01*
X401793Y50052D01*
X401804Y49981D01*
X401806Y49909D01*
X401824Y49860D01*
X401832Y49809D01*
X401866Y49746D01*
X401891Y49678D01*
X401923Y49637D01*
X401948Y49591D01*
X401999Y49542D01*
X402044Y49486D01*
X402088Y49458D01*
X402126Y49422D01*
X402191Y49392D01*
X402251Y49353D01*
X402302Y49340D01*
X402349Y49318D01*
X402420Y49311D01*
X402490Y49293D01*
X402542Y49297D01*
X402593Y49291D01*
X402664Y49307D01*
X402735Y49312D01*
X402783Y49332D01*
X402834Y49344D01*
X402895Y49380D01*
X402961Y49408D01*
X403017Y49453D01*
X403045Y49470D01*
X403060Y49488D01*
X403092Y49513D01*
X408106Y54527D01*
X408159Y54601D01*
X408219Y54671D01*
X408231Y54701D01*
X408250Y54727D01*
X408277Y54814D01*
X408311Y54899D01*
X408315Y54940D01*
X408322Y54962D01*
X408321Y54994D01*
X408329Y55066D01*
X408329Y115406D01*
X408315Y115496D01*
X408307Y115587D01*
X408295Y115617D01*
X408290Y115649D01*
X408247Y115730D01*
X408211Y115814D01*
X408185Y115846D01*
X408174Y115866D01*
X408151Y115889D01*
X408106Y115944D01*
X377682Y146369D01*
X377675Y146412D01*
X377667Y146503D01*
X377655Y146533D01*
X377650Y146565D01*
X377607Y146645D01*
X377571Y146729D01*
X377545Y146761D01*
X377534Y146782D01*
X377511Y146804D01*
X377466Y146860D01*
X376262Y148064D01*
X376188Y148117D01*
X376119Y148177D01*
X376089Y148189D01*
X376062Y148208D01*
X375976Y148235D01*
X375891Y148269D01*
X375850Y148273D01*
X375827Y148280D01*
X375795Y148279D01*
X375724Y148287D01*
X366181Y148287D01*
X354575Y159893D01*
X354575Y197364D01*
X367886Y210675D01*
X367897Y210691D01*
X367913Y210703D01*
X367969Y210791D01*
X368029Y210875D01*
X368035Y210894D01*
X368046Y210910D01*
X368071Y211011D01*
X368102Y211110D01*
X368101Y211130D01*
X368106Y211149D01*
X368098Y211252D01*
X368095Y211356D01*
X368088Y211374D01*
X368087Y211394D01*
X368046Y211489D01*
X368011Y211587D01*
X367998Y211602D01*
X367990Y211620D01*
X367886Y211751D01*
X366205Y213432D01*
X364735Y216980D01*
X364735Y220820D01*
X366205Y224368D01*
X368920Y227083D01*
X372468Y228553D01*
X390532Y228553D01*
X394080Y227083D01*
X396795Y224368D01*
X398265Y220820D01*
X398265Y216980D01*
X396795Y213432D01*
X394080Y210717D01*
X390532Y209247D01*
X377552Y209247D01*
X377462Y209233D01*
X377371Y209225D01*
X377341Y209213D01*
X377309Y209208D01*
X377228Y209165D01*
X377144Y209129D01*
X377112Y209103D01*
X377092Y209092D01*
X377069Y209069D01*
X377014Y209024D01*
X372441Y204452D01*
X372400Y204394D01*
X372350Y204342D01*
X372328Y204295D01*
X372298Y204253D01*
X372277Y204184D01*
X372247Y204119D01*
X372241Y204067D01*
X372226Y204017D01*
X372227Y203946D01*
X372220Y203875D01*
X372231Y203824D01*
X372232Y203772D01*
X372257Y203704D01*
X372272Y203634D01*
X372298Y203589D01*
X372316Y203541D01*
X372361Y203485D01*
X372398Y203423D01*
X372438Y203389D01*
X372470Y203349D01*
X372530Y203310D01*
X372585Y203263D01*
X372633Y203244D01*
X372677Y203216D01*
X372746Y203198D01*
X372813Y203171D01*
X372884Y203163D01*
X372916Y203155D01*
X372939Y203157D01*
X372980Y203153D01*
X390532Y203153D01*
X394080Y201683D01*
X396795Y198968D01*
X398265Y195420D01*
X398265Y191580D01*
X396795Y188032D01*
X394080Y185317D01*
X390532Y183847D01*
X377552Y183847D01*
X377462Y183833D01*
X377371Y183825D01*
X377341Y183813D01*
X377309Y183808D01*
X377228Y183765D01*
X377144Y183729D01*
X377112Y183703D01*
X377092Y183692D01*
X377069Y183669D01*
X377013Y183624D01*
X372441Y179052D01*
X372400Y178994D01*
X372350Y178942D01*
X372328Y178895D01*
X372298Y178853D01*
X372277Y178784D01*
X372247Y178719D01*
X372241Y178667D01*
X372226Y178617D01*
X372227Y178546D01*
X372220Y178475D01*
X372231Y178424D01*
X372232Y178372D01*
X372257Y178304D01*
X372272Y178234D01*
X372298Y178190D01*
X372316Y178141D01*
X372361Y178085D01*
X372398Y178023D01*
X372438Y177989D01*
X372470Y177949D01*
X372530Y177910D01*
X372585Y177863D01*
X372633Y177844D01*
X372677Y177816D01*
X372746Y177798D01*
X372813Y177771D01*
X372884Y177763D01*
X372916Y177755D01*
X372939Y177757D01*
X372980Y177753D01*
X390532Y177753D01*
X394080Y176283D01*
X396795Y173568D01*
X397287Y172381D01*
X397348Y172281D01*
X397408Y172181D01*
X397413Y172177D01*
X397417Y172172D01*
X397506Y172097D01*
X397595Y172021D01*
X397601Y172019D01*
X397606Y172015D01*
X397714Y171973D01*
X397824Y171929D01*
X397831Y171928D01*
X397836Y171927D01*
X397854Y171926D01*
X397990Y171911D01*
X412998Y171911D01*
X413018Y171914D01*
X413037Y171912D01*
X413139Y171934D01*
X413241Y171950D01*
X413258Y171960D01*
X413278Y171964D01*
X413367Y172017D01*
X413458Y172066D01*
X413472Y172080D01*
X413489Y172090D01*
X413556Y172169D01*
X413628Y172244D01*
X413636Y172262D01*
X413649Y172277D01*
X413688Y172373D01*
X413731Y172467D01*
X413733Y172487D01*
X413741Y172505D01*
X413759Y172672D01*
X413759Y176652D01*
X415248Y178141D01*
X430352Y178141D01*
X431762Y176731D01*
X431778Y176720D01*
X431790Y176704D01*
X431878Y176648D01*
X431961Y176588D01*
X431980Y176582D01*
X431997Y176571D01*
X432098Y176546D01*
X432197Y176516D01*
X432216Y176516D01*
X432236Y176511D01*
X432339Y176519D01*
X432442Y176522D01*
X432461Y176529D01*
X432481Y176530D01*
X432576Y176571D01*
X432673Y176606D01*
X432689Y176619D01*
X432707Y176627D01*
X432838Y176731D01*
X434248Y178141D01*
X437228Y178141D01*
X437248Y178144D01*
X437267Y178142D01*
X437369Y178164D01*
X437471Y178180D01*
X437488Y178190D01*
X437508Y178194D01*
X437597Y178247D01*
X437688Y178296D01*
X437702Y178310D01*
X437719Y178320D01*
X437786Y178399D01*
X437858Y178474D01*
X437866Y178492D01*
X437879Y178507D01*
X437918Y178603D01*
X437961Y178697D01*
X437963Y178717D01*
X437971Y178735D01*
X437989Y178902D01*
X437989Y195398D01*
X437987Y195415D01*
X437988Y195430D01*
X437988Y195433D01*
X437988Y195437D01*
X437966Y195539D01*
X437950Y195641D01*
X437940Y195658D01*
X437936Y195678D01*
X437883Y195767D01*
X437834Y195858D01*
X437820Y195872D01*
X437810Y195889D01*
X437731Y195956D01*
X437656Y196028D01*
X437638Y196036D01*
X437623Y196049D01*
X437527Y196088D01*
X437433Y196131D01*
X437413Y196133D01*
X437395Y196141D01*
X437228Y196159D01*
X434248Y196159D01*
X432838Y197569D01*
X432822Y197580D01*
X432810Y197596D01*
X432722Y197652D01*
X432639Y197712D01*
X432620Y197718D01*
X432603Y197729D01*
X432502Y197754D01*
X432403Y197784D01*
X432384Y197784D01*
X432364Y197789D01*
X432261Y197781D01*
X432158Y197778D01*
X432139Y197771D01*
X432119Y197770D01*
X432024Y197729D01*
X431927Y197694D01*
X431911Y197681D01*
X431893Y197673D01*
X431762Y197569D01*
X430352Y196159D01*
X415248Y196159D01*
X413759Y197648D01*
X413759Y201628D01*
X413756Y201648D01*
X413758Y201667D01*
X413736Y201769D01*
X413720Y201871D01*
X413710Y201888D01*
X413706Y201908D01*
X413653Y201997D01*
X413604Y202088D01*
X413590Y202102D01*
X413580Y202119D01*
X413501Y202186D01*
X413426Y202258D01*
X413408Y202266D01*
X413393Y202279D01*
X413297Y202318D01*
X413203Y202361D01*
X413183Y202363D01*
X413165Y202371D01*
X412998Y202389D01*
X412346Y202389D01*
X412256Y202375D01*
X412165Y202367D01*
X412136Y202355D01*
X412104Y202350D01*
X412023Y202307D01*
X411939Y202271D01*
X411907Y202245D01*
X411886Y202234D01*
X411864Y202211D01*
X411808Y202166D01*
X410482Y200840D01*
X408158Y199877D01*
X405642Y199877D01*
X403318Y200840D01*
X401540Y202618D01*
X400577Y204942D01*
X400577Y207458D01*
X401540Y209782D01*
X403318Y211560D01*
X405642Y212523D01*
X408158Y212523D01*
X410482Y211560D01*
X411808Y210234D01*
X411882Y210181D01*
X411951Y210121D01*
X411982Y210109D01*
X412008Y210090D01*
X412095Y210063D01*
X412180Y210029D01*
X412221Y210025D01*
X412243Y210018D01*
X412275Y210019D01*
X412346Y210011D01*
X412998Y210011D01*
X413018Y210014D01*
X413037Y210012D01*
X413139Y210034D01*
X413241Y210050D01*
X413258Y210060D01*
X413278Y210064D01*
X413367Y210117D01*
X413458Y210166D01*
X413472Y210180D01*
X413489Y210190D01*
X413556Y210269D01*
X413628Y210344D01*
X413636Y210362D01*
X413649Y210377D01*
X413688Y210473D01*
X413731Y210567D01*
X413733Y210587D01*
X413741Y210605D01*
X413759Y210772D01*
X413759Y214752D01*
X415248Y216241D01*
X430352Y216241D01*
X431762Y214831D01*
X431778Y214820D01*
X431790Y214804D01*
X431878Y214748D01*
X431961Y214688D01*
X431980Y214682D01*
X431997Y214671D01*
X432098Y214646D01*
X432197Y214616D01*
X432216Y214616D01*
X432236Y214611D01*
X432339Y214619D01*
X432442Y214622D01*
X432461Y214629D01*
X432481Y214630D01*
X432576Y214671D01*
X432673Y214706D01*
X432689Y214719D01*
X432707Y214727D01*
X432838Y214831D01*
X434248Y216241D01*
X437228Y216241D01*
X437248Y216244D01*
X437267Y216242D01*
X437369Y216264D01*
X437471Y216280D01*
X437488Y216290D01*
X437508Y216294D01*
X437597Y216347D01*
X437688Y216396D01*
X437702Y216410D01*
X437719Y216420D01*
X437786Y216499D01*
X437858Y216574D01*
X437866Y216592D01*
X437879Y216607D01*
X437918Y216703D01*
X437961Y216797D01*
X437963Y216817D01*
X437971Y216835D01*
X437989Y217002D01*
X437989Y217278D01*
X468822Y248111D01*
X510214Y248111D01*
X510329Y248130D01*
X510445Y248147D01*
X510451Y248149D01*
X510457Y248150D01*
X510559Y248205D01*
X510664Y248258D01*
X510669Y248263D01*
X510674Y248266D01*
X510754Y248350D01*
X510836Y248434D01*
X510840Y248440D01*
X510844Y248444D01*
X510851Y248461D01*
X510917Y248581D01*
X511647Y250343D01*
X514649Y253345D01*
X518570Y254969D01*
X539070Y254969D01*
X542991Y253345D01*
X545993Y250343D01*
X547617Y246422D01*
X547617Y242178D01*
X545993Y238257D01*
X542991Y235255D01*
X539070Y233631D01*
X518570Y233631D01*
X514649Y235255D01*
X511647Y238257D01*
X510917Y240019D01*
X510855Y240119D01*
X510796Y240219D01*
X510791Y240223D01*
X510788Y240228D01*
X510697Y240303D01*
X510609Y240379D01*
X510603Y240381D01*
X510598Y240385D01*
X510490Y240427D01*
X510381Y240471D01*
X510373Y240472D01*
X510369Y240473D01*
X510350Y240474D01*
X510214Y240489D01*
X472294Y240489D01*
X472204Y240475D01*
X472113Y240467D01*
X472083Y240455D01*
X472051Y240450D01*
X471970Y240407D01*
X471886Y240371D01*
X471854Y240345D01*
X471834Y240334D01*
X471811Y240311D01*
X471756Y240266D01*
X449029Y217540D01*
X448988Y217482D01*
X448938Y217430D01*
X448916Y217383D01*
X448886Y217341D01*
X448865Y217272D01*
X448835Y217207D01*
X448829Y217155D01*
X448814Y217105D01*
X448815Y217034D01*
X448808Y216963D01*
X448819Y216912D01*
X448820Y216860D01*
X448845Y216792D01*
X448860Y216722D01*
X448886Y216677D01*
X448904Y216629D01*
X448949Y216573D01*
X448986Y216511D01*
X449026Y216477D01*
X449058Y216437D01*
X449118Y216398D01*
X449173Y216351D01*
X449221Y216332D01*
X449265Y216304D01*
X449298Y216295D01*
X450841Y214752D01*
X450841Y197648D01*
X449352Y196159D01*
X446372Y196159D01*
X446352Y196156D01*
X446333Y196158D01*
X446231Y196136D01*
X446129Y196120D01*
X446112Y196110D01*
X446092Y196106D01*
X446003Y196053D01*
X445912Y196004D01*
X445898Y195990D01*
X445881Y195980D01*
X445814Y195901D01*
X445742Y195826D01*
X445734Y195808D01*
X445721Y195793D01*
X445682Y195697D01*
X445639Y195603D01*
X445637Y195583D01*
X445629Y195565D01*
X445611Y195398D01*
X445611Y178902D01*
X445614Y178882D01*
X445612Y178863D01*
X445634Y178761D01*
X445650Y178659D01*
X445660Y178642D01*
X445664Y178622D01*
X445717Y178533D01*
X445766Y178442D01*
X445780Y178428D01*
X445790Y178411D01*
X445869Y178344D01*
X445944Y178272D01*
X445962Y178264D01*
X445977Y178251D01*
X446073Y178212D01*
X446167Y178169D01*
X446187Y178167D01*
X446205Y178159D01*
X446372Y178141D01*
X449352Y178141D01*
X450841Y176652D01*
X450841Y159548D01*
X449352Y158059D01*
X434248Y158059D01*
X432838Y159469D01*
X432822Y159480D01*
X432810Y159496D01*
X432722Y159552D01*
X432639Y159612D01*
X432620Y159618D01*
X432603Y159629D01*
X432502Y159654D01*
X432403Y159684D01*
X432384Y159684D01*
X432364Y159689D01*
X432261Y159681D01*
X432158Y159678D01*
X432139Y159671D01*
X432119Y159670D01*
X432024Y159629D01*
X431927Y159594D01*
X431911Y159581D01*
X431893Y159573D01*
X431762Y159469D01*
X430352Y158059D01*
X415248Y158059D01*
X413759Y159548D01*
X413759Y163528D01*
X413756Y163548D01*
X413758Y163567D01*
X413736Y163669D01*
X413720Y163771D01*
X413710Y163788D01*
X413706Y163808D01*
X413653Y163897D01*
X413604Y163988D01*
X413590Y164002D01*
X413580Y164019D01*
X413501Y164086D01*
X413426Y164158D01*
X413408Y164166D01*
X413393Y164179D01*
X413297Y164218D01*
X413203Y164261D01*
X413183Y164263D01*
X413165Y164271D01*
X412998Y164289D01*
X397990Y164289D01*
X397875Y164270D01*
X397759Y164253D01*
X397754Y164251D01*
X397747Y164250D01*
X397645Y164195D01*
X397540Y164142D01*
X397536Y164137D01*
X397530Y164134D01*
X397450Y164050D01*
X397368Y163966D01*
X397364Y163960D01*
X397361Y163956D01*
X397353Y163939D01*
X397287Y163819D01*
X396795Y162632D01*
X394080Y159917D01*
X390532Y158447D01*
X385680Y158447D01*
X385609Y158436D01*
X385537Y158434D01*
X385488Y158416D01*
X385437Y158408D01*
X385374Y158374D01*
X385306Y158349D01*
X385266Y158317D01*
X385220Y158292D01*
X385170Y158240D01*
X385114Y158196D01*
X385086Y158152D01*
X385050Y158114D01*
X385020Y158049D01*
X384981Y157989D01*
X384969Y157938D01*
X384947Y157891D01*
X384939Y157820D01*
X384921Y157750D01*
X384925Y157698D01*
X384920Y157647D01*
X384935Y157576D01*
X384940Y157505D01*
X384961Y157457D01*
X384972Y157406D01*
X385009Y157345D01*
X385037Y157279D01*
X385081Y157223D01*
X385098Y157195D01*
X385116Y157180D01*
X385141Y157148D01*
X408256Y134034D01*
X408329Y133981D01*
X408399Y133921D01*
X408429Y133909D01*
X408455Y133890D01*
X408542Y133863D01*
X408627Y133829D01*
X408668Y133825D01*
X408690Y133818D01*
X408723Y133819D01*
X408794Y133811D01*
X412998Y133811D01*
X413018Y133814D01*
X413037Y133812D01*
X413139Y133834D01*
X413241Y133850D01*
X413258Y133860D01*
X413278Y133864D01*
X413367Y133917D01*
X413458Y133966D01*
X413472Y133980D01*
X413489Y133990D01*
X413556Y134069D01*
X413628Y134144D01*
X413636Y134162D01*
X413649Y134177D01*
X413688Y134273D01*
X413731Y134367D01*
X413733Y134387D01*
X413741Y134405D01*
X413759Y134572D01*
X413759Y138552D01*
X415248Y140041D01*
X430352Y140041D01*
X431762Y138631D01*
X431778Y138620D01*
X431790Y138604D01*
X431878Y138548D01*
X431961Y138488D01*
X431980Y138482D01*
X431997Y138471D01*
X432098Y138446D01*
X432197Y138416D01*
X432216Y138416D01*
X432236Y138411D01*
X432339Y138419D01*
X432442Y138422D01*
X432461Y138429D01*
X432481Y138430D01*
X432576Y138471D01*
X432673Y138506D01*
X432689Y138519D01*
X432707Y138527D01*
X432838Y138631D01*
X434248Y140041D01*
X449352Y140041D01*
X450841Y138552D01*
X450841Y121448D01*
X449352Y119959D01*
X447080Y119959D01*
X447010Y119948D01*
X446938Y119946D01*
X446889Y119928D01*
X446837Y119920D01*
X446774Y119886D01*
X446707Y119861D01*
X446666Y119829D01*
X446620Y119804D01*
X446571Y119752D01*
X446515Y119708D01*
X446487Y119664D01*
X446451Y119626D01*
X446421Y119561D01*
X446382Y119501D01*
X446369Y119450D01*
X446347Y119403D01*
X446339Y119332D01*
X446322Y119262D01*
X446326Y119210D01*
X446320Y119159D01*
X446335Y119088D01*
X446341Y119017D01*
X446361Y118969D01*
X446372Y118918D01*
X446409Y118857D01*
X446437Y118791D01*
X446482Y118735D01*
X446498Y118707D01*
X446516Y118692D01*
X446542Y118660D01*
X447320Y117882D01*
X448283Y115558D01*
X448283Y113042D01*
X447320Y110718D01*
X445542Y108940D01*
X443218Y107977D01*
X440702Y107977D01*
X438378Y108940D01*
X436600Y110718D01*
X435637Y113042D01*
X435637Y115558D01*
X436600Y117882D01*
X437378Y118660D01*
X437420Y118718D01*
X437469Y118770D01*
X437491Y118817D01*
X437522Y118859D01*
X437543Y118928D01*
X437573Y118993D01*
X437579Y119045D01*
X437594Y119095D01*
X437592Y119166D01*
X437600Y119237D01*
X437589Y119288D01*
X437588Y119340D01*
X437563Y119408D01*
X437548Y119478D01*
X437521Y119523D01*
X437503Y119571D01*
X437458Y119627D01*
X437422Y119689D01*
X437382Y119723D01*
X437349Y119763D01*
X437289Y119802D01*
X437235Y119849D01*
X437186Y119868D01*
X437143Y119896D01*
X437073Y119914D01*
X437006Y119941D01*
X436935Y119949D01*
X436904Y119957D01*
X436881Y119955D01*
X436840Y119959D01*
X434248Y119959D01*
X432838Y121369D01*
X432822Y121380D01*
X432810Y121396D01*
X432722Y121452D01*
X432639Y121512D01*
X432620Y121518D01*
X432603Y121529D01*
X432502Y121554D01*
X432403Y121584D01*
X432384Y121584D01*
X432364Y121589D01*
X432261Y121581D01*
X432158Y121578D01*
X432139Y121571D01*
X432119Y121570D01*
X432024Y121529D01*
X431927Y121494D01*
X431911Y121481D01*
X431893Y121473D01*
X431762Y121369D01*
X430352Y119959D01*
X427372Y119959D01*
X427352Y119956D01*
X427333Y119958D01*
X427231Y119936D01*
X427129Y119920D01*
X427112Y119910D01*
X427092Y119906D01*
X427003Y119853D01*
X426912Y119804D01*
X426898Y119790D01*
X426881Y119780D01*
X426814Y119701D01*
X426742Y119626D01*
X426734Y119608D01*
X426721Y119593D01*
X426682Y119497D01*
X426639Y119403D01*
X426637Y119383D01*
X426629Y119365D01*
X426611Y119198D01*
X426611Y93134D01*
X426625Y93044D01*
X426633Y92953D01*
X426645Y92923D01*
X426650Y92891D01*
X426693Y92810D01*
X426729Y92726D01*
X426755Y92694D01*
X426766Y92674D01*
X426789Y92651D01*
X426834Y92595D01*
X433495Y85934D01*
X433496Y85934D01*
X435951Y83478D01*
X435951Y55066D01*
X435965Y54975D01*
X435973Y54885D01*
X435985Y54855D01*
X435990Y54823D01*
X436033Y54742D01*
X436069Y54658D01*
X436095Y54626D01*
X436106Y54605D01*
X436129Y54583D01*
X436174Y54527D01*
X441602Y49099D01*
X441618Y49088D01*
X441630Y49072D01*
X441718Y49016D01*
X441801Y48956D01*
X441820Y48950D01*
X441837Y48939D01*
X441938Y48914D01*
X442037Y48883D01*
X442056Y48884D01*
X442076Y48879D01*
X442179Y48887D01*
X442282Y48890D01*
X442301Y48897D01*
X442321Y48898D01*
X442416Y48938D01*
X442513Y48974D01*
X442529Y48987D01*
X442547Y48994D01*
X442678Y49099D01*
X448142Y54563D01*
X450617Y54563D01*
X450617Y45672D01*
X450620Y45652D01*
X450618Y45633D01*
X450640Y45531D01*
X450657Y45429D01*
X450666Y45412D01*
X450670Y45392D01*
X450723Y45303D01*
X450772Y45212D01*
X450786Y45198D01*
X450796Y45181D01*
X450875Y45114D01*
X450950Y45043D01*
X450968Y45034D01*
X450983Y45021D01*
X451079Y44983D01*
X451173Y44939D01*
X451193Y44937D01*
X451211Y44929D01*
X451378Y44911D01*
X452141Y44911D01*
X452141Y44909D01*
X451378Y44909D01*
X451358Y44906D01*
X451339Y44908D01*
X451237Y44886D01*
X451135Y44869D01*
X451118Y44860D01*
X451098Y44856D01*
X451009Y44803D01*
X450918Y44754D01*
X450904Y44740D01*
X450887Y44730D01*
X450820Y44651D01*
X450749Y44576D01*
X450740Y44558D01*
X450727Y44543D01*
X450688Y44447D01*
X450645Y44353D01*
X450643Y44333D01*
X450635Y44315D01*
X450617Y44148D01*
X450617Y35257D01*
X448142Y35257D01*
G37*
%LPD*%
%LPC*%
G36*
X666820Y364249D02*
X666820Y364249D01*
X658745Y366413D01*
X651505Y370593D01*
X645593Y376505D01*
X641413Y383745D01*
X639249Y391820D01*
X639249Y400180D01*
X641413Y408255D01*
X645593Y415495D01*
X651505Y421407D01*
X658745Y425587D01*
X666820Y427751D01*
X675180Y427751D01*
X683255Y425587D01*
X690495Y421407D01*
X696407Y415495D01*
X700587Y408255D01*
X702751Y400180D01*
X702751Y391820D01*
X700587Y383745D01*
X696407Y376505D01*
X690495Y370593D01*
X683255Y366413D01*
X675180Y364249D01*
X666820Y364249D01*
G37*
%LPD*%
%LPC*%
G36*
X666820Y8249D02*
X666820Y8249D01*
X658745Y10413D01*
X651505Y14593D01*
X645593Y20505D01*
X641413Y27745D01*
X639249Y35820D01*
X639249Y44180D01*
X641413Y52255D01*
X645593Y59495D01*
X651505Y65407D01*
X658745Y69587D01*
X666820Y71751D01*
X675180Y71751D01*
X683255Y69587D01*
X690495Y65407D01*
X696407Y59495D01*
X700587Y52255D01*
X702751Y44180D01*
X702751Y35820D01*
X700587Y27745D01*
X696407Y20505D01*
X690495Y14593D01*
X683255Y10413D01*
X675180Y8249D01*
X666820Y8249D01*
G37*
%LPD*%
%LPC*%
G36*
X35820Y8249D02*
X35820Y8249D01*
X27745Y10413D01*
X20505Y14593D01*
X14593Y20505D01*
X10413Y27745D01*
X8249Y35820D01*
X8249Y44180D01*
X10413Y52255D01*
X14593Y59495D01*
X20505Y65407D01*
X27745Y69587D01*
X35820Y71751D01*
X44180Y71751D01*
X52255Y69587D01*
X59495Y65407D01*
X65407Y59495D01*
X69587Y52255D01*
X71751Y44180D01*
X71751Y35820D01*
X69587Y27745D01*
X65407Y20505D01*
X59495Y14593D01*
X52255Y10413D01*
X44180Y8249D01*
X35820Y8249D01*
G37*
%LPD*%
%LPC*%
G36*
X35820Y364249D02*
X35820Y364249D01*
X27745Y366413D01*
X20505Y370593D01*
X14593Y376505D01*
X10413Y383745D01*
X8249Y391820D01*
X8249Y400180D01*
X10413Y408255D01*
X14593Y415495D01*
X20505Y421407D01*
X27745Y425587D01*
X35820Y427751D01*
X44180Y427751D01*
X52255Y425587D01*
X59495Y421407D01*
X65407Y415495D01*
X69587Y408255D01*
X71751Y400180D01*
X71751Y391820D01*
X69587Y383745D01*
X65407Y376505D01*
X59495Y370593D01*
X52255Y366413D01*
X44180Y364249D01*
X35820Y364249D01*
G37*
%LPD*%
%LPC*%
G36*
X557545Y70309D02*
X557545Y70309D01*
X549610Y73596D01*
X543536Y79670D01*
X540249Y87605D01*
X540249Y96195D01*
X543536Y104130D01*
X549610Y110204D01*
X557545Y113491D01*
X566135Y113491D01*
X574070Y110204D01*
X580144Y104130D01*
X583431Y96195D01*
X583431Y87605D01*
X580144Y79670D01*
X574070Y73596D01*
X566135Y70309D01*
X557545Y70309D01*
G37*
%LPD*%
%LPC*%
G36*
X557545Y324309D02*
X557545Y324309D01*
X549610Y327596D01*
X543536Y333670D01*
X540249Y341605D01*
X540249Y350195D01*
X543536Y358130D01*
X549610Y364204D01*
X557545Y367491D01*
X566135Y367491D01*
X574070Y364204D01*
X580144Y358130D01*
X583431Y350195D01*
X583431Y341605D01*
X580144Y333670D01*
X574070Y327596D01*
X566135Y324309D01*
X557545Y324309D01*
G37*
%LPD*%
%LPC*%
G36*
X296704Y350344D02*
X296704Y350344D01*
X287404Y359644D01*
X287404Y372796D01*
X296704Y382096D01*
X309856Y382096D01*
X319156Y372796D01*
X319156Y359644D01*
X309856Y350344D01*
X296704Y350344D01*
G37*
%LPD*%
%LPC*%
G36*
X408464Y350344D02*
X408464Y350344D01*
X399164Y359644D01*
X399164Y372796D01*
X408464Y382096D01*
X421616Y382096D01*
X430916Y372796D01*
X430916Y359644D01*
X421616Y350344D01*
X408464Y350344D01*
G37*
%LPD*%
%LPC*%
G36*
X118904Y350344D02*
X118904Y350344D01*
X109604Y359644D01*
X109604Y372796D01*
X118904Y382096D01*
X132056Y382096D01*
X141356Y372796D01*
X141356Y359644D01*
X132056Y350344D01*
X118904Y350344D01*
G37*
%LPD*%
%LPC*%
G36*
X518570Y182831D02*
X518570Y182831D01*
X514649Y184455D01*
X511647Y187457D01*
X510023Y191378D01*
X510023Y195622D01*
X511647Y199543D01*
X514649Y202545D01*
X518570Y204169D01*
X539070Y204169D01*
X542991Y202545D01*
X545993Y199543D01*
X547617Y195622D01*
X547617Y191378D01*
X545993Y187457D01*
X542991Y184455D01*
X539070Y182831D01*
X518570Y182831D01*
G37*
%LPD*%
%LPC*%
G36*
X518570Y208231D02*
X518570Y208231D01*
X514649Y209855D01*
X511647Y212857D01*
X510023Y216778D01*
X510023Y221022D01*
X511647Y224943D01*
X514649Y227945D01*
X518570Y229569D01*
X539070Y229569D01*
X542991Y227945D01*
X545993Y224943D01*
X547617Y221022D01*
X547617Y216778D01*
X545993Y212857D01*
X542991Y209855D01*
X539070Y208231D01*
X518570Y208231D01*
G37*
%LPD*%
%LPC*%
G36*
X105417Y187671D02*
X105417Y187671D01*
X105397Y187673D01*
X105379Y187681D01*
X105212Y187699D01*
X97409Y187699D01*
X97409Y189034D01*
X97531Y189488D01*
X97537Y189555D01*
X97554Y189621D01*
X97550Y189677D01*
X97555Y189733D01*
X97540Y189799D01*
X97535Y189866D01*
X97513Y189918D01*
X97500Y189972D01*
X97465Y190030D01*
X97439Y190092D01*
X97409Y190129D01*
X97409Y228752D01*
X98898Y230241D01*
X112002Y230241D01*
X113491Y228752D01*
X113491Y190131D01*
X113480Y190120D01*
X113456Y190069D01*
X113423Y190023D01*
X113403Y189959D01*
X113374Y189898D01*
X113367Y189842D01*
X113350Y189788D01*
X113352Y189721D01*
X113344Y189654D01*
X113356Y189575D01*
X113357Y189543D01*
X113364Y189523D01*
X113369Y189488D01*
X113491Y189034D01*
X113491Y187699D01*
X105688Y187699D01*
X105669Y187696D01*
X105649Y187698D01*
X105547Y187676D01*
X105445Y187660D01*
X105444Y187659D01*
X105417Y187671D01*
G37*
%LPD*%
%LPC*%
G36*
X132223Y254579D02*
X132223Y254579D01*
X132223Y263858D01*
X132220Y263878D01*
X132222Y263897D01*
X132200Y263999D01*
X132183Y264101D01*
X132174Y264118D01*
X132170Y264138D01*
X132117Y264227D01*
X132068Y264318D01*
X132054Y264332D01*
X132044Y264349D01*
X131965Y264416D01*
X131890Y264487D01*
X131872Y264496D01*
X131857Y264509D01*
X131761Y264548D01*
X131667Y264591D01*
X131647Y264593D01*
X131629Y264601D01*
X131462Y264619D01*
X130699Y264619D01*
X130699Y264621D01*
X131462Y264621D01*
X131482Y264624D01*
X131501Y264622D01*
X131603Y264644D01*
X131705Y264661D01*
X131722Y264670D01*
X131742Y264674D01*
X131831Y264727D01*
X131922Y264776D01*
X131936Y264790D01*
X131953Y264800D01*
X132020Y264879D01*
X132091Y264954D01*
X132100Y264972D01*
X132113Y264987D01*
X132152Y265083D01*
X132195Y265177D01*
X132197Y265197D01*
X132205Y265215D01*
X132223Y265382D01*
X132223Y274661D01*
X137534Y274661D01*
X138181Y274488D01*
X138760Y274153D01*
X139233Y273680D01*
X139445Y273313D01*
X139521Y273220D01*
X139594Y273128D01*
X139598Y273126D01*
X139601Y273123D01*
X139702Y273059D01*
X139801Y272995D01*
X139805Y272994D01*
X139809Y272992D01*
X139925Y272964D01*
X140040Y272935D01*
X140044Y272936D01*
X140048Y272935D01*
X140167Y272945D01*
X140285Y272954D01*
X140289Y272956D01*
X140293Y272956D01*
X140403Y273004D01*
X140511Y273051D01*
X140515Y273054D01*
X140518Y273055D01*
X140529Y273065D01*
X140642Y273156D01*
X142148Y274661D01*
X157252Y274661D01*
X158741Y273172D01*
X158741Y268732D01*
X158744Y268712D01*
X158742Y268693D01*
X158764Y268591D01*
X158780Y268489D01*
X158790Y268472D01*
X158794Y268452D01*
X158847Y268363D01*
X158896Y268272D01*
X158910Y268258D01*
X158920Y268241D01*
X158999Y268174D01*
X159074Y268102D01*
X159092Y268094D01*
X159107Y268081D01*
X159203Y268042D01*
X159297Y267999D01*
X159317Y267997D01*
X159335Y267989D01*
X159502Y267971D01*
X159654Y267971D01*
X159744Y267985D01*
X159835Y267993D01*
X159864Y268005D01*
X159896Y268010D01*
X159977Y268053D01*
X160061Y268089D01*
X160093Y268115D01*
X160114Y268126D01*
X160136Y268149D01*
X160192Y268194D01*
X161518Y269520D01*
X163842Y270483D01*
X166358Y270483D01*
X168682Y269520D01*
X170460Y267742D01*
X171423Y265418D01*
X171423Y262902D01*
X170460Y260578D01*
X168682Y258800D01*
X166358Y257837D01*
X163842Y257837D01*
X161518Y258800D01*
X160192Y260126D01*
X160118Y260179D01*
X160049Y260239D01*
X160018Y260251D01*
X159992Y260270D01*
X159905Y260297D01*
X159820Y260331D01*
X159779Y260335D01*
X159757Y260342D01*
X159725Y260341D01*
X159654Y260349D01*
X159502Y260349D01*
X159482Y260346D01*
X159463Y260348D01*
X159361Y260326D01*
X159259Y260310D01*
X159242Y260300D01*
X159222Y260296D01*
X159133Y260243D01*
X159042Y260194D01*
X159028Y260180D01*
X159011Y260170D01*
X158944Y260091D01*
X158872Y260016D01*
X158864Y259998D01*
X158851Y259983D01*
X158812Y259887D01*
X158769Y259793D01*
X158767Y259773D01*
X158759Y259755D01*
X158741Y259588D01*
X158741Y256068D01*
X157252Y254579D01*
X142148Y254579D01*
X140642Y256084D01*
X140551Y256150D01*
X140515Y256181D01*
X140502Y256186D01*
X140450Y256224D01*
X140446Y256226D01*
X140443Y256228D01*
X140330Y256263D01*
X140216Y256299D01*
X140212Y256299D01*
X140208Y256300D01*
X140089Y256297D01*
X139970Y256295D01*
X139966Y256294D01*
X139962Y256294D01*
X139850Y256253D01*
X139738Y256214D01*
X139735Y256211D01*
X139731Y256210D01*
X139648Y256143D01*
X139634Y256136D01*
X139621Y256122D01*
X139544Y256062D01*
X139541Y256058D01*
X139539Y256056D01*
X139531Y256044D01*
X139476Y255970D01*
X139465Y255958D01*
X139461Y255948D01*
X139445Y255927D01*
X139233Y255560D01*
X138760Y255087D01*
X138181Y254752D01*
X137534Y254579D01*
X132223Y254579D01*
G37*
%LPD*%
%LPC*%
G36*
X335439Y272455D02*
X335439Y272455D01*
X335439Y281734D01*
X335436Y281754D01*
X335438Y281773D01*
X335416Y281875D01*
X335399Y281977D01*
X335390Y281994D01*
X335386Y282014D01*
X335333Y282103D01*
X335284Y282194D01*
X335270Y282208D01*
X335260Y282225D01*
X335181Y282292D01*
X335106Y282363D01*
X335088Y282372D01*
X335073Y282385D01*
X334977Y282424D01*
X334883Y282467D01*
X334863Y282469D01*
X334845Y282477D01*
X334678Y282495D01*
X333915Y282495D01*
X333915Y282497D01*
X334678Y282497D01*
X334698Y282500D01*
X334717Y282498D01*
X334819Y282520D01*
X334921Y282537D01*
X334938Y282546D01*
X334958Y282550D01*
X335047Y282603D01*
X335138Y282652D01*
X335152Y282666D01*
X335169Y282676D01*
X335236Y282755D01*
X335307Y282830D01*
X335316Y282848D01*
X335329Y282863D01*
X335368Y282959D01*
X335411Y283053D01*
X335413Y283073D01*
X335421Y283091D01*
X335439Y283258D01*
X335439Y292537D01*
X340750Y292537D01*
X341397Y292364D01*
X341976Y292029D01*
X342449Y291556D01*
X342661Y291189D01*
X342737Y291096D01*
X342810Y291004D01*
X342814Y291002D01*
X342817Y290999D01*
X342918Y290935D01*
X343017Y290871D01*
X343021Y290870D01*
X343025Y290868D01*
X343141Y290840D01*
X343256Y290811D01*
X343260Y290812D01*
X343264Y290811D01*
X343383Y290821D01*
X343501Y290830D01*
X343505Y290832D01*
X343509Y290832D01*
X343619Y290880D01*
X343727Y290927D01*
X343731Y290930D01*
X343734Y290931D01*
X343745Y290941D01*
X343858Y291032D01*
X345364Y292537D01*
X360468Y292537D01*
X361957Y291048D01*
X361957Y287138D01*
X361968Y287068D01*
X361970Y286996D01*
X361988Y286947D01*
X361996Y286895D01*
X362030Y286832D01*
X362055Y286765D01*
X362087Y286724D01*
X362112Y286678D01*
X362164Y286629D01*
X362208Y286573D01*
X362252Y286545D01*
X362290Y286509D01*
X362355Y286479D01*
X362415Y286440D01*
X362466Y286427D01*
X362513Y286405D01*
X362584Y286397D01*
X362654Y286380D01*
X362706Y286384D01*
X362757Y286378D01*
X362828Y286393D01*
X362899Y286399D01*
X362947Y286419D01*
X362998Y286430D01*
X363059Y286467D01*
X363125Y286495D01*
X363181Y286540D01*
X363209Y286556D01*
X363224Y286574D01*
X363256Y286600D01*
X364464Y287808D01*
X366788Y288771D01*
X369304Y288771D01*
X371628Y287808D01*
X373406Y286030D01*
X374369Y283706D01*
X374369Y281190D01*
X373406Y278866D01*
X371628Y277088D01*
X369304Y276125D01*
X366788Y276125D01*
X364464Y277088D01*
X363256Y278296D01*
X363198Y278338D01*
X363146Y278387D01*
X363099Y278409D01*
X363057Y278440D01*
X362988Y278461D01*
X362923Y278491D01*
X362871Y278497D01*
X362821Y278512D01*
X362750Y278510D01*
X362679Y278518D01*
X362628Y278507D01*
X362576Y278506D01*
X362508Y278481D01*
X362438Y278466D01*
X362393Y278439D01*
X362345Y278421D01*
X362289Y278376D01*
X362227Y278340D01*
X362193Y278300D01*
X362153Y278267D01*
X362114Y278207D01*
X362067Y278153D01*
X362048Y278104D01*
X362020Y278061D01*
X362002Y277991D01*
X361975Y277924D01*
X361967Y277853D01*
X361959Y277822D01*
X361961Y277799D01*
X361957Y277758D01*
X361957Y273944D01*
X360468Y272455D01*
X345364Y272455D01*
X343858Y273960D01*
X343763Y274029D01*
X343666Y274100D01*
X343662Y274102D01*
X343659Y274104D01*
X343546Y274139D01*
X343432Y274175D01*
X343428Y274175D01*
X343424Y274176D01*
X343305Y274173D01*
X343186Y274171D01*
X343182Y274170D01*
X343178Y274170D01*
X343066Y274129D01*
X342954Y274090D01*
X342951Y274087D01*
X342947Y274086D01*
X342853Y274011D01*
X342760Y273938D01*
X342757Y273934D01*
X342755Y273932D01*
X342747Y273920D01*
X342661Y273803D01*
X342449Y273436D01*
X341976Y272963D01*
X341397Y272628D01*
X340750Y272455D01*
X335439Y272455D01*
G37*
%LPD*%
%LPC*%
G36*
X296268Y234647D02*
X296268Y234647D01*
X292720Y236117D01*
X290005Y238832D01*
X288535Y242380D01*
X288535Y246220D01*
X290005Y249768D01*
X292720Y252483D01*
X296268Y253953D01*
X314332Y253953D01*
X317880Y252483D01*
X320595Y249768D01*
X322065Y246220D01*
X322065Y242380D01*
X320595Y238832D01*
X317880Y236117D01*
X314332Y234647D01*
X296268Y234647D01*
G37*
%LPD*%
%LPC*%
G36*
X166603Y367743D02*
X166603Y367743D01*
X166603Y382096D01*
X178749Y382096D01*
X179396Y381923D01*
X179975Y381588D01*
X180448Y381115D01*
X180783Y380536D01*
X180956Y379889D01*
X180956Y367743D01*
X166603Y367743D01*
G37*
%LPD*%
%LPC*%
G36*
X456163Y367743D02*
X456163Y367743D01*
X456163Y382096D01*
X468309Y382096D01*
X468956Y381923D01*
X469535Y381588D01*
X470008Y381115D01*
X470343Y380536D01*
X470516Y379889D01*
X470516Y367743D01*
X456163Y367743D01*
G37*
%LPD*%
%LPC*%
G36*
X344403Y367743D02*
X344403Y367743D01*
X344403Y382096D01*
X356549Y382096D01*
X357196Y381923D01*
X357775Y381588D01*
X358248Y381115D01*
X358583Y380536D01*
X358756Y379889D01*
X358756Y367743D01*
X344403Y367743D01*
G37*
%LPD*%
%LPC*%
G36*
X166603Y350344D02*
X166603Y350344D01*
X166603Y364697D01*
X180956Y364697D01*
X180956Y352551D01*
X180783Y351904D01*
X180448Y351325D01*
X179975Y350852D01*
X179396Y350517D01*
X178749Y350344D01*
X166603Y350344D01*
G37*
%LPD*%
%LPC*%
G36*
X344403Y350344D02*
X344403Y350344D01*
X344403Y364697D01*
X358756Y364697D01*
X358756Y352551D01*
X358583Y351904D01*
X358248Y351325D01*
X357775Y350852D01*
X357196Y350517D01*
X356549Y350344D01*
X344403Y350344D01*
G37*
%LPD*%
%LPC*%
G36*
X149204Y367743D02*
X149204Y367743D01*
X149204Y379889D01*
X149377Y380536D01*
X149712Y381115D01*
X150185Y381588D01*
X150764Y381923D01*
X151411Y382096D01*
X163557Y382096D01*
X163557Y367743D01*
X149204Y367743D01*
G37*
%LPD*%
%LPC*%
G36*
X456163Y350344D02*
X456163Y350344D01*
X456163Y364697D01*
X470516Y364697D01*
X470516Y352551D01*
X470343Y351904D01*
X470008Y351325D01*
X469535Y350852D01*
X468956Y350517D01*
X468309Y350344D01*
X456163Y350344D01*
G37*
%LPD*%
%LPC*%
G36*
X327004Y367743D02*
X327004Y367743D01*
X327004Y379889D01*
X327177Y380536D01*
X327512Y381115D01*
X327985Y381588D01*
X328564Y381923D01*
X329211Y382096D01*
X341357Y382096D01*
X341357Y367743D01*
X327004Y367743D01*
G37*
%LPD*%
%LPC*%
G36*
X438764Y367743D02*
X438764Y367743D01*
X438764Y379889D01*
X438937Y380536D01*
X439272Y381115D01*
X439745Y381588D01*
X440324Y381923D01*
X440971Y382096D01*
X453117Y382096D01*
X453117Y367743D01*
X438764Y367743D01*
G37*
%LPD*%
%LPC*%
G36*
X329211Y350344D02*
X329211Y350344D01*
X328564Y350517D01*
X327985Y350852D01*
X327512Y351325D01*
X327177Y351904D01*
X327004Y352551D01*
X327004Y364697D01*
X341357Y364697D01*
X341357Y350344D01*
X329211Y350344D01*
G37*
%LPD*%
%LPC*%
G36*
X440971Y350344D02*
X440971Y350344D01*
X440324Y350517D01*
X439745Y350852D01*
X439272Y351325D01*
X438937Y351904D01*
X438764Y352551D01*
X438764Y364697D01*
X453117Y364697D01*
X453117Y350344D01*
X440971Y350344D01*
G37*
%LPD*%
%LPC*%
G36*
X151411Y350344D02*
X151411Y350344D01*
X150764Y350517D01*
X150185Y350852D01*
X149712Y351325D01*
X149377Y351904D01*
X149204Y352551D01*
X149204Y364697D01*
X163557Y364697D01*
X163557Y350344D01*
X151411Y350344D01*
G37*
%LPD*%
%LPC*%
G36*
X383023Y245823D02*
X383023Y245823D01*
X383023Y253953D01*
X389372Y253953D01*
X390872Y253715D01*
X392317Y253246D01*
X393671Y252556D01*
X394900Y251663D01*
X395975Y250588D01*
X396868Y249359D01*
X397558Y248005D01*
X398027Y246560D01*
X398144Y245823D01*
X383023Y245823D01*
G37*
%LPD*%
%LPC*%
G36*
X364856Y245823D02*
X364856Y245823D01*
X364973Y246560D01*
X365442Y248005D01*
X366132Y249359D01*
X367025Y250588D01*
X368100Y251663D01*
X369329Y252556D01*
X370683Y253246D01*
X372128Y253715D01*
X373628Y253953D01*
X379977Y253953D01*
X379977Y245823D01*
X364856Y245823D01*
G37*
%LPD*%
%LPC*%
G36*
X383023Y234647D02*
X383023Y234647D01*
X383023Y242777D01*
X398144Y242777D01*
X398027Y242040D01*
X397558Y240595D01*
X396868Y239241D01*
X395975Y238012D01*
X394900Y236937D01*
X393671Y236044D01*
X392317Y235354D01*
X390872Y234885D01*
X389372Y234647D01*
X383023Y234647D01*
G37*
%LPD*%
%LPC*%
G36*
X373628Y234647D02*
X373628Y234647D01*
X372128Y234885D01*
X370683Y235354D01*
X369329Y236044D01*
X368100Y236937D01*
X367025Y238012D01*
X366132Y239241D01*
X365442Y240595D01*
X364973Y242040D01*
X364856Y242777D01*
X379977Y242777D01*
X379977Y234647D01*
X373628Y234647D01*
G37*
%LPD*%
%LPC*%
G36*
X121659Y266143D02*
X121659Y266143D01*
X121659Y272454D01*
X121832Y273101D01*
X122167Y273680D01*
X122640Y274153D01*
X123219Y274488D01*
X123866Y274661D01*
X129177Y274661D01*
X129177Y266143D01*
X121659Y266143D01*
G37*
%LPD*%
%LPC*%
G36*
X324875Y284019D02*
X324875Y284019D01*
X324875Y290330D01*
X325048Y290977D01*
X325383Y291556D01*
X325856Y292029D01*
X326435Y292364D01*
X327082Y292537D01*
X332393Y292537D01*
X332393Y284019D01*
X324875Y284019D01*
G37*
%LPD*%
%LPC*%
G36*
X123866Y254579D02*
X123866Y254579D01*
X123219Y254752D01*
X122640Y255087D01*
X122167Y255560D01*
X121832Y256139D01*
X121659Y256786D01*
X121659Y263097D01*
X129177Y263097D01*
X129177Y254579D01*
X123866Y254579D01*
G37*
%LPD*%
%LPC*%
G36*
X327082Y272455D02*
X327082Y272455D01*
X326435Y272628D01*
X325856Y272963D01*
X325383Y273436D01*
X325048Y274015D01*
X324875Y274662D01*
X324875Y280973D01*
X332393Y280973D01*
X332393Y272455D01*
X327082Y272455D01*
G37*
%LPD*%
%LPC*%
G36*
X453663Y46433D02*
X453663Y46433D01*
X453663Y54563D01*
X456138Y54563D01*
X461793Y48908D01*
X461793Y46433D01*
X453663Y46433D01*
G37*
%LPD*%
%LPC*%
G36*
X453663Y35257D02*
X453663Y35257D01*
X453663Y43387D01*
X461793Y43387D01*
X461793Y40912D01*
X456138Y35257D01*
X453663Y35257D01*
G37*
%LPD*%
%LPC*%
G36*
X106449Y182159D02*
X106449Y182159D01*
X106449Y185701D01*
X113491Y185701D01*
X113491Y184366D01*
X113318Y183719D01*
X112983Y183140D01*
X112510Y182667D01*
X111931Y182332D01*
X111284Y182159D01*
X106449Y182159D01*
G37*
%LPD*%
%LPC*%
G36*
X99616Y182159D02*
X99616Y182159D01*
X98969Y182332D01*
X98390Y182667D01*
X97917Y183140D01*
X97582Y183719D01*
X97409Y184366D01*
X97409Y185701D01*
X104451Y185701D01*
X104451Y182159D01*
X99616Y182159D01*
G37*
%LPD*%
%LPC*%
G36*
X381499Y244299D02*
X381499Y244299D01*
X381499Y244301D01*
X381501Y244301D01*
X381501Y244299D01*
X381499Y244299D01*
G37*
%LPD*%
%LPC*%
G36*
X454639Y366219D02*
X454639Y366219D01*
X454639Y366221D01*
X454641Y366221D01*
X454641Y366219D01*
X454639Y366219D01*
G37*
%LPD*%
%LPC*%
G36*
X165079Y366219D02*
X165079Y366219D01*
X165079Y366221D01*
X165081Y366221D01*
X165081Y366219D01*
X165079Y366219D01*
G37*
%LPD*%
%LPC*%
G36*
X342879Y366219D02*
X342879Y366219D01*
X342879Y366221D01*
X342881Y366221D01*
X342881Y366219D01*
X342879Y366219D01*
G37*
%LPD*%
D10*
X298188Y244300D02*
X312412Y244300D01*
X312412Y218900D02*
X298188Y218900D01*
X298188Y193500D02*
X312412Y193500D01*
X312412Y168100D02*
X298188Y168100D01*
X374388Y168100D02*
X388612Y168100D01*
X388612Y193500D02*
X374388Y193500D01*
X374388Y218900D02*
X388612Y218900D01*
X388612Y244300D02*
X374388Y244300D01*
D11*
X174950Y186700D03*
X174950Y193200D03*
X174950Y199700D03*
X174950Y206200D03*
X174950Y212700D03*
X174950Y219200D03*
X174950Y225700D03*
X105450Y225700D03*
X105450Y219200D03*
X105450Y212700D03*
X105450Y206200D03*
X105450Y199700D03*
X105450Y193200D03*
X105450Y186700D03*
D12*
X165080Y366220D03*
D13*
X125480Y366220D03*
D12*
X342880Y366220D03*
D13*
X303280Y366220D03*
D14*
X392140Y44910D03*
D15*
X412140Y44910D03*
X432140Y44910D03*
X452140Y44910D03*
D14*
X302920Y44910D03*
D15*
X322920Y44910D03*
D14*
X214020Y44910D03*
D15*
X234020Y44910D03*
D14*
X125120Y44910D03*
D15*
X145120Y44910D03*
D12*
X454640Y366220D03*
D13*
X415040Y366220D03*
D16*
X520692Y244300D02*
X536948Y244300D01*
X536948Y218900D02*
X520692Y218900D01*
X520692Y193500D02*
X536948Y193500D01*
D17*
X245000Y168100D03*
X264000Y168100D03*
X245000Y130000D03*
X264000Y130000D03*
X130700Y264620D03*
X149700Y264620D03*
X322420Y130000D03*
X303420Y130000D03*
X441800Y130000D03*
X422800Y130000D03*
X441800Y168100D03*
X422800Y168100D03*
X422800Y206200D03*
X441800Y206200D03*
X333916Y282496D03*
X352916Y282496D03*
D18*
X40000Y396000D03*
D19*
X31872Y417844D03*
X47112Y418098D03*
X59304Y408954D03*
X63114Y393714D03*
X56002Y379236D03*
X41524Y372886D03*
X25522Y377966D03*
X17140Y391682D03*
X19680Y407430D03*
D18*
X671000Y396000D03*
D19*
X662872Y417844D03*
X678112Y418098D03*
X690304Y408954D03*
X694114Y393714D03*
X687002Y379236D03*
X672524Y372886D03*
X656522Y377966D03*
X648140Y391682D03*
X650680Y407430D03*
D18*
X40000Y40000D03*
D19*
X31872Y61844D03*
X47112Y62098D03*
X59304Y52954D03*
X63114Y37714D03*
X56002Y23236D03*
X41524Y16886D03*
X25522Y21966D03*
X17140Y35682D03*
X19680Y51430D03*
D18*
X671000Y40000D03*
D19*
X662872Y61844D03*
X678112Y62098D03*
X690304Y52954D03*
X694114Y37714D03*
X687002Y23236D03*
X672524Y16886D03*
X656522Y21966D03*
X648140Y35682D03*
X650680Y51430D03*
D20*
X561840Y91900D03*
X561840Y345900D03*
D21*
X422800Y206200D02*
X406900Y206200D01*
D22*
X406900Y206200D03*
D21*
X174950Y225700D02*
X174950Y235616D01*
X174998Y235664D01*
D22*
X174998Y235664D03*
D21*
X441800Y130000D02*
X441800Y114460D01*
X441960Y114300D01*
D22*
X441960Y114300D03*
D21*
X280876Y130000D02*
X264000Y130000D01*
X280876Y130000D02*
X280924Y130048D01*
D22*
X280924Y130048D03*
D21*
X150160Y264160D02*
X149700Y264620D01*
X150160Y264160D02*
X165100Y264160D01*
D22*
X165100Y264160D03*
D21*
X352916Y282496D02*
X367998Y282496D01*
X368046Y282448D01*
D22*
X368046Y282448D03*
D21*
X174950Y186700D02*
X174950Y175570D01*
X175260Y175260D01*
D22*
X175260Y175260D03*
D21*
X174950Y206200D02*
X186464Y206200D01*
X187960Y207696D01*
D22*
X187960Y207696D03*
D21*
X302920Y56180D02*
X302920Y44910D01*
X279900Y79200D02*
X254500Y79200D01*
X245000Y88700D01*
X245000Y130000D01*
X279900Y79200D02*
X302920Y56180D01*
X245000Y130000D02*
X245000Y168100D01*
X322420Y130000D02*
X322420Y45410D01*
X322920Y44910D01*
X214020Y44910D02*
X214020Y191054D01*
X204970Y200104D01*
X175354Y200104D01*
X174950Y199700D01*
X234020Y188580D02*
X234020Y44910D01*
X203400Y219200D02*
X174950Y219200D01*
X203400Y219200D02*
X234020Y188580D01*
X432140Y81900D02*
X432140Y44910D01*
X379722Y157178D02*
X369864Y157178D01*
X363466Y163576D01*
X363466Y175466D01*
X381500Y193500D01*
X422800Y91240D02*
X432140Y81900D01*
X422800Y91240D02*
X422800Y130000D01*
X406900Y130000D01*
X379722Y157178D01*
X441800Y168100D02*
X441800Y206200D01*
X441800Y215700D01*
X470400Y244300D01*
X528820Y244300D01*
X267200Y168100D02*
X264000Y168100D01*
X292600Y193500D02*
X305300Y193500D01*
X292600Y193500D02*
X267200Y168100D01*
X305300Y218900D02*
X323334Y200866D01*
X323334Y163314D01*
X303420Y143400D02*
X303420Y130000D01*
X303420Y143400D02*
X323334Y163314D01*
X412140Y117300D02*
X412140Y44910D01*
X412140Y117300D02*
X381500Y147940D01*
X381500Y148216D01*
X377618Y152098D02*
X367760Y152098D01*
X358386Y161472D01*
X358386Y195786D01*
X377618Y152098D02*
X381500Y148216D01*
X358386Y195786D02*
X381500Y218900D01*
X381500Y168100D02*
X422800Y168100D01*
X174950Y212700D02*
X168562Y212700D01*
X165640Y209778D01*
X140040Y59830D02*
X125120Y44910D01*
X140040Y172624D02*
X165640Y198224D01*
X140040Y172624D02*
X140040Y59830D01*
X165640Y198224D02*
X165640Y209778D01*
X167800Y193200D02*
X174950Y193200D01*
X145120Y170520D02*
X145120Y44910D01*
X145120Y170520D02*
X167800Y193200D01*
M02*
