G04 EAGLE Gerber RS-274X export*
G75*
%MOMM*%
%FSLAX34Y34*%
%LPD*%
%INSilkscreen Top*%
%IPPOS*%
%AMOC8*
5,1,8,0,0,1.08239X$1,22.5*%
G01*
%ADD10C,0.177800*%
%ADD11C,0.228600*%
%ADD12C,0.152400*%
%ADD13C,0.203200*%
%ADD14C,0.919200*%
%ADD15C,0.254000*%
%ADD16R,8.300000X0.900000*%
%ADD17R,0.762000X10.668000*%
%ADD18R,0.508000X1.905000*%
%ADD19R,0.508000X0.762000*%


D10*
X132326Y168021D02*
X132326Y161967D01*
X132328Y161872D01*
X132334Y161777D01*
X132343Y161683D01*
X132357Y161589D01*
X132374Y161495D01*
X132395Y161403D01*
X132420Y161311D01*
X132449Y161221D01*
X132481Y161131D01*
X132517Y161043D01*
X132557Y160957D01*
X132599Y160872D01*
X132646Y160789D01*
X132696Y160708D01*
X132749Y160630D01*
X132805Y160553D01*
X132864Y160479D01*
X132926Y160407D01*
X132991Y160338D01*
X133059Y160271D01*
X133129Y160208D01*
X133203Y160147D01*
X133278Y160089D01*
X133356Y160035D01*
X133436Y159983D01*
X133518Y159935D01*
X133601Y159891D01*
X133687Y159849D01*
X133774Y159812D01*
X133863Y159778D01*
X133953Y159747D01*
X134044Y159720D01*
X134136Y159697D01*
X134229Y159678D01*
X134323Y159663D01*
X134417Y159651D01*
X134512Y159643D01*
X134607Y159639D01*
X134701Y159639D01*
X134796Y159643D01*
X134891Y159651D01*
X134985Y159663D01*
X135079Y159678D01*
X135172Y159697D01*
X135264Y159720D01*
X135355Y159747D01*
X135445Y159778D01*
X135534Y159812D01*
X135621Y159849D01*
X135707Y159891D01*
X135790Y159935D01*
X135872Y159983D01*
X135952Y160035D01*
X136030Y160089D01*
X136105Y160147D01*
X136179Y160208D01*
X136249Y160271D01*
X136317Y160338D01*
X136382Y160407D01*
X136444Y160479D01*
X136503Y160553D01*
X136559Y160630D01*
X136612Y160708D01*
X136662Y160789D01*
X136709Y160872D01*
X136751Y160957D01*
X136791Y161043D01*
X136827Y161131D01*
X136859Y161221D01*
X136888Y161311D01*
X136913Y161403D01*
X136934Y161495D01*
X136951Y161589D01*
X136965Y161683D01*
X136974Y161777D01*
X136980Y161872D01*
X136982Y161967D01*
X136982Y168021D01*
X141774Y166158D02*
X144103Y168021D01*
X144103Y159639D01*
X146431Y159639D02*
X141774Y159639D01*
X337558Y148971D02*
X337558Y142917D01*
X337560Y142822D01*
X337566Y142727D01*
X337575Y142633D01*
X337589Y142539D01*
X337606Y142445D01*
X337627Y142353D01*
X337652Y142261D01*
X337681Y142171D01*
X337713Y142081D01*
X337749Y141993D01*
X337789Y141907D01*
X337831Y141822D01*
X337878Y141739D01*
X337928Y141658D01*
X337981Y141580D01*
X338037Y141503D01*
X338096Y141429D01*
X338158Y141357D01*
X338223Y141288D01*
X338291Y141221D01*
X338361Y141158D01*
X338435Y141097D01*
X338510Y141039D01*
X338588Y140985D01*
X338668Y140933D01*
X338750Y140885D01*
X338833Y140841D01*
X338919Y140799D01*
X339006Y140762D01*
X339095Y140728D01*
X339185Y140697D01*
X339276Y140670D01*
X339368Y140647D01*
X339461Y140628D01*
X339555Y140613D01*
X339649Y140601D01*
X339744Y140593D01*
X339839Y140589D01*
X339933Y140589D01*
X340028Y140593D01*
X340123Y140601D01*
X340217Y140613D01*
X340311Y140628D01*
X340404Y140647D01*
X340496Y140670D01*
X340587Y140697D01*
X340677Y140728D01*
X340766Y140762D01*
X340853Y140799D01*
X340939Y140841D01*
X341022Y140885D01*
X341104Y140933D01*
X341184Y140985D01*
X341262Y141039D01*
X341337Y141097D01*
X341411Y141158D01*
X341481Y141221D01*
X341549Y141288D01*
X341614Y141357D01*
X341676Y141429D01*
X341735Y141503D01*
X341791Y141580D01*
X341844Y141658D01*
X341894Y141739D01*
X341941Y141822D01*
X341983Y141907D01*
X342023Y141993D01*
X342059Y142081D01*
X342091Y142171D01*
X342120Y142261D01*
X342145Y142353D01*
X342166Y142445D01*
X342183Y142539D01*
X342197Y142633D01*
X342206Y142727D01*
X342212Y142822D01*
X342214Y142917D01*
X342214Y148971D01*
X349568Y148972D02*
X349657Y148970D01*
X349746Y148964D01*
X349834Y148955D01*
X349922Y148942D01*
X350010Y148925D01*
X350096Y148904D01*
X350182Y148880D01*
X350266Y148852D01*
X350350Y148821D01*
X350431Y148786D01*
X350512Y148748D01*
X350590Y148706D01*
X350667Y148661D01*
X350742Y148613D01*
X350814Y148561D01*
X350885Y148507D01*
X350953Y148449D01*
X351018Y148389D01*
X351081Y148326D01*
X351141Y148261D01*
X351199Y148193D01*
X351253Y148122D01*
X351305Y148050D01*
X351353Y147975D01*
X351398Y147898D01*
X351440Y147820D01*
X351478Y147739D01*
X351513Y147658D01*
X351544Y147574D01*
X351572Y147490D01*
X351596Y147404D01*
X351617Y147318D01*
X351634Y147230D01*
X351647Y147142D01*
X351656Y147054D01*
X351662Y146965D01*
X351664Y146876D01*
X349568Y148971D02*
X349465Y148969D01*
X349363Y148963D01*
X349261Y148953D01*
X349159Y148940D01*
X349058Y148922D01*
X348958Y148901D01*
X348858Y148876D01*
X348760Y148847D01*
X348663Y148814D01*
X348567Y148778D01*
X348472Y148738D01*
X348379Y148694D01*
X348288Y148647D01*
X348199Y148597D01*
X348112Y148543D01*
X348026Y148486D01*
X347943Y148426D01*
X347863Y148362D01*
X347785Y148296D01*
X347709Y148226D01*
X347636Y148154D01*
X347566Y148079D01*
X347499Y148001D01*
X347435Y147921D01*
X347374Y147839D01*
X347316Y147754D01*
X347262Y147667D01*
X347210Y147578D01*
X347163Y147488D01*
X347118Y147395D01*
X347078Y147301D01*
X347040Y147205D01*
X347007Y147108D01*
X350964Y145246D02*
X351029Y145310D01*
X351091Y145377D01*
X351151Y145446D01*
X351207Y145518D01*
X351260Y145591D01*
X351311Y145667D01*
X351358Y145745D01*
X351402Y145825D01*
X351443Y145906D01*
X351481Y145989D01*
X351515Y146074D01*
X351546Y146160D01*
X351573Y146247D01*
X351597Y146335D01*
X351617Y146423D01*
X351634Y146513D01*
X351646Y146603D01*
X351656Y146694D01*
X351661Y146785D01*
X351663Y146876D01*
X350965Y145246D02*
X347006Y140589D01*
X351663Y140589D01*
X105579Y260223D02*
X103717Y260223D01*
X103633Y260225D01*
X103550Y260230D01*
X103467Y260240D01*
X103384Y260253D01*
X103302Y260270D01*
X103221Y260290D01*
X103141Y260314D01*
X103062Y260342D01*
X102985Y260373D01*
X102909Y260407D01*
X102834Y260445D01*
X102761Y260487D01*
X102691Y260531D01*
X102622Y260579D01*
X102555Y260629D01*
X102491Y260683D01*
X102430Y260739D01*
X102370Y260799D01*
X102314Y260860D01*
X102260Y260924D01*
X102210Y260991D01*
X102162Y261060D01*
X102118Y261130D01*
X102076Y261203D01*
X102038Y261278D01*
X102004Y261354D01*
X101973Y261431D01*
X101945Y261510D01*
X101921Y261590D01*
X101901Y261671D01*
X101884Y261753D01*
X101871Y261836D01*
X101861Y261919D01*
X101856Y262002D01*
X101854Y262086D01*
X101854Y266742D01*
X101856Y266828D01*
X101862Y266914D01*
X101872Y266999D01*
X101886Y267084D01*
X101903Y267169D01*
X101925Y267252D01*
X101951Y267334D01*
X101980Y267415D01*
X102013Y267494D01*
X102049Y267572D01*
X102089Y267649D01*
X102133Y267723D01*
X102180Y267795D01*
X102230Y267865D01*
X102284Y267932D01*
X102340Y267997D01*
X102400Y268059D01*
X102462Y268119D01*
X102527Y268175D01*
X102594Y268229D01*
X102664Y268279D01*
X102736Y268326D01*
X102810Y268370D01*
X102887Y268410D01*
X102964Y268446D01*
X103044Y268479D01*
X103125Y268508D01*
X103207Y268534D01*
X103290Y268556D01*
X103375Y268573D01*
X103460Y268587D01*
X103545Y268597D01*
X103631Y268603D01*
X103717Y268605D01*
X105579Y268605D01*
X109516Y266742D02*
X111845Y268605D01*
X111845Y260223D01*
X114173Y260223D02*
X109516Y260223D01*
X214766Y172085D02*
X214766Y163703D01*
X214766Y172085D02*
X217095Y172085D01*
X217190Y172083D01*
X217285Y172077D01*
X217379Y172068D01*
X217473Y172054D01*
X217567Y172037D01*
X217659Y172016D01*
X217751Y171991D01*
X217841Y171962D01*
X217931Y171930D01*
X218019Y171894D01*
X218105Y171854D01*
X218190Y171812D01*
X218273Y171765D01*
X218354Y171715D01*
X218432Y171662D01*
X218509Y171606D01*
X218583Y171547D01*
X218655Y171485D01*
X218724Y171420D01*
X218791Y171352D01*
X218854Y171282D01*
X218915Y171208D01*
X218973Y171133D01*
X219027Y171055D01*
X219079Y170975D01*
X219127Y170893D01*
X219171Y170810D01*
X219213Y170724D01*
X219250Y170637D01*
X219284Y170548D01*
X219315Y170458D01*
X219342Y170367D01*
X219365Y170275D01*
X219384Y170182D01*
X219399Y170088D01*
X219411Y169994D01*
X219419Y169899D01*
X219423Y169804D01*
X219423Y169710D01*
X219419Y169615D01*
X219411Y169520D01*
X219399Y169426D01*
X219384Y169332D01*
X219365Y169239D01*
X219342Y169147D01*
X219315Y169056D01*
X219284Y168966D01*
X219250Y168877D01*
X219213Y168790D01*
X219171Y168704D01*
X219127Y168621D01*
X219079Y168539D01*
X219027Y168459D01*
X218973Y168381D01*
X218915Y168306D01*
X218854Y168232D01*
X218791Y168162D01*
X218724Y168094D01*
X218655Y168029D01*
X218583Y167967D01*
X218509Y167908D01*
X218432Y167852D01*
X218354Y167799D01*
X218273Y167749D01*
X218190Y167702D01*
X218105Y167660D01*
X218019Y167620D01*
X217931Y167584D01*
X217841Y167552D01*
X217751Y167523D01*
X217659Y167498D01*
X217567Y167477D01*
X217473Y167460D01*
X217379Y167446D01*
X217285Y167437D01*
X217190Y167431D01*
X217095Y167429D01*
X217095Y167428D02*
X214766Y167428D01*
X217560Y167428D02*
X219423Y163703D01*
X223816Y170222D02*
X226145Y172085D01*
X226145Y163703D01*
X228473Y163703D02*
X223816Y163703D01*
X214766Y133985D02*
X214766Y125603D01*
X214766Y133985D02*
X217095Y133985D01*
X217190Y133983D01*
X217285Y133977D01*
X217379Y133968D01*
X217473Y133954D01*
X217567Y133937D01*
X217659Y133916D01*
X217751Y133891D01*
X217841Y133862D01*
X217931Y133830D01*
X218019Y133794D01*
X218105Y133754D01*
X218190Y133712D01*
X218273Y133665D01*
X218354Y133615D01*
X218432Y133562D01*
X218509Y133506D01*
X218583Y133447D01*
X218655Y133385D01*
X218724Y133320D01*
X218791Y133252D01*
X218854Y133182D01*
X218915Y133108D01*
X218973Y133033D01*
X219027Y132955D01*
X219079Y132875D01*
X219127Y132793D01*
X219171Y132710D01*
X219213Y132624D01*
X219250Y132537D01*
X219284Y132448D01*
X219315Y132358D01*
X219342Y132267D01*
X219365Y132175D01*
X219384Y132082D01*
X219399Y131988D01*
X219411Y131894D01*
X219419Y131799D01*
X219423Y131704D01*
X219423Y131610D01*
X219419Y131515D01*
X219411Y131420D01*
X219399Y131326D01*
X219384Y131232D01*
X219365Y131139D01*
X219342Y131047D01*
X219315Y130956D01*
X219284Y130866D01*
X219250Y130777D01*
X219213Y130690D01*
X219171Y130604D01*
X219127Y130521D01*
X219079Y130439D01*
X219027Y130359D01*
X218973Y130281D01*
X218915Y130206D01*
X218854Y130132D01*
X218791Y130062D01*
X218724Y129994D01*
X218655Y129929D01*
X218583Y129867D01*
X218509Y129808D01*
X218432Y129752D01*
X218354Y129699D01*
X218273Y129649D01*
X218190Y129602D01*
X218105Y129560D01*
X218019Y129520D01*
X217931Y129484D01*
X217841Y129452D01*
X217751Y129423D01*
X217659Y129398D01*
X217567Y129377D01*
X217473Y129360D01*
X217379Y129346D01*
X217285Y129337D01*
X217190Y129331D01*
X217095Y129329D01*
X217095Y129328D02*
X214766Y129328D01*
X217560Y129328D02*
X219423Y125603D01*
X226378Y133986D02*
X226467Y133984D01*
X226556Y133978D01*
X226644Y133969D01*
X226732Y133956D01*
X226820Y133939D01*
X226906Y133918D01*
X226992Y133894D01*
X227076Y133866D01*
X227160Y133835D01*
X227241Y133800D01*
X227322Y133762D01*
X227400Y133720D01*
X227477Y133675D01*
X227552Y133627D01*
X227624Y133575D01*
X227695Y133521D01*
X227763Y133463D01*
X227828Y133403D01*
X227891Y133340D01*
X227951Y133275D01*
X228009Y133207D01*
X228063Y133136D01*
X228115Y133064D01*
X228163Y132989D01*
X228208Y132912D01*
X228250Y132834D01*
X228288Y132753D01*
X228323Y132672D01*
X228354Y132588D01*
X228382Y132504D01*
X228406Y132418D01*
X228427Y132332D01*
X228444Y132244D01*
X228457Y132156D01*
X228466Y132068D01*
X228472Y131979D01*
X228474Y131890D01*
X226378Y133985D02*
X226275Y133983D01*
X226173Y133977D01*
X226071Y133967D01*
X225969Y133954D01*
X225868Y133936D01*
X225768Y133915D01*
X225668Y133890D01*
X225570Y133861D01*
X225473Y133828D01*
X225377Y133792D01*
X225282Y133752D01*
X225189Y133708D01*
X225098Y133661D01*
X225009Y133611D01*
X224922Y133557D01*
X224836Y133500D01*
X224753Y133440D01*
X224673Y133376D01*
X224595Y133310D01*
X224519Y133240D01*
X224446Y133168D01*
X224376Y133093D01*
X224309Y133015D01*
X224245Y132935D01*
X224184Y132853D01*
X224126Y132768D01*
X224072Y132681D01*
X224020Y132592D01*
X223973Y132502D01*
X223928Y132409D01*
X223888Y132315D01*
X223850Y132219D01*
X223817Y132122D01*
X227774Y130260D02*
X227839Y130324D01*
X227901Y130391D01*
X227961Y130460D01*
X228017Y130532D01*
X228070Y130605D01*
X228121Y130681D01*
X228168Y130759D01*
X228212Y130839D01*
X228253Y130920D01*
X228291Y131003D01*
X228325Y131088D01*
X228356Y131174D01*
X228383Y131261D01*
X228407Y131349D01*
X228427Y131437D01*
X228444Y131527D01*
X228456Y131617D01*
X228466Y131708D01*
X228471Y131799D01*
X228473Y131890D01*
X227775Y130260D02*
X223816Y125603D01*
X228473Y125603D01*
X338963Y125857D02*
X338963Y134239D01*
X341291Y134239D01*
X341386Y134237D01*
X341481Y134231D01*
X341575Y134222D01*
X341669Y134208D01*
X341763Y134191D01*
X341855Y134170D01*
X341947Y134145D01*
X342037Y134116D01*
X342127Y134084D01*
X342215Y134048D01*
X342301Y134008D01*
X342386Y133966D01*
X342469Y133919D01*
X342550Y133869D01*
X342628Y133816D01*
X342705Y133760D01*
X342779Y133701D01*
X342851Y133639D01*
X342920Y133574D01*
X342987Y133506D01*
X343050Y133436D01*
X343111Y133362D01*
X343169Y133287D01*
X343223Y133209D01*
X343275Y133129D01*
X343323Y133047D01*
X343367Y132964D01*
X343409Y132878D01*
X343446Y132791D01*
X343480Y132702D01*
X343511Y132612D01*
X343538Y132521D01*
X343561Y132429D01*
X343580Y132336D01*
X343595Y132242D01*
X343607Y132148D01*
X343615Y132053D01*
X343619Y131958D01*
X343619Y131864D01*
X343615Y131769D01*
X343607Y131674D01*
X343595Y131580D01*
X343580Y131486D01*
X343561Y131393D01*
X343538Y131301D01*
X343511Y131210D01*
X343480Y131120D01*
X343446Y131031D01*
X343409Y130944D01*
X343367Y130858D01*
X343323Y130775D01*
X343275Y130693D01*
X343223Y130613D01*
X343169Y130535D01*
X343111Y130460D01*
X343050Y130386D01*
X342987Y130316D01*
X342920Y130248D01*
X342851Y130183D01*
X342779Y130121D01*
X342705Y130062D01*
X342628Y130006D01*
X342550Y129953D01*
X342469Y129903D01*
X342386Y129856D01*
X342301Y129814D01*
X342215Y129774D01*
X342127Y129738D01*
X342037Y129706D01*
X341947Y129677D01*
X341855Y129652D01*
X341763Y129631D01*
X341669Y129614D01*
X341575Y129600D01*
X341481Y129591D01*
X341386Y129585D01*
X341291Y129583D01*
X341291Y129582D02*
X338963Y129582D01*
X341757Y129582D02*
X343620Y125857D01*
X348013Y125857D02*
X350341Y125857D01*
X350436Y125859D01*
X350531Y125865D01*
X350625Y125874D01*
X350719Y125888D01*
X350813Y125905D01*
X350905Y125926D01*
X350997Y125951D01*
X351087Y125980D01*
X351177Y126012D01*
X351265Y126048D01*
X351351Y126088D01*
X351436Y126130D01*
X351519Y126177D01*
X351600Y126227D01*
X351678Y126280D01*
X351755Y126336D01*
X351829Y126395D01*
X351901Y126457D01*
X351970Y126522D01*
X352037Y126590D01*
X352100Y126660D01*
X352161Y126734D01*
X352219Y126809D01*
X352273Y126887D01*
X352325Y126967D01*
X352373Y127049D01*
X352417Y127132D01*
X352459Y127218D01*
X352496Y127305D01*
X352530Y127394D01*
X352561Y127484D01*
X352588Y127575D01*
X352611Y127667D01*
X352630Y127760D01*
X352645Y127854D01*
X352657Y127948D01*
X352665Y128043D01*
X352669Y128138D01*
X352669Y128232D01*
X352665Y128327D01*
X352657Y128422D01*
X352645Y128516D01*
X352630Y128610D01*
X352611Y128703D01*
X352588Y128795D01*
X352561Y128886D01*
X352530Y128976D01*
X352496Y129065D01*
X352459Y129152D01*
X352417Y129238D01*
X352373Y129321D01*
X352325Y129403D01*
X352273Y129483D01*
X352219Y129561D01*
X352161Y129636D01*
X352100Y129710D01*
X352037Y129780D01*
X351970Y129848D01*
X351901Y129913D01*
X351829Y129975D01*
X351755Y130034D01*
X351678Y130090D01*
X351600Y130143D01*
X351519Y130193D01*
X351436Y130240D01*
X351351Y130282D01*
X351265Y130322D01*
X351177Y130358D01*
X351087Y130390D01*
X350997Y130419D01*
X350905Y130444D01*
X350813Y130465D01*
X350719Y130482D01*
X350625Y130496D01*
X350531Y130505D01*
X350436Y130511D01*
X350341Y130513D01*
X350807Y134239D02*
X348013Y134239D01*
X350807Y134239D02*
X350892Y134237D01*
X350976Y134231D01*
X351061Y134222D01*
X351144Y134208D01*
X351227Y134191D01*
X351310Y134170D01*
X351391Y134145D01*
X351471Y134117D01*
X351549Y134085D01*
X351626Y134049D01*
X351702Y134010D01*
X351775Y133968D01*
X351846Y133922D01*
X351916Y133873D01*
X351983Y133821D01*
X352047Y133766D01*
X352109Y133708D01*
X352169Y133648D01*
X352225Y133584D01*
X352279Y133519D01*
X352329Y133450D01*
X352376Y133380D01*
X352420Y133308D01*
X352461Y133233D01*
X352498Y133157D01*
X352532Y133079D01*
X352562Y133000D01*
X352589Y132919D01*
X352612Y132838D01*
X352631Y132755D01*
X352646Y132672D01*
X352658Y132588D01*
X352666Y132503D01*
X352670Y132418D01*
X352670Y132334D01*
X352666Y132249D01*
X352658Y132164D01*
X352646Y132080D01*
X352631Y131997D01*
X352612Y131914D01*
X352589Y131833D01*
X352562Y131752D01*
X352532Y131673D01*
X352498Y131595D01*
X352461Y131519D01*
X352420Y131445D01*
X352376Y131372D01*
X352329Y131302D01*
X352279Y131233D01*
X352225Y131168D01*
X352169Y131104D01*
X352109Y131044D01*
X352047Y130986D01*
X351983Y130931D01*
X351916Y130879D01*
X351846Y130830D01*
X351775Y130784D01*
X351702Y130742D01*
X351626Y130703D01*
X351549Y130667D01*
X351471Y130635D01*
X351391Y130607D01*
X351310Y130582D01*
X351227Y130561D01*
X351144Y130544D01*
X351061Y130530D01*
X350976Y130521D01*
X350892Y130515D01*
X350807Y130513D01*
X350807Y130514D02*
X348944Y130514D01*
X458343Y134239D02*
X458343Y125857D01*
X458343Y134239D02*
X460671Y134239D01*
X460766Y134237D01*
X460861Y134231D01*
X460955Y134222D01*
X461049Y134208D01*
X461143Y134191D01*
X461235Y134170D01*
X461327Y134145D01*
X461417Y134116D01*
X461507Y134084D01*
X461595Y134048D01*
X461681Y134008D01*
X461766Y133966D01*
X461849Y133919D01*
X461930Y133869D01*
X462008Y133816D01*
X462085Y133760D01*
X462159Y133701D01*
X462231Y133639D01*
X462300Y133574D01*
X462367Y133506D01*
X462430Y133436D01*
X462491Y133362D01*
X462549Y133287D01*
X462603Y133209D01*
X462655Y133129D01*
X462703Y133047D01*
X462747Y132964D01*
X462789Y132878D01*
X462826Y132791D01*
X462860Y132702D01*
X462891Y132612D01*
X462918Y132521D01*
X462941Y132429D01*
X462960Y132336D01*
X462975Y132242D01*
X462987Y132148D01*
X462995Y132053D01*
X462999Y131958D01*
X462999Y131864D01*
X462995Y131769D01*
X462987Y131674D01*
X462975Y131580D01*
X462960Y131486D01*
X462941Y131393D01*
X462918Y131301D01*
X462891Y131210D01*
X462860Y131120D01*
X462826Y131031D01*
X462789Y130944D01*
X462747Y130858D01*
X462703Y130775D01*
X462655Y130693D01*
X462603Y130613D01*
X462549Y130535D01*
X462491Y130460D01*
X462430Y130386D01*
X462367Y130316D01*
X462300Y130248D01*
X462231Y130183D01*
X462159Y130121D01*
X462085Y130062D01*
X462008Y130006D01*
X461930Y129953D01*
X461849Y129903D01*
X461766Y129856D01*
X461681Y129814D01*
X461595Y129774D01*
X461507Y129738D01*
X461417Y129706D01*
X461327Y129677D01*
X461235Y129652D01*
X461143Y129631D01*
X461049Y129614D01*
X460955Y129600D01*
X460861Y129591D01*
X460766Y129585D01*
X460671Y129583D01*
X460671Y129582D02*
X458343Y129582D01*
X461137Y129582D02*
X463000Y125857D01*
X467393Y127720D02*
X469256Y134239D01*
X467393Y127720D02*
X472050Y127720D01*
X470653Y129582D02*
X470653Y125857D01*
X458343Y163957D02*
X458343Y172339D01*
X460671Y172339D01*
X460766Y172337D01*
X460861Y172331D01*
X460955Y172322D01*
X461049Y172308D01*
X461143Y172291D01*
X461235Y172270D01*
X461327Y172245D01*
X461417Y172216D01*
X461507Y172184D01*
X461595Y172148D01*
X461681Y172108D01*
X461766Y172066D01*
X461849Y172019D01*
X461930Y171969D01*
X462008Y171916D01*
X462085Y171860D01*
X462159Y171801D01*
X462231Y171739D01*
X462300Y171674D01*
X462367Y171606D01*
X462430Y171536D01*
X462491Y171462D01*
X462549Y171387D01*
X462603Y171309D01*
X462655Y171229D01*
X462703Y171147D01*
X462747Y171064D01*
X462789Y170978D01*
X462826Y170891D01*
X462860Y170802D01*
X462891Y170712D01*
X462918Y170621D01*
X462941Y170529D01*
X462960Y170436D01*
X462975Y170342D01*
X462987Y170248D01*
X462995Y170153D01*
X462999Y170058D01*
X462999Y169964D01*
X462995Y169869D01*
X462987Y169774D01*
X462975Y169680D01*
X462960Y169586D01*
X462941Y169493D01*
X462918Y169401D01*
X462891Y169310D01*
X462860Y169220D01*
X462826Y169131D01*
X462789Y169044D01*
X462747Y168958D01*
X462703Y168875D01*
X462655Y168793D01*
X462603Y168713D01*
X462549Y168635D01*
X462491Y168560D01*
X462430Y168486D01*
X462367Y168416D01*
X462300Y168348D01*
X462231Y168283D01*
X462159Y168221D01*
X462085Y168162D01*
X462008Y168106D01*
X461930Y168053D01*
X461849Y168003D01*
X461766Y167956D01*
X461681Y167914D01*
X461595Y167874D01*
X461507Y167838D01*
X461417Y167806D01*
X461327Y167777D01*
X461235Y167752D01*
X461143Y167731D01*
X461049Y167714D01*
X460955Y167700D01*
X460861Y167691D01*
X460766Y167685D01*
X460671Y167683D01*
X460671Y167682D02*
X458343Y167682D01*
X461137Y167682D02*
X463000Y163957D01*
X467393Y163957D02*
X470187Y163957D01*
X470271Y163959D01*
X470354Y163965D01*
X470437Y163974D01*
X470520Y163987D01*
X470602Y164004D01*
X470683Y164024D01*
X470763Y164048D01*
X470842Y164076D01*
X470919Y164107D01*
X470995Y164141D01*
X471070Y164179D01*
X471143Y164221D01*
X471213Y164265D01*
X471282Y164313D01*
X471349Y164363D01*
X471413Y164417D01*
X471474Y164473D01*
X471534Y164533D01*
X471590Y164594D01*
X471644Y164658D01*
X471694Y164725D01*
X471742Y164794D01*
X471786Y164864D01*
X471828Y164937D01*
X471866Y165012D01*
X471900Y165088D01*
X471931Y165165D01*
X471959Y165244D01*
X471983Y165324D01*
X472003Y165405D01*
X472020Y165487D01*
X472033Y165570D01*
X472043Y165653D01*
X472048Y165736D01*
X472050Y165820D01*
X472050Y166751D01*
X472048Y166835D01*
X472043Y166918D01*
X472033Y167001D01*
X472020Y167084D01*
X472003Y167166D01*
X471983Y167247D01*
X471959Y167327D01*
X471931Y167406D01*
X471900Y167483D01*
X471866Y167559D01*
X471828Y167634D01*
X471786Y167707D01*
X471742Y167777D01*
X471694Y167846D01*
X471644Y167913D01*
X471590Y167977D01*
X471534Y168038D01*
X471474Y168098D01*
X471413Y168154D01*
X471349Y168208D01*
X471282Y168258D01*
X471213Y168306D01*
X471143Y168350D01*
X471070Y168392D01*
X470995Y168430D01*
X470919Y168464D01*
X470842Y168495D01*
X470763Y168523D01*
X470683Y168547D01*
X470602Y168567D01*
X470520Y168584D01*
X470437Y168597D01*
X470354Y168607D01*
X470271Y168612D01*
X470187Y168614D01*
X467393Y168614D01*
X467393Y172339D01*
X472050Y172339D01*
X458343Y202057D02*
X458343Y210439D01*
X460671Y210439D01*
X460766Y210437D01*
X460861Y210431D01*
X460955Y210422D01*
X461049Y210408D01*
X461143Y210391D01*
X461235Y210370D01*
X461327Y210345D01*
X461417Y210316D01*
X461507Y210284D01*
X461595Y210248D01*
X461681Y210208D01*
X461766Y210166D01*
X461849Y210119D01*
X461930Y210069D01*
X462008Y210016D01*
X462085Y209960D01*
X462159Y209901D01*
X462231Y209839D01*
X462300Y209774D01*
X462367Y209706D01*
X462430Y209636D01*
X462491Y209562D01*
X462549Y209487D01*
X462603Y209409D01*
X462655Y209329D01*
X462703Y209247D01*
X462747Y209164D01*
X462789Y209078D01*
X462826Y208991D01*
X462860Y208902D01*
X462891Y208812D01*
X462918Y208721D01*
X462941Y208629D01*
X462960Y208536D01*
X462975Y208442D01*
X462987Y208348D01*
X462995Y208253D01*
X462999Y208158D01*
X462999Y208064D01*
X462995Y207969D01*
X462987Y207874D01*
X462975Y207780D01*
X462960Y207686D01*
X462941Y207593D01*
X462918Y207501D01*
X462891Y207410D01*
X462860Y207320D01*
X462826Y207231D01*
X462789Y207144D01*
X462747Y207058D01*
X462703Y206975D01*
X462655Y206893D01*
X462603Y206813D01*
X462549Y206735D01*
X462491Y206660D01*
X462430Y206586D01*
X462367Y206516D01*
X462300Y206448D01*
X462231Y206383D01*
X462159Y206321D01*
X462085Y206262D01*
X462008Y206206D01*
X461930Y206153D01*
X461849Y206103D01*
X461766Y206056D01*
X461681Y206014D01*
X461595Y205974D01*
X461507Y205938D01*
X461417Y205906D01*
X461327Y205877D01*
X461235Y205852D01*
X461143Y205831D01*
X461049Y205814D01*
X460955Y205800D01*
X460861Y205791D01*
X460766Y205785D01*
X460671Y205783D01*
X460671Y205782D02*
X458343Y205782D01*
X461137Y205782D02*
X463000Y202057D01*
X467393Y206714D02*
X470187Y206714D01*
X470271Y206712D01*
X470354Y206707D01*
X470437Y206697D01*
X470520Y206684D01*
X470602Y206667D01*
X470683Y206647D01*
X470763Y206623D01*
X470842Y206595D01*
X470919Y206564D01*
X470995Y206530D01*
X471070Y206492D01*
X471143Y206450D01*
X471213Y206406D01*
X471282Y206358D01*
X471349Y206308D01*
X471413Y206254D01*
X471474Y206198D01*
X471534Y206138D01*
X471590Y206077D01*
X471644Y206013D01*
X471694Y205946D01*
X471742Y205877D01*
X471786Y205807D01*
X471828Y205734D01*
X471866Y205659D01*
X471900Y205583D01*
X471931Y205506D01*
X471959Y205427D01*
X471983Y205347D01*
X472003Y205266D01*
X472020Y205184D01*
X472033Y205101D01*
X472043Y205018D01*
X472048Y204935D01*
X472050Y204851D01*
X472050Y204385D01*
X472049Y204385D02*
X472047Y204290D01*
X472041Y204195D01*
X472032Y204101D01*
X472018Y204007D01*
X472001Y203913D01*
X471980Y203821D01*
X471955Y203729D01*
X471926Y203639D01*
X471894Y203549D01*
X471858Y203461D01*
X471818Y203375D01*
X471776Y203290D01*
X471729Y203207D01*
X471679Y203126D01*
X471626Y203048D01*
X471570Y202971D01*
X471511Y202897D01*
X471449Y202825D01*
X471384Y202756D01*
X471316Y202689D01*
X471246Y202626D01*
X471172Y202565D01*
X471097Y202507D01*
X471019Y202453D01*
X470939Y202401D01*
X470857Y202353D01*
X470774Y202309D01*
X470688Y202267D01*
X470601Y202230D01*
X470512Y202196D01*
X470422Y202165D01*
X470331Y202138D01*
X470239Y202115D01*
X470146Y202096D01*
X470052Y202081D01*
X469958Y202069D01*
X469863Y202061D01*
X469768Y202057D01*
X469674Y202057D01*
X469579Y202061D01*
X469484Y202069D01*
X469390Y202081D01*
X469296Y202096D01*
X469203Y202115D01*
X469111Y202138D01*
X469020Y202165D01*
X468930Y202196D01*
X468841Y202230D01*
X468754Y202267D01*
X468668Y202309D01*
X468585Y202353D01*
X468503Y202401D01*
X468423Y202453D01*
X468345Y202507D01*
X468270Y202565D01*
X468196Y202626D01*
X468126Y202689D01*
X468058Y202756D01*
X467993Y202825D01*
X467931Y202897D01*
X467872Y202971D01*
X467816Y203048D01*
X467763Y203126D01*
X467713Y203207D01*
X467666Y203290D01*
X467624Y203375D01*
X467584Y203461D01*
X467548Y203549D01*
X467516Y203639D01*
X467487Y203729D01*
X467462Y203821D01*
X467441Y203913D01*
X467424Y204007D01*
X467410Y204101D01*
X467401Y204195D01*
X467395Y204290D01*
X467393Y204385D01*
X467393Y206714D01*
X467395Y206836D01*
X467401Y206958D01*
X467411Y207079D01*
X467425Y207200D01*
X467443Y207321D01*
X467465Y207441D01*
X467490Y207560D01*
X467520Y207678D01*
X467553Y207795D01*
X467591Y207911D01*
X467632Y208026D01*
X467677Y208139D01*
X467725Y208251D01*
X467777Y208362D01*
X467833Y208470D01*
X467892Y208576D01*
X467955Y208681D01*
X468021Y208783D01*
X468090Y208884D01*
X468163Y208982D01*
X468239Y209077D01*
X468317Y209170D01*
X468399Y209260D01*
X468484Y209348D01*
X468572Y209433D01*
X468662Y209515D01*
X468755Y209593D01*
X468850Y209669D01*
X468948Y209742D01*
X469048Y209811D01*
X469151Y209877D01*
X469255Y209940D01*
X469362Y209999D01*
X469470Y210055D01*
X469581Y210107D01*
X469692Y210155D01*
X469806Y210200D01*
X469921Y210241D01*
X470037Y210279D01*
X470154Y210312D01*
X470272Y210342D01*
X470391Y210367D01*
X470511Y210389D01*
X470632Y210407D01*
X470753Y210421D01*
X470874Y210431D01*
X470996Y210437D01*
X471118Y210439D01*
X308779Y278003D02*
X306917Y278003D01*
X306833Y278005D01*
X306750Y278010D01*
X306667Y278020D01*
X306584Y278033D01*
X306502Y278050D01*
X306421Y278070D01*
X306341Y278094D01*
X306262Y278122D01*
X306185Y278153D01*
X306109Y278187D01*
X306034Y278225D01*
X305961Y278267D01*
X305891Y278311D01*
X305822Y278359D01*
X305755Y278409D01*
X305691Y278463D01*
X305630Y278519D01*
X305570Y278579D01*
X305514Y278640D01*
X305460Y278704D01*
X305410Y278771D01*
X305362Y278840D01*
X305318Y278910D01*
X305276Y278983D01*
X305238Y279058D01*
X305204Y279134D01*
X305173Y279211D01*
X305145Y279290D01*
X305121Y279370D01*
X305101Y279451D01*
X305084Y279533D01*
X305071Y279616D01*
X305061Y279699D01*
X305056Y279782D01*
X305054Y279866D01*
X305054Y284522D01*
X305056Y284608D01*
X305062Y284694D01*
X305072Y284779D01*
X305086Y284864D01*
X305103Y284949D01*
X305125Y285032D01*
X305151Y285114D01*
X305180Y285195D01*
X305213Y285274D01*
X305249Y285352D01*
X305289Y285429D01*
X305333Y285503D01*
X305380Y285575D01*
X305430Y285645D01*
X305484Y285712D01*
X305540Y285777D01*
X305600Y285839D01*
X305662Y285899D01*
X305727Y285955D01*
X305794Y286009D01*
X305864Y286059D01*
X305936Y286106D01*
X306010Y286150D01*
X306087Y286190D01*
X306164Y286226D01*
X306244Y286259D01*
X306325Y286288D01*
X306407Y286314D01*
X306490Y286336D01*
X306575Y286353D01*
X306660Y286367D01*
X306745Y286377D01*
X306831Y286383D01*
X306917Y286385D01*
X308779Y286385D01*
X315278Y286386D02*
X315367Y286384D01*
X315456Y286378D01*
X315544Y286369D01*
X315632Y286356D01*
X315720Y286339D01*
X315806Y286318D01*
X315892Y286294D01*
X315976Y286266D01*
X316060Y286235D01*
X316141Y286200D01*
X316222Y286162D01*
X316300Y286120D01*
X316377Y286075D01*
X316452Y286027D01*
X316524Y285975D01*
X316595Y285921D01*
X316663Y285863D01*
X316728Y285803D01*
X316791Y285740D01*
X316851Y285675D01*
X316909Y285607D01*
X316963Y285536D01*
X317015Y285464D01*
X317063Y285389D01*
X317108Y285312D01*
X317150Y285234D01*
X317188Y285153D01*
X317223Y285072D01*
X317254Y284988D01*
X317282Y284904D01*
X317306Y284818D01*
X317327Y284732D01*
X317344Y284644D01*
X317357Y284556D01*
X317366Y284468D01*
X317372Y284379D01*
X317374Y284290D01*
X315278Y286385D02*
X315175Y286383D01*
X315073Y286377D01*
X314971Y286367D01*
X314869Y286354D01*
X314768Y286336D01*
X314668Y286315D01*
X314568Y286290D01*
X314470Y286261D01*
X314373Y286228D01*
X314277Y286192D01*
X314182Y286152D01*
X314089Y286108D01*
X313998Y286061D01*
X313909Y286011D01*
X313822Y285957D01*
X313736Y285900D01*
X313653Y285840D01*
X313573Y285776D01*
X313495Y285710D01*
X313419Y285640D01*
X313346Y285568D01*
X313276Y285493D01*
X313209Y285415D01*
X313145Y285335D01*
X313084Y285253D01*
X313026Y285168D01*
X312972Y285081D01*
X312920Y284992D01*
X312873Y284902D01*
X312828Y284809D01*
X312788Y284715D01*
X312750Y284619D01*
X312717Y284522D01*
X316674Y282660D02*
X316739Y282724D01*
X316801Y282791D01*
X316861Y282860D01*
X316917Y282932D01*
X316970Y283005D01*
X317021Y283081D01*
X317068Y283159D01*
X317112Y283239D01*
X317153Y283320D01*
X317191Y283403D01*
X317225Y283488D01*
X317256Y283574D01*
X317283Y283661D01*
X317307Y283749D01*
X317327Y283837D01*
X317344Y283927D01*
X317356Y284017D01*
X317366Y284108D01*
X317371Y284199D01*
X317373Y284290D01*
X316675Y282660D02*
X312716Y278003D01*
X317373Y278003D01*
X519303Y280585D02*
X519303Y284311D01*
X519305Y284406D01*
X519311Y284501D01*
X519320Y284595D01*
X519334Y284689D01*
X519351Y284783D01*
X519372Y284875D01*
X519397Y284967D01*
X519426Y285057D01*
X519458Y285147D01*
X519494Y285235D01*
X519534Y285321D01*
X519576Y285406D01*
X519623Y285489D01*
X519673Y285570D01*
X519726Y285648D01*
X519782Y285725D01*
X519841Y285799D01*
X519903Y285871D01*
X519968Y285940D01*
X520036Y286007D01*
X520106Y286070D01*
X520180Y286131D01*
X520255Y286189D01*
X520333Y286243D01*
X520413Y286295D01*
X520495Y286343D01*
X520578Y286387D01*
X520664Y286429D01*
X520751Y286466D01*
X520840Y286500D01*
X520930Y286531D01*
X521021Y286558D01*
X521113Y286581D01*
X521206Y286600D01*
X521300Y286615D01*
X521394Y286627D01*
X521489Y286635D01*
X521584Y286639D01*
X521678Y286639D01*
X521773Y286635D01*
X521868Y286627D01*
X521962Y286615D01*
X522056Y286600D01*
X522149Y286581D01*
X522241Y286558D01*
X522332Y286531D01*
X522422Y286500D01*
X522511Y286466D01*
X522598Y286429D01*
X522684Y286387D01*
X522767Y286343D01*
X522849Y286295D01*
X522929Y286243D01*
X523007Y286189D01*
X523082Y286131D01*
X523156Y286070D01*
X523226Y286007D01*
X523294Y285940D01*
X523359Y285871D01*
X523421Y285799D01*
X523480Y285725D01*
X523536Y285648D01*
X523589Y285570D01*
X523639Y285489D01*
X523686Y285406D01*
X523728Y285321D01*
X523768Y285235D01*
X523804Y285147D01*
X523836Y285057D01*
X523865Y284967D01*
X523890Y284875D01*
X523911Y284783D01*
X523928Y284689D01*
X523942Y284595D01*
X523951Y284501D01*
X523957Y284406D01*
X523959Y284311D01*
X523960Y284311D02*
X523960Y280585D01*
X523959Y280585D02*
X523957Y280490D01*
X523951Y280395D01*
X523942Y280301D01*
X523928Y280207D01*
X523911Y280113D01*
X523890Y280021D01*
X523865Y279929D01*
X523836Y279839D01*
X523804Y279749D01*
X523768Y279661D01*
X523728Y279575D01*
X523686Y279490D01*
X523639Y279407D01*
X523589Y279326D01*
X523536Y279248D01*
X523480Y279171D01*
X523421Y279097D01*
X523359Y279025D01*
X523294Y278956D01*
X523226Y278889D01*
X523156Y278826D01*
X523082Y278765D01*
X523007Y278707D01*
X522929Y278653D01*
X522849Y278601D01*
X522767Y278553D01*
X522684Y278509D01*
X522598Y278467D01*
X522511Y278430D01*
X522422Y278396D01*
X522332Y278365D01*
X522241Y278338D01*
X522149Y278315D01*
X522056Y278296D01*
X521962Y278281D01*
X521868Y278269D01*
X521773Y278261D01*
X521678Y278257D01*
X521584Y278257D01*
X521489Y278261D01*
X521394Y278269D01*
X521300Y278281D01*
X521206Y278296D01*
X521113Y278315D01*
X521021Y278338D01*
X520930Y278365D01*
X520840Y278396D01*
X520751Y278430D01*
X520664Y278467D01*
X520578Y278509D01*
X520495Y278553D01*
X520413Y278601D01*
X520333Y278653D01*
X520255Y278707D01*
X520180Y278765D01*
X520106Y278826D01*
X520036Y278889D01*
X519968Y278956D01*
X519903Y279025D01*
X519841Y279097D01*
X519782Y279171D01*
X519726Y279248D01*
X519673Y279326D01*
X519623Y279407D01*
X519576Y279490D01*
X519534Y279575D01*
X519494Y279661D01*
X519458Y279749D01*
X519426Y279839D01*
X519397Y279929D01*
X519372Y280021D01*
X519351Y280113D01*
X519334Y280207D01*
X519320Y280301D01*
X519311Y280395D01*
X519305Y280490D01*
X519303Y280585D01*
X523028Y280120D02*
X524891Y278257D01*
X527901Y284776D02*
X530230Y286639D01*
X530230Y278257D01*
X532558Y278257D02*
X527901Y278257D01*
D11*
X205359Y396868D02*
X194945Y396868D01*
X194945Y399761D01*
X194947Y399868D01*
X194953Y399975D01*
X194963Y400081D01*
X194977Y400187D01*
X194994Y400293D01*
X195016Y400397D01*
X195041Y400501D01*
X195071Y400604D01*
X195104Y400706D01*
X195140Y400806D01*
X195181Y400905D01*
X195225Y401002D01*
X195273Y401098D01*
X195324Y401192D01*
X195378Y401284D01*
X195436Y401374D01*
X195498Y401461D01*
X195562Y401547D01*
X195629Y401630D01*
X195700Y401710D01*
X195774Y401788D01*
X195850Y401863D01*
X195929Y401935D01*
X196010Y402004D01*
X196095Y402070D01*
X196181Y402133D01*
X196270Y402192D01*
X196361Y402248D01*
X196454Y402301D01*
X196548Y402351D01*
X196645Y402397D01*
X196743Y402439D01*
X196843Y402477D01*
X196944Y402512D01*
X197046Y402544D01*
X197150Y402571D01*
X197254Y402594D01*
X197359Y402614D01*
X197465Y402630D01*
X197571Y402642D01*
X197678Y402650D01*
X197785Y402654D01*
X197891Y402654D01*
X197998Y402650D01*
X198105Y402642D01*
X198211Y402630D01*
X198317Y402614D01*
X198422Y402594D01*
X198526Y402571D01*
X198630Y402544D01*
X198732Y402512D01*
X198833Y402477D01*
X198933Y402439D01*
X199031Y402397D01*
X199128Y402351D01*
X199222Y402301D01*
X199315Y402248D01*
X199406Y402192D01*
X199495Y402133D01*
X199581Y402070D01*
X199666Y402004D01*
X199747Y401935D01*
X199826Y401863D01*
X199902Y401788D01*
X199976Y401710D01*
X200047Y401630D01*
X200114Y401547D01*
X200178Y401461D01*
X200240Y401374D01*
X200298Y401284D01*
X200352Y401192D01*
X200403Y401098D01*
X200451Y401002D01*
X200495Y400905D01*
X200536Y400806D01*
X200572Y400706D01*
X200605Y400604D01*
X200635Y400501D01*
X200660Y400397D01*
X200682Y400293D01*
X200699Y400187D01*
X200713Y400081D01*
X200723Y399975D01*
X200729Y399868D01*
X200731Y399761D01*
X200731Y396868D01*
X194945Y407430D02*
X205359Y409744D01*
X198416Y412059D01*
X205359Y414373D01*
X194945Y416687D01*
X382905Y360364D02*
X382905Y355736D01*
X372491Y355736D01*
X372491Y360364D01*
X377119Y359207D02*
X377119Y355736D01*
X382905Y364645D02*
X372491Y371588D01*
X372491Y364645D02*
X382905Y371588D01*
X382905Y378785D02*
X372491Y378785D01*
X372491Y381677D02*
X372491Y375892D01*
X384062Y385995D02*
X384062Y390624D01*
X382905Y396360D02*
X372491Y396360D01*
X372491Y399253D01*
X372493Y399360D01*
X372499Y399467D01*
X372509Y399573D01*
X372523Y399679D01*
X372540Y399785D01*
X372562Y399889D01*
X372587Y399993D01*
X372617Y400096D01*
X372650Y400198D01*
X372686Y400298D01*
X372727Y400397D01*
X372771Y400494D01*
X372819Y400590D01*
X372870Y400684D01*
X372924Y400776D01*
X372982Y400866D01*
X373044Y400953D01*
X373108Y401039D01*
X373175Y401122D01*
X373246Y401202D01*
X373320Y401280D01*
X373396Y401355D01*
X373475Y401427D01*
X373556Y401496D01*
X373641Y401562D01*
X373727Y401625D01*
X373816Y401684D01*
X373907Y401740D01*
X374000Y401793D01*
X374094Y401843D01*
X374191Y401889D01*
X374289Y401931D01*
X374389Y401969D01*
X374490Y402004D01*
X374592Y402036D01*
X374696Y402063D01*
X374800Y402086D01*
X374905Y402106D01*
X375011Y402122D01*
X375117Y402134D01*
X375224Y402142D01*
X375331Y402146D01*
X375437Y402146D01*
X375544Y402142D01*
X375651Y402134D01*
X375757Y402122D01*
X375863Y402106D01*
X375968Y402086D01*
X376072Y402063D01*
X376176Y402036D01*
X376278Y402004D01*
X376379Y401969D01*
X376479Y401931D01*
X376577Y401889D01*
X376674Y401843D01*
X376768Y401793D01*
X376861Y401740D01*
X376952Y401684D01*
X377041Y401625D01*
X377127Y401562D01*
X377212Y401496D01*
X377293Y401427D01*
X377372Y401355D01*
X377448Y401280D01*
X377522Y401202D01*
X377593Y401122D01*
X377660Y401039D01*
X377724Y400953D01*
X377786Y400866D01*
X377844Y400776D01*
X377898Y400684D01*
X377949Y400590D01*
X377997Y400494D01*
X378041Y400397D01*
X378082Y400298D01*
X378118Y400198D01*
X378151Y400096D01*
X378181Y399993D01*
X378206Y399889D01*
X378228Y399785D01*
X378245Y399679D01*
X378259Y399573D01*
X378269Y399467D01*
X378275Y399360D01*
X378277Y399253D01*
X378277Y396360D01*
X372491Y406922D02*
X382905Y409236D01*
X375962Y411551D01*
X382905Y413865D01*
X372491Y416179D01*
X484251Y354974D02*
X494665Y354974D01*
X494665Y359602D01*
X494665Y364880D02*
X494665Y369508D01*
X494665Y364880D02*
X484251Y364880D01*
X484251Y369508D01*
X488879Y368351D02*
X488879Y364880D01*
X484251Y374749D02*
X494665Y374749D01*
X484251Y374749D02*
X484251Y377642D01*
X484253Y377748D01*
X484259Y377853D01*
X484268Y377958D01*
X484282Y378063D01*
X484299Y378167D01*
X484320Y378271D01*
X484345Y378374D01*
X484374Y378475D01*
X484406Y378576D01*
X484442Y378675D01*
X484481Y378773D01*
X484525Y378870D01*
X484571Y378965D01*
X484621Y379058D01*
X484675Y379149D01*
X484731Y379238D01*
X484791Y379325D01*
X484854Y379410D01*
X484920Y379493D01*
X484989Y379573D01*
X485061Y379650D01*
X485136Y379725D01*
X485213Y379797D01*
X485293Y379866D01*
X485376Y379932D01*
X485461Y379995D01*
X485548Y380055D01*
X485637Y380111D01*
X485728Y380165D01*
X485821Y380215D01*
X485916Y380261D01*
X486013Y380305D01*
X486111Y380344D01*
X486210Y380380D01*
X486311Y380412D01*
X486412Y380441D01*
X486515Y380466D01*
X486619Y380487D01*
X486723Y380504D01*
X486828Y380518D01*
X486933Y380527D01*
X487038Y380533D01*
X487144Y380535D01*
X487144Y380534D02*
X491772Y380534D01*
X491772Y380535D02*
X491878Y380533D01*
X491983Y380527D01*
X492088Y380518D01*
X492193Y380504D01*
X492297Y380487D01*
X492401Y380466D01*
X492504Y380441D01*
X492605Y380412D01*
X492706Y380380D01*
X492805Y380344D01*
X492903Y380305D01*
X493000Y380261D01*
X493095Y380215D01*
X493188Y380165D01*
X493279Y380111D01*
X493368Y380055D01*
X493455Y379995D01*
X493540Y379932D01*
X493623Y379866D01*
X493703Y379797D01*
X493780Y379725D01*
X493855Y379650D01*
X493927Y379573D01*
X493996Y379493D01*
X494062Y379410D01*
X494125Y379325D01*
X494185Y379238D01*
X494241Y379149D01*
X494295Y379058D01*
X494345Y378965D01*
X494391Y378870D01*
X494435Y378773D01*
X494474Y378675D01*
X494510Y378576D01*
X494542Y378475D01*
X494571Y378374D01*
X494596Y378271D01*
X494617Y378167D01*
X494634Y378063D01*
X494648Y377958D01*
X494657Y377853D01*
X494663Y377748D01*
X494665Y377642D01*
X494665Y374749D01*
X495822Y385995D02*
X495822Y390624D01*
X494665Y396360D02*
X484251Y396360D01*
X484251Y399253D01*
X484253Y399360D01*
X484259Y399467D01*
X484269Y399573D01*
X484283Y399679D01*
X484300Y399785D01*
X484322Y399889D01*
X484347Y399993D01*
X484377Y400096D01*
X484410Y400198D01*
X484446Y400298D01*
X484487Y400397D01*
X484531Y400494D01*
X484579Y400590D01*
X484630Y400684D01*
X484684Y400776D01*
X484742Y400866D01*
X484804Y400953D01*
X484868Y401039D01*
X484935Y401122D01*
X485006Y401202D01*
X485080Y401280D01*
X485156Y401355D01*
X485235Y401427D01*
X485316Y401496D01*
X485401Y401562D01*
X485487Y401625D01*
X485576Y401684D01*
X485667Y401740D01*
X485760Y401793D01*
X485854Y401843D01*
X485951Y401889D01*
X486049Y401931D01*
X486149Y401969D01*
X486250Y402004D01*
X486352Y402036D01*
X486456Y402063D01*
X486560Y402086D01*
X486665Y402106D01*
X486771Y402122D01*
X486877Y402134D01*
X486984Y402142D01*
X487091Y402146D01*
X487197Y402146D01*
X487304Y402142D01*
X487411Y402134D01*
X487517Y402122D01*
X487623Y402106D01*
X487728Y402086D01*
X487832Y402063D01*
X487936Y402036D01*
X488038Y402004D01*
X488139Y401969D01*
X488239Y401931D01*
X488337Y401889D01*
X488434Y401843D01*
X488528Y401793D01*
X488621Y401740D01*
X488712Y401684D01*
X488801Y401625D01*
X488887Y401562D01*
X488972Y401496D01*
X489053Y401427D01*
X489132Y401355D01*
X489208Y401280D01*
X489282Y401202D01*
X489353Y401122D01*
X489420Y401039D01*
X489484Y400953D01*
X489546Y400866D01*
X489604Y400776D01*
X489658Y400684D01*
X489709Y400590D01*
X489757Y400494D01*
X489801Y400397D01*
X489842Y400298D01*
X489878Y400198D01*
X489911Y400096D01*
X489941Y399993D01*
X489966Y399889D01*
X489988Y399785D01*
X490005Y399679D01*
X490019Y399573D01*
X490029Y399467D01*
X490035Y399360D01*
X490037Y399253D01*
X490037Y396360D01*
X484251Y406922D02*
X494665Y409236D01*
X487722Y411551D01*
X494665Y413865D01*
X484251Y416179D01*
X485577Y34847D02*
X485577Y31955D01*
X485577Y34847D02*
X485579Y34954D01*
X485585Y35061D01*
X485595Y35167D01*
X485609Y35273D01*
X485626Y35379D01*
X485648Y35483D01*
X485673Y35587D01*
X485703Y35690D01*
X485736Y35792D01*
X485772Y35892D01*
X485813Y35991D01*
X485857Y36088D01*
X485905Y36184D01*
X485956Y36278D01*
X486010Y36370D01*
X486068Y36460D01*
X486130Y36547D01*
X486194Y36633D01*
X486261Y36716D01*
X486332Y36796D01*
X486406Y36874D01*
X486482Y36949D01*
X486561Y37021D01*
X486642Y37090D01*
X486727Y37156D01*
X486813Y37219D01*
X486902Y37278D01*
X486993Y37334D01*
X487086Y37387D01*
X487180Y37437D01*
X487277Y37483D01*
X487375Y37525D01*
X487475Y37563D01*
X487576Y37598D01*
X487678Y37630D01*
X487782Y37657D01*
X487886Y37680D01*
X487991Y37700D01*
X488097Y37716D01*
X488203Y37728D01*
X488310Y37736D01*
X488417Y37740D01*
X488523Y37740D01*
X488630Y37736D01*
X488737Y37728D01*
X488843Y37716D01*
X488949Y37700D01*
X489054Y37680D01*
X489158Y37657D01*
X489262Y37630D01*
X489364Y37598D01*
X489465Y37563D01*
X489565Y37525D01*
X489663Y37483D01*
X489760Y37437D01*
X489854Y37387D01*
X489947Y37334D01*
X490038Y37278D01*
X490127Y37219D01*
X490213Y37156D01*
X490298Y37090D01*
X490379Y37021D01*
X490458Y36949D01*
X490534Y36874D01*
X490608Y36796D01*
X490679Y36716D01*
X490746Y36633D01*
X490810Y36547D01*
X490872Y36460D01*
X490930Y36370D01*
X490984Y36278D01*
X491035Y36184D01*
X491083Y36088D01*
X491127Y35991D01*
X491168Y35892D01*
X491204Y35792D01*
X491237Y35690D01*
X491267Y35587D01*
X491292Y35483D01*
X491314Y35379D01*
X491331Y35273D01*
X491345Y35167D01*
X491355Y35061D01*
X491361Y34954D01*
X491363Y34847D01*
X491363Y31955D01*
X480949Y31955D01*
X480949Y34847D01*
X480951Y34941D01*
X480957Y35036D01*
X480966Y35130D01*
X480980Y35223D01*
X480997Y35316D01*
X481018Y35408D01*
X481043Y35499D01*
X481071Y35589D01*
X481103Y35678D01*
X481139Y35765D01*
X481178Y35851D01*
X481221Y35935D01*
X481267Y36018D01*
X481316Y36098D01*
X481369Y36176D01*
X481425Y36253D01*
X481484Y36326D01*
X481545Y36398D01*
X481610Y36466D01*
X481678Y36533D01*
X481748Y36596D01*
X481820Y36656D01*
X481895Y36714D01*
X481973Y36768D01*
X482052Y36819D01*
X482133Y36867D01*
X482217Y36911D01*
X482302Y36952D01*
X482388Y36989D01*
X482476Y37023D01*
X482566Y37054D01*
X482656Y37080D01*
X482748Y37103D01*
X482841Y37122D01*
X482934Y37137D01*
X483027Y37149D01*
X483121Y37157D01*
X483216Y37161D01*
X483310Y37161D01*
X483405Y37157D01*
X483499Y37149D01*
X483592Y37137D01*
X483685Y37122D01*
X483778Y37103D01*
X483870Y37080D01*
X483960Y37054D01*
X484050Y37023D01*
X484138Y36989D01*
X484224Y36952D01*
X484309Y36911D01*
X484393Y36867D01*
X484474Y36819D01*
X484553Y36768D01*
X484631Y36714D01*
X484706Y36656D01*
X484778Y36596D01*
X484848Y36533D01*
X484916Y36466D01*
X484981Y36398D01*
X485042Y36326D01*
X485101Y36253D01*
X485157Y36176D01*
X485210Y36098D01*
X485259Y36018D01*
X485305Y35935D01*
X485348Y35851D01*
X485387Y35765D01*
X485423Y35678D01*
X485455Y35589D01*
X485483Y35499D01*
X485508Y35408D01*
X485529Y35316D01*
X485546Y35223D01*
X485560Y35130D01*
X485569Y35036D01*
X485575Y34941D01*
X485577Y34847D01*
X480949Y44859D02*
X491363Y44859D01*
X480949Y41967D02*
X480949Y47752D01*
X480949Y53015D02*
X491363Y53015D01*
X491363Y58801D02*
X480949Y53015D01*
X480949Y58801D02*
X491363Y58801D01*
X361823Y27087D02*
X361823Y24773D01*
X361821Y24677D01*
X361815Y24582D01*
X361805Y24487D01*
X361791Y24392D01*
X361774Y24298D01*
X361752Y24205D01*
X361727Y24113D01*
X361698Y24022D01*
X361665Y23932D01*
X361628Y23843D01*
X361588Y23757D01*
X361544Y23672D01*
X361497Y23589D01*
X361446Y23507D01*
X361392Y23428D01*
X361335Y23352D01*
X361275Y23277D01*
X361211Y23206D01*
X361145Y23137D01*
X361076Y23071D01*
X361005Y23007D01*
X360930Y22947D01*
X360854Y22890D01*
X360775Y22836D01*
X360694Y22785D01*
X360610Y22738D01*
X360525Y22694D01*
X360439Y22654D01*
X360350Y22617D01*
X360260Y22584D01*
X360169Y22555D01*
X360077Y22530D01*
X359984Y22508D01*
X359890Y22491D01*
X359795Y22477D01*
X359700Y22467D01*
X359605Y22461D01*
X359509Y22459D01*
X353723Y22459D01*
X353627Y22461D01*
X353532Y22467D01*
X353437Y22477D01*
X353342Y22491D01*
X353248Y22508D01*
X353155Y22530D01*
X353063Y22555D01*
X352972Y22584D01*
X352882Y22617D01*
X352793Y22654D01*
X352707Y22694D01*
X352622Y22738D01*
X352539Y22785D01*
X352457Y22836D01*
X352378Y22890D01*
X352302Y22947D01*
X352227Y23007D01*
X352156Y23071D01*
X352087Y23137D01*
X352021Y23206D01*
X351957Y23277D01*
X351897Y23352D01*
X351840Y23428D01*
X351786Y23507D01*
X351735Y23588D01*
X351688Y23672D01*
X351644Y23757D01*
X351604Y23843D01*
X351567Y23932D01*
X351534Y24022D01*
X351505Y24113D01*
X351480Y24205D01*
X351458Y24298D01*
X351441Y24392D01*
X351427Y24487D01*
X351417Y24582D01*
X351411Y24677D01*
X351409Y24773D01*
X351409Y27087D01*
X351409Y34169D02*
X361823Y34169D01*
X351409Y31276D02*
X351409Y37061D01*
X351409Y42445D02*
X361823Y42445D01*
X351409Y42445D02*
X351409Y45337D01*
X351411Y45444D01*
X351417Y45551D01*
X351427Y45657D01*
X351441Y45763D01*
X351458Y45869D01*
X351480Y45973D01*
X351505Y46077D01*
X351535Y46180D01*
X351568Y46282D01*
X351604Y46382D01*
X351645Y46481D01*
X351689Y46578D01*
X351737Y46674D01*
X351788Y46768D01*
X351842Y46860D01*
X351900Y46950D01*
X351962Y47037D01*
X352026Y47123D01*
X352093Y47206D01*
X352164Y47286D01*
X352238Y47364D01*
X352314Y47439D01*
X352393Y47511D01*
X352474Y47580D01*
X352559Y47646D01*
X352645Y47709D01*
X352734Y47768D01*
X352825Y47824D01*
X352918Y47877D01*
X353012Y47927D01*
X353109Y47973D01*
X353207Y48015D01*
X353307Y48053D01*
X353408Y48088D01*
X353510Y48120D01*
X353614Y48147D01*
X353718Y48170D01*
X353823Y48190D01*
X353929Y48206D01*
X354035Y48218D01*
X354142Y48226D01*
X354249Y48230D01*
X354355Y48230D01*
X354462Y48226D01*
X354569Y48218D01*
X354675Y48206D01*
X354781Y48190D01*
X354886Y48170D01*
X354990Y48147D01*
X355094Y48120D01*
X355196Y48088D01*
X355297Y48053D01*
X355397Y48015D01*
X355495Y47973D01*
X355592Y47927D01*
X355686Y47877D01*
X355779Y47824D01*
X355870Y47768D01*
X355959Y47709D01*
X356045Y47646D01*
X356130Y47580D01*
X356211Y47511D01*
X356290Y47439D01*
X356366Y47364D01*
X356440Y47286D01*
X356511Y47206D01*
X356578Y47123D01*
X356642Y47037D01*
X356704Y46950D01*
X356762Y46860D01*
X356816Y46768D01*
X356867Y46674D01*
X356915Y46578D01*
X356959Y46481D01*
X357000Y46382D01*
X357036Y46282D01*
X357069Y46180D01*
X357099Y46077D01*
X357124Y45973D01*
X357146Y45869D01*
X357163Y45763D01*
X357177Y45657D01*
X357187Y45551D01*
X357193Y45444D01*
X357195Y45337D01*
X357195Y42445D01*
X357195Y45916D02*
X361823Y48230D01*
X361823Y54173D02*
X351409Y54173D01*
X361823Y54173D02*
X361823Y58801D01*
X270030Y30156D02*
X265402Y30156D01*
X265402Y30155D02*
X265295Y30157D01*
X265188Y30163D01*
X265082Y30173D01*
X264976Y30187D01*
X264870Y30204D01*
X264766Y30226D01*
X264662Y30251D01*
X264559Y30281D01*
X264457Y30314D01*
X264357Y30350D01*
X264258Y30391D01*
X264161Y30435D01*
X264065Y30483D01*
X263971Y30534D01*
X263879Y30588D01*
X263789Y30646D01*
X263702Y30708D01*
X263616Y30772D01*
X263533Y30839D01*
X263453Y30910D01*
X263375Y30984D01*
X263300Y31060D01*
X263228Y31139D01*
X263159Y31220D01*
X263093Y31305D01*
X263030Y31391D01*
X262971Y31480D01*
X262915Y31571D01*
X262862Y31664D01*
X262812Y31758D01*
X262766Y31855D01*
X262724Y31953D01*
X262686Y32053D01*
X262651Y32154D01*
X262619Y32256D01*
X262592Y32360D01*
X262569Y32464D01*
X262549Y32569D01*
X262533Y32675D01*
X262521Y32781D01*
X262513Y32888D01*
X262509Y32995D01*
X262509Y33101D01*
X262513Y33208D01*
X262521Y33315D01*
X262533Y33421D01*
X262549Y33527D01*
X262569Y33632D01*
X262592Y33736D01*
X262619Y33840D01*
X262651Y33942D01*
X262686Y34043D01*
X262724Y34143D01*
X262766Y34241D01*
X262812Y34338D01*
X262862Y34432D01*
X262915Y34525D01*
X262971Y34616D01*
X263030Y34705D01*
X263093Y34791D01*
X263159Y34876D01*
X263228Y34957D01*
X263300Y35036D01*
X263375Y35112D01*
X263453Y35186D01*
X263533Y35257D01*
X263616Y35324D01*
X263702Y35388D01*
X263789Y35450D01*
X263879Y35508D01*
X263971Y35562D01*
X264065Y35613D01*
X264161Y35661D01*
X264258Y35705D01*
X264357Y35746D01*
X264457Y35782D01*
X264559Y35815D01*
X264662Y35845D01*
X264766Y35870D01*
X264870Y35892D01*
X264976Y35909D01*
X265082Y35923D01*
X265188Y35933D01*
X265295Y35939D01*
X265402Y35941D01*
X270030Y35941D01*
X270137Y35939D01*
X270244Y35933D01*
X270350Y35923D01*
X270456Y35909D01*
X270562Y35892D01*
X270666Y35870D01*
X270770Y35845D01*
X270873Y35815D01*
X270975Y35782D01*
X271075Y35746D01*
X271174Y35705D01*
X271271Y35661D01*
X271367Y35613D01*
X271461Y35562D01*
X271553Y35508D01*
X271643Y35450D01*
X271730Y35388D01*
X271816Y35324D01*
X271899Y35257D01*
X271979Y35186D01*
X272057Y35112D01*
X272132Y35036D01*
X272204Y34957D01*
X272273Y34876D01*
X272339Y34791D01*
X272402Y34705D01*
X272461Y34616D01*
X272517Y34525D01*
X272570Y34432D01*
X272620Y34338D01*
X272666Y34241D01*
X272708Y34143D01*
X272746Y34043D01*
X272781Y33942D01*
X272813Y33840D01*
X272840Y33736D01*
X272863Y33632D01*
X272883Y33527D01*
X272899Y33421D01*
X272911Y33315D01*
X272919Y33208D01*
X272923Y33101D01*
X272923Y32995D01*
X272919Y32888D01*
X272911Y32781D01*
X272899Y32675D01*
X272883Y32569D01*
X272863Y32464D01*
X272840Y32360D01*
X272813Y32256D01*
X272781Y32154D01*
X272746Y32053D01*
X272708Y31953D01*
X272666Y31855D01*
X272620Y31758D01*
X272570Y31664D01*
X272517Y31571D01*
X272461Y31480D01*
X272402Y31391D01*
X272339Y31305D01*
X272273Y31220D01*
X272204Y31139D01*
X272132Y31060D01*
X272057Y30984D01*
X271979Y30910D01*
X271899Y30839D01*
X271816Y30772D01*
X271730Y30708D01*
X271643Y30646D01*
X271553Y30588D01*
X271461Y30534D01*
X271367Y30483D01*
X271271Y30435D01*
X271174Y30391D01*
X271075Y30350D01*
X270975Y30314D01*
X270873Y30281D01*
X270770Y30251D01*
X270666Y30226D01*
X270562Y30204D01*
X270456Y30187D01*
X270350Y30173D01*
X270244Y30163D01*
X270137Y30157D01*
X270030Y30155D01*
X270030Y41967D02*
X262509Y41967D01*
X270030Y41966D02*
X270137Y41968D01*
X270244Y41974D01*
X270350Y41984D01*
X270456Y41998D01*
X270562Y42015D01*
X270666Y42037D01*
X270770Y42062D01*
X270873Y42092D01*
X270975Y42125D01*
X271075Y42161D01*
X271174Y42202D01*
X271271Y42246D01*
X271367Y42294D01*
X271461Y42345D01*
X271553Y42399D01*
X271643Y42457D01*
X271730Y42519D01*
X271816Y42583D01*
X271899Y42650D01*
X271979Y42721D01*
X272057Y42795D01*
X272132Y42871D01*
X272204Y42950D01*
X272273Y43031D01*
X272339Y43116D01*
X272402Y43202D01*
X272461Y43291D01*
X272517Y43382D01*
X272570Y43475D01*
X272620Y43569D01*
X272666Y43666D01*
X272708Y43764D01*
X272746Y43864D01*
X272781Y43965D01*
X272813Y44067D01*
X272840Y44171D01*
X272863Y44275D01*
X272883Y44380D01*
X272899Y44486D01*
X272911Y44592D01*
X272919Y44699D01*
X272923Y44806D01*
X272923Y44912D01*
X272919Y45019D01*
X272911Y45126D01*
X272899Y45232D01*
X272883Y45338D01*
X272863Y45443D01*
X272840Y45547D01*
X272813Y45651D01*
X272781Y45753D01*
X272746Y45854D01*
X272708Y45954D01*
X272666Y46052D01*
X272620Y46149D01*
X272570Y46243D01*
X272517Y46336D01*
X272461Y46427D01*
X272402Y46516D01*
X272339Y46602D01*
X272273Y46687D01*
X272204Y46768D01*
X272132Y46847D01*
X272057Y46923D01*
X271979Y46997D01*
X271899Y47068D01*
X271816Y47135D01*
X271730Y47199D01*
X271643Y47261D01*
X271553Y47319D01*
X271461Y47373D01*
X271367Y47424D01*
X271271Y47472D01*
X271174Y47516D01*
X271075Y47557D01*
X270975Y47593D01*
X270873Y47626D01*
X270770Y47656D01*
X270666Y47681D01*
X270562Y47703D01*
X270456Y47720D01*
X270350Y47734D01*
X270244Y47744D01*
X270137Y47750D01*
X270030Y47752D01*
X262509Y47752D01*
X262509Y55908D02*
X272923Y55908D01*
X262509Y53015D02*
X262509Y58801D01*
X184023Y46383D02*
X173609Y46383D01*
X184023Y45226D02*
X184023Y47540D01*
X173609Y47540D02*
X173609Y45226D01*
X173609Y53015D02*
X184023Y53015D01*
X184023Y58801D02*
X173609Y53015D01*
X173609Y58801D02*
X184023Y58801D01*
D10*
X125010Y303073D02*
X125010Y304470D01*
X129667Y304470D01*
X129667Y301676D01*
X129665Y301590D01*
X129659Y301504D01*
X129649Y301419D01*
X129635Y301334D01*
X129618Y301249D01*
X129596Y301166D01*
X129570Y301084D01*
X129541Y301003D01*
X129508Y300924D01*
X129472Y300846D01*
X129432Y300769D01*
X129388Y300695D01*
X129341Y300623D01*
X129291Y300553D01*
X129237Y300486D01*
X129181Y300421D01*
X129121Y300359D01*
X129059Y300299D01*
X128994Y300243D01*
X128927Y300189D01*
X128857Y300139D01*
X128785Y300092D01*
X128711Y300048D01*
X128634Y300008D01*
X128557Y299972D01*
X128477Y299939D01*
X128396Y299910D01*
X128314Y299884D01*
X128231Y299862D01*
X128146Y299845D01*
X128061Y299831D01*
X127976Y299821D01*
X127890Y299815D01*
X127804Y299813D01*
X123148Y299813D01*
X123062Y299815D01*
X122976Y299821D01*
X122891Y299831D01*
X122806Y299845D01*
X122721Y299862D01*
X122638Y299884D01*
X122556Y299910D01*
X122475Y299939D01*
X122396Y299972D01*
X122318Y300008D01*
X122241Y300048D01*
X122167Y300092D01*
X122095Y300139D01*
X122025Y300189D01*
X121958Y300243D01*
X121893Y300299D01*
X121831Y300359D01*
X121771Y300421D01*
X121715Y300486D01*
X121661Y300553D01*
X121611Y300623D01*
X121564Y300695D01*
X121520Y300769D01*
X121480Y300846D01*
X121444Y300923D01*
X121411Y301003D01*
X121382Y301084D01*
X121356Y301166D01*
X121334Y301249D01*
X121317Y301334D01*
X121303Y301419D01*
X121293Y301504D01*
X121287Y301590D01*
X121285Y301676D01*
X121285Y304470D01*
X121285Y309567D02*
X129667Y309567D01*
X129667Y314223D02*
X121285Y309567D01*
X121285Y314223D02*
X129667Y314223D01*
X129667Y319320D02*
X121285Y319320D01*
X121285Y321649D01*
X121287Y321743D01*
X121293Y321836D01*
X121302Y321930D01*
X121315Y322022D01*
X121332Y322115D01*
X121353Y322206D01*
X121377Y322297D01*
X121405Y322386D01*
X121436Y322475D01*
X121471Y322562D01*
X121510Y322647D01*
X121552Y322731D01*
X121597Y322813D01*
X121645Y322893D01*
X121697Y322971D01*
X121752Y323048D01*
X121810Y323121D01*
X121870Y323193D01*
X121934Y323262D01*
X122000Y323328D01*
X122069Y323392D01*
X122141Y323452D01*
X122214Y323510D01*
X122291Y323565D01*
X122369Y323617D01*
X122449Y323665D01*
X122531Y323710D01*
X122615Y323752D01*
X122701Y323791D01*
X122788Y323826D01*
X122876Y323857D01*
X122965Y323885D01*
X123056Y323909D01*
X123147Y323930D01*
X123240Y323947D01*
X123332Y323960D01*
X123426Y323969D01*
X123519Y323975D01*
X123613Y323977D01*
X127339Y323977D01*
X127433Y323975D01*
X127526Y323969D01*
X127620Y323960D01*
X127712Y323947D01*
X127805Y323930D01*
X127896Y323909D01*
X127987Y323885D01*
X128076Y323857D01*
X128165Y323826D01*
X128251Y323791D01*
X128337Y323752D01*
X128421Y323710D01*
X128503Y323665D01*
X128583Y323617D01*
X128661Y323565D01*
X128738Y323510D01*
X128811Y323452D01*
X128883Y323392D01*
X128952Y323328D01*
X129018Y323262D01*
X129082Y323193D01*
X129142Y323121D01*
X129200Y323048D01*
X129255Y322971D01*
X129307Y322893D01*
X129355Y322813D01*
X129400Y322731D01*
X129442Y322647D01*
X129481Y322561D01*
X129516Y322475D01*
X129547Y322386D01*
X129575Y322297D01*
X129599Y322206D01*
X129620Y322115D01*
X129637Y322022D01*
X129650Y321930D01*
X129659Y321836D01*
X129665Y321743D01*
X129667Y321649D01*
X129667Y319320D01*
X165777Y305079D02*
X165777Y299491D01*
X168571Y302285D02*
X162983Y302285D01*
X169037Y309711D02*
X169037Y312505D01*
X169035Y312589D01*
X169030Y312672D01*
X169020Y312755D01*
X169007Y312838D01*
X168990Y312920D01*
X168970Y313001D01*
X168946Y313081D01*
X168918Y313160D01*
X168887Y313237D01*
X168853Y313313D01*
X168815Y313388D01*
X168773Y313461D01*
X168729Y313531D01*
X168681Y313600D01*
X168631Y313667D01*
X168577Y313731D01*
X168521Y313792D01*
X168461Y313852D01*
X168400Y313908D01*
X168336Y313962D01*
X168269Y314012D01*
X168200Y314060D01*
X168130Y314104D01*
X168057Y314146D01*
X167982Y314184D01*
X167906Y314218D01*
X167829Y314249D01*
X167750Y314277D01*
X167670Y314301D01*
X167589Y314321D01*
X167507Y314338D01*
X167424Y314351D01*
X167341Y314361D01*
X167258Y314366D01*
X167174Y314368D01*
X167174Y314367D02*
X166243Y314367D01*
X166243Y314368D02*
X166157Y314366D01*
X166071Y314360D01*
X165986Y314350D01*
X165901Y314336D01*
X165816Y314319D01*
X165733Y314297D01*
X165651Y314271D01*
X165570Y314242D01*
X165491Y314209D01*
X165413Y314173D01*
X165336Y314133D01*
X165262Y314089D01*
X165190Y314042D01*
X165120Y313992D01*
X165053Y313938D01*
X164988Y313882D01*
X164926Y313822D01*
X164866Y313760D01*
X164810Y313695D01*
X164756Y313628D01*
X164706Y313558D01*
X164659Y313486D01*
X164615Y313412D01*
X164575Y313335D01*
X164539Y313258D01*
X164506Y313178D01*
X164477Y313097D01*
X164451Y313015D01*
X164429Y312932D01*
X164412Y312847D01*
X164398Y312762D01*
X164388Y312677D01*
X164382Y312591D01*
X164380Y312505D01*
X164380Y309711D01*
X160655Y309711D01*
X160655Y314367D01*
X160655Y318389D02*
X169037Y321183D01*
X160655Y323977D01*
X305350Y304470D02*
X305350Y303073D01*
X305350Y304470D02*
X310007Y304470D01*
X310007Y301676D01*
X310005Y301590D01*
X309999Y301504D01*
X309989Y301419D01*
X309975Y301334D01*
X309958Y301249D01*
X309936Y301166D01*
X309910Y301084D01*
X309881Y301003D01*
X309848Y300924D01*
X309812Y300846D01*
X309772Y300769D01*
X309728Y300695D01*
X309681Y300623D01*
X309631Y300553D01*
X309577Y300486D01*
X309521Y300421D01*
X309461Y300359D01*
X309399Y300299D01*
X309334Y300243D01*
X309267Y300189D01*
X309197Y300139D01*
X309125Y300092D01*
X309051Y300048D01*
X308974Y300008D01*
X308897Y299972D01*
X308817Y299939D01*
X308736Y299910D01*
X308654Y299884D01*
X308571Y299862D01*
X308486Y299845D01*
X308401Y299831D01*
X308316Y299821D01*
X308230Y299815D01*
X308144Y299813D01*
X303488Y299813D01*
X303402Y299815D01*
X303316Y299821D01*
X303231Y299831D01*
X303146Y299845D01*
X303061Y299862D01*
X302978Y299884D01*
X302896Y299910D01*
X302815Y299939D01*
X302736Y299972D01*
X302658Y300008D01*
X302581Y300048D01*
X302507Y300092D01*
X302435Y300139D01*
X302365Y300189D01*
X302298Y300243D01*
X302233Y300299D01*
X302171Y300359D01*
X302111Y300421D01*
X302055Y300486D01*
X302001Y300553D01*
X301951Y300623D01*
X301904Y300695D01*
X301860Y300769D01*
X301820Y300846D01*
X301784Y300923D01*
X301751Y301003D01*
X301722Y301084D01*
X301696Y301166D01*
X301674Y301249D01*
X301657Y301334D01*
X301643Y301419D01*
X301633Y301504D01*
X301627Y301590D01*
X301625Y301676D01*
X301625Y304470D01*
X301625Y309567D02*
X310007Y309567D01*
X310007Y314223D02*
X301625Y309567D01*
X301625Y314223D02*
X310007Y314223D01*
X310007Y319320D02*
X301625Y319320D01*
X301625Y321649D01*
X301627Y321743D01*
X301633Y321836D01*
X301642Y321930D01*
X301655Y322022D01*
X301672Y322115D01*
X301693Y322206D01*
X301717Y322297D01*
X301745Y322386D01*
X301776Y322475D01*
X301811Y322562D01*
X301850Y322647D01*
X301892Y322731D01*
X301937Y322813D01*
X301985Y322893D01*
X302037Y322971D01*
X302092Y323048D01*
X302150Y323121D01*
X302210Y323193D01*
X302274Y323262D01*
X302340Y323328D01*
X302409Y323392D01*
X302481Y323452D01*
X302554Y323510D01*
X302631Y323565D01*
X302709Y323617D01*
X302789Y323665D01*
X302871Y323710D01*
X302955Y323752D01*
X303041Y323791D01*
X303128Y323826D01*
X303216Y323857D01*
X303305Y323885D01*
X303396Y323909D01*
X303487Y323930D01*
X303580Y323947D01*
X303672Y323960D01*
X303766Y323969D01*
X303859Y323975D01*
X303953Y323977D01*
X307679Y323977D01*
X307773Y323975D01*
X307866Y323969D01*
X307960Y323960D01*
X308052Y323947D01*
X308145Y323930D01*
X308236Y323909D01*
X308327Y323885D01*
X308416Y323857D01*
X308505Y323826D01*
X308591Y323791D01*
X308677Y323752D01*
X308761Y323710D01*
X308843Y323665D01*
X308923Y323617D01*
X309001Y323565D01*
X309078Y323510D01*
X309151Y323452D01*
X309223Y323392D01*
X309292Y323328D01*
X309358Y323262D01*
X309422Y323193D01*
X309482Y323121D01*
X309540Y323048D01*
X309595Y322971D01*
X309647Y322893D01*
X309695Y322813D01*
X309740Y322731D01*
X309782Y322647D01*
X309821Y322561D01*
X309856Y322475D01*
X309887Y322386D01*
X309915Y322297D01*
X309939Y322206D01*
X309960Y322115D01*
X309977Y322022D01*
X309990Y321930D01*
X309999Y321836D01*
X310005Y321743D01*
X310007Y321649D01*
X310007Y319320D01*
X346117Y305079D02*
X346117Y299491D01*
X348911Y302285D02*
X343323Y302285D01*
X349377Y309711D02*
X349377Y312505D01*
X349375Y312589D01*
X349370Y312672D01*
X349360Y312755D01*
X349347Y312838D01*
X349330Y312920D01*
X349310Y313001D01*
X349286Y313081D01*
X349258Y313160D01*
X349227Y313237D01*
X349193Y313313D01*
X349155Y313388D01*
X349113Y313461D01*
X349069Y313531D01*
X349021Y313600D01*
X348971Y313667D01*
X348917Y313731D01*
X348861Y313792D01*
X348801Y313852D01*
X348740Y313908D01*
X348676Y313962D01*
X348609Y314012D01*
X348540Y314060D01*
X348470Y314104D01*
X348397Y314146D01*
X348322Y314184D01*
X348246Y314218D01*
X348169Y314249D01*
X348090Y314277D01*
X348010Y314301D01*
X347929Y314321D01*
X347847Y314338D01*
X347764Y314351D01*
X347681Y314361D01*
X347598Y314366D01*
X347514Y314368D01*
X347514Y314367D02*
X346583Y314367D01*
X346583Y314368D02*
X346497Y314366D01*
X346411Y314360D01*
X346326Y314350D01*
X346241Y314336D01*
X346156Y314319D01*
X346073Y314297D01*
X345991Y314271D01*
X345910Y314242D01*
X345831Y314209D01*
X345753Y314173D01*
X345676Y314133D01*
X345602Y314089D01*
X345530Y314042D01*
X345460Y313992D01*
X345393Y313938D01*
X345328Y313882D01*
X345266Y313822D01*
X345206Y313760D01*
X345150Y313695D01*
X345096Y313628D01*
X345046Y313558D01*
X344999Y313486D01*
X344955Y313412D01*
X344915Y313335D01*
X344879Y313258D01*
X344846Y313178D01*
X344817Y313097D01*
X344791Y313015D01*
X344769Y312932D01*
X344752Y312847D01*
X344738Y312762D01*
X344728Y312677D01*
X344722Y312591D01*
X344720Y312505D01*
X344720Y309711D01*
X340995Y309711D01*
X340995Y314367D01*
X340995Y318389D02*
X349377Y321183D01*
X340995Y323977D01*
X414570Y304470D02*
X414570Y303073D01*
X414570Y304470D02*
X419227Y304470D01*
X419227Y301676D01*
X419225Y301590D01*
X419219Y301504D01*
X419209Y301419D01*
X419195Y301334D01*
X419178Y301249D01*
X419156Y301166D01*
X419130Y301084D01*
X419101Y301003D01*
X419068Y300924D01*
X419032Y300846D01*
X418992Y300769D01*
X418948Y300695D01*
X418901Y300623D01*
X418851Y300553D01*
X418797Y300486D01*
X418741Y300421D01*
X418681Y300359D01*
X418619Y300299D01*
X418554Y300243D01*
X418487Y300189D01*
X418417Y300139D01*
X418345Y300092D01*
X418271Y300048D01*
X418194Y300008D01*
X418117Y299972D01*
X418037Y299939D01*
X417956Y299910D01*
X417874Y299884D01*
X417791Y299862D01*
X417706Y299845D01*
X417621Y299831D01*
X417536Y299821D01*
X417450Y299815D01*
X417364Y299813D01*
X412708Y299813D01*
X412622Y299815D01*
X412536Y299821D01*
X412451Y299831D01*
X412366Y299845D01*
X412281Y299862D01*
X412198Y299884D01*
X412116Y299910D01*
X412035Y299939D01*
X411956Y299972D01*
X411878Y300008D01*
X411801Y300048D01*
X411727Y300092D01*
X411655Y300139D01*
X411585Y300189D01*
X411518Y300243D01*
X411453Y300299D01*
X411391Y300359D01*
X411331Y300421D01*
X411275Y300486D01*
X411221Y300553D01*
X411171Y300623D01*
X411124Y300695D01*
X411080Y300769D01*
X411040Y300846D01*
X411004Y300923D01*
X410971Y301003D01*
X410942Y301084D01*
X410916Y301166D01*
X410894Y301249D01*
X410877Y301334D01*
X410863Y301419D01*
X410853Y301504D01*
X410847Y301590D01*
X410845Y301676D01*
X410845Y304470D01*
X410845Y309567D02*
X419227Y309567D01*
X419227Y314223D02*
X410845Y309567D01*
X410845Y314223D02*
X419227Y314223D01*
X419227Y319320D02*
X410845Y319320D01*
X410845Y321649D01*
X410847Y321743D01*
X410853Y321836D01*
X410862Y321930D01*
X410875Y322022D01*
X410892Y322115D01*
X410913Y322206D01*
X410937Y322297D01*
X410965Y322386D01*
X410996Y322475D01*
X411031Y322562D01*
X411070Y322647D01*
X411112Y322731D01*
X411157Y322813D01*
X411205Y322893D01*
X411257Y322971D01*
X411312Y323048D01*
X411370Y323121D01*
X411430Y323193D01*
X411494Y323262D01*
X411560Y323328D01*
X411629Y323392D01*
X411701Y323452D01*
X411774Y323510D01*
X411851Y323565D01*
X411929Y323617D01*
X412009Y323665D01*
X412091Y323710D01*
X412175Y323752D01*
X412261Y323791D01*
X412348Y323826D01*
X412436Y323857D01*
X412525Y323885D01*
X412616Y323909D01*
X412707Y323930D01*
X412800Y323947D01*
X412892Y323960D01*
X412986Y323969D01*
X413079Y323975D01*
X413173Y323977D01*
X416899Y323977D01*
X416993Y323975D01*
X417086Y323969D01*
X417180Y323960D01*
X417272Y323947D01*
X417365Y323930D01*
X417456Y323909D01*
X417547Y323885D01*
X417636Y323857D01*
X417725Y323826D01*
X417811Y323791D01*
X417897Y323752D01*
X417981Y323710D01*
X418063Y323665D01*
X418143Y323617D01*
X418221Y323565D01*
X418298Y323510D01*
X418371Y323452D01*
X418443Y323392D01*
X418512Y323328D01*
X418578Y323262D01*
X418642Y323193D01*
X418702Y323121D01*
X418760Y323048D01*
X418815Y322971D01*
X418867Y322893D01*
X418915Y322813D01*
X418960Y322731D01*
X419002Y322647D01*
X419041Y322561D01*
X419076Y322475D01*
X419107Y322386D01*
X419135Y322297D01*
X419159Y322206D01*
X419180Y322115D01*
X419197Y322022D01*
X419210Y321930D01*
X419219Y321836D01*
X419225Y321743D01*
X419227Y321649D01*
X419227Y319320D01*
X455337Y305079D02*
X455337Y299491D01*
X458131Y302285D02*
X452543Y302285D01*
X458597Y309711D02*
X458597Y312505D01*
X458595Y312589D01*
X458590Y312672D01*
X458580Y312755D01*
X458567Y312838D01*
X458550Y312920D01*
X458530Y313001D01*
X458506Y313081D01*
X458478Y313160D01*
X458447Y313237D01*
X458413Y313313D01*
X458375Y313388D01*
X458333Y313461D01*
X458289Y313531D01*
X458241Y313600D01*
X458191Y313667D01*
X458137Y313731D01*
X458081Y313792D01*
X458021Y313852D01*
X457960Y313908D01*
X457896Y313962D01*
X457829Y314012D01*
X457760Y314060D01*
X457690Y314104D01*
X457617Y314146D01*
X457542Y314184D01*
X457466Y314218D01*
X457389Y314249D01*
X457310Y314277D01*
X457230Y314301D01*
X457149Y314321D01*
X457067Y314338D01*
X456984Y314351D01*
X456901Y314361D01*
X456818Y314366D01*
X456734Y314368D01*
X456734Y314367D02*
X455803Y314367D01*
X455803Y314368D02*
X455717Y314366D01*
X455631Y314360D01*
X455546Y314350D01*
X455461Y314336D01*
X455376Y314319D01*
X455293Y314297D01*
X455211Y314271D01*
X455130Y314242D01*
X455051Y314209D01*
X454973Y314173D01*
X454896Y314133D01*
X454822Y314089D01*
X454750Y314042D01*
X454680Y313992D01*
X454613Y313938D01*
X454548Y313882D01*
X454486Y313822D01*
X454426Y313760D01*
X454370Y313695D01*
X454316Y313628D01*
X454266Y313558D01*
X454219Y313486D01*
X454175Y313412D01*
X454135Y313335D01*
X454099Y313258D01*
X454066Y313178D01*
X454037Y313097D01*
X454011Y313015D01*
X453989Y312932D01*
X453972Y312847D01*
X453958Y312762D01*
X453948Y312677D01*
X453942Y312591D01*
X453940Y312505D01*
X453940Y309711D01*
X450215Y309711D01*
X450215Y314367D01*
X450215Y318389D02*
X458597Y321183D01*
X450215Y323977D01*
X391710Y75904D02*
X391710Y74507D01*
X391710Y75904D02*
X396367Y75904D01*
X396367Y73110D01*
X396365Y73024D01*
X396359Y72938D01*
X396349Y72853D01*
X396335Y72768D01*
X396318Y72683D01*
X396296Y72600D01*
X396270Y72518D01*
X396241Y72437D01*
X396208Y72358D01*
X396172Y72280D01*
X396132Y72203D01*
X396088Y72129D01*
X396041Y72057D01*
X395991Y71987D01*
X395937Y71920D01*
X395881Y71855D01*
X395821Y71793D01*
X395759Y71733D01*
X395694Y71677D01*
X395627Y71623D01*
X395557Y71573D01*
X395485Y71526D01*
X395411Y71482D01*
X395334Y71442D01*
X395257Y71406D01*
X395177Y71373D01*
X395096Y71344D01*
X395014Y71318D01*
X394931Y71296D01*
X394846Y71279D01*
X394761Y71265D01*
X394676Y71255D01*
X394590Y71249D01*
X394504Y71247D01*
X389848Y71247D01*
X389762Y71249D01*
X389676Y71255D01*
X389591Y71265D01*
X389506Y71279D01*
X389421Y71296D01*
X389338Y71318D01*
X389256Y71344D01*
X389175Y71373D01*
X389096Y71406D01*
X389018Y71442D01*
X388941Y71482D01*
X388867Y71526D01*
X388795Y71573D01*
X388725Y71623D01*
X388658Y71677D01*
X388593Y71733D01*
X388531Y71793D01*
X388471Y71855D01*
X388415Y71920D01*
X388361Y71987D01*
X388311Y72057D01*
X388264Y72129D01*
X388220Y72203D01*
X388180Y72280D01*
X388144Y72357D01*
X388111Y72437D01*
X388082Y72518D01*
X388056Y72600D01*
X388034Y72683D01*
X388017Y72768D01*
X388003Y72853D01*
X387993Y72938D01*
X387987Y73024D01*
X387985Y73110D01*
X387985Y75904D01*
X387985Y81001D02*
X396367Y81001D01*
X396367Y85657D02*
X387985Y81001D01*
X387985Y85657D02*
X396367Y85657D01*
X396367Y90754D02*
X387985Y90754D01*
X387985Y93083D01*
X387987Y93177D01*
X387993Y93270D01*
X388002Y93364D01*
X388015Y93456D01*
X388032Y93549D01*
X388053Y93640D01*
X388077Y93731D01*
X388105Y93820D01*
X388136Y93909D01*
X388171Y93996D01*
X388210Y94081D01*
X388252Y94165D01*
X388297Y94247D01*
X388345Y94327D01*
X388397Y94405D01*
X388452Y94482D01*
X388510Y94555D01*
X388570Y94627D01*
X388634Y94696D01*
X388700Y94762D01*
X388769Y94826D01*
X388841Y94886D01*
X388914Y94944D01*
X388991Y94999D01*
X389069Y95051D01*
X389149Y95099D01*
X389231Y95144D01*
X389315Y95186D01*
X389401Y95225D01*
X389488Y95260D01*
X389576Y95291D01*
X389665Y95319D01*
X389756Y95343D01*
X389847Y95364D01*
X389940Y95381D01*
X390032Y95394D01*
X390126Y95403D01*
X390219Y95409D01*
X390313Y95411D01*
X394039Y95411D01*
X394133Y95409D01*
X394226Y95403D01*
X394320Y95394D01*
X394412Y95381D01*
X394505Y95364D01*
X394596Y95343D01*
X394687Y95319D01*
X394776Y95291D01*
X394865Y95260D01*
X394951Y95225D01*
X395037Y95186D01*
X395121Y95144D01*
X395203Y95099D01*
X395283Y95051D01*
X395361Y94999D01*
X395438Y94944D01*
X395511Y94886D01*
X395583Y94826D01*
X395652Y94762D01*
X395718Y94696D01*
X395782Y94627D01*
X395842Y94555D01*
X395900Y94482D01*
X395955Y94405D01*
X396007Y94327D01*
X396055Y94247D01*
X396100Y94165D01*
X396142Y94081D01*
X396181Y93995D01*
X396216Y93909D01*
X396247Y93820D01*
X396275Y93731D01*
X396299Y93640D01*
X396320Y93549D01*
X396337Y93456D01*
X396350Y93364D01*
X396359Y93270D01*
X396365Y93177D01*
X396367Y93083D01*
X396367Y90754D01*
X452289Y77089D02*
X452289Y71501D01*
X455083Y74295D02*
X449495Y74295D01*
X455549Y81720D02*
X455549Y84514D01*
X455547Y84598D01*
X455542Y84681D01*
X455532Y84764D01*
X455519Y84847D01*
X455502Y84929D01*
X455482Y85010D01*
X455458Y85090D01*
X455430Y85169D01*
X455399Y85246D01*
X455365Y85322D01*
X455327Y85397D01*
X455285Y85470D01*
X455241Y85540D01*
X455193Y85609D01*
X455143Y85676D01*
X455089Y85740D01*
X455033Y85801D01*
X454973Y85861D01*
X454912Y85917D01*
X454848Y85971D01*
X454781Y86021D01*
X454712Y86069D01*
X454642Y86113D01*
X454569Y86155D01*
X454494Y86193D01*
X454418Y86227D01*
X454341Y86258D01*
X454262Y86286D01*
X454182Y86310D01*
X454101Y86330D01*
X454019Y86347D01*
X453936Y86360D01*
X453853Y86370D01*
X453770Y86375D01*
X453686Y86377D01*
X452755Y86377D01*
X452669Y86375D01*
X452583Y86369D01*
X452498Y86359D01*
X452413Y86345D01*
X452328Y86328D01*
X452245Y86306D01*
X452163Y86280D01*
X452082Y86251D01*
X452003Y86218D01*
X451925Y86182D01*
X451848Y86142D01*
X451774Y86098D01*
X451702Y86051D01*
X451632Y86001D01*
X451565Y85947D01*
X451500Y85891D01*
X451438Y85831D01*
X451378Y85769D01*
X451322Y85704D01*
X451268Y85637D01*
X451218Y85567D01*
X451171Y85495D01*
X451127Y85421D01*
X451087Y85344D01*
X451051Y85267D01*
X451018Y85187D01*
X450989Y85106D01*
X450963Y85024D01*
X450941Y84941D01*
X450924Y84856D01*
X450910Y84771D01*
X450900Y84686D01*
X450894Y84600D01*
X450892Y84514D01*
X450892Y81720D01*
X447167Y81720D01*
X447167Y86377D01*
X447167Y90399D02*
X455549Y93193D01*
X447167Y95987D01*
X431080Y73321D02*
X431080Y70993D01*
X431081Y73321D02*
X431083Y73416D01*
X431089Y73511D01*
X431098Y73605D01*
X431112Y73699D01*
X431129Y73793D01*
X431150Y73885D01*
X431175Y73977D01*
X431204Y74067D01*
X431236Y74157D01*
X431272Y74245D01*
X431312Y74331D01*
X431354Y74416D01*
X431401Y74499D01*
X431451Y74580D01*
X431504Y74658D01*
X431560Y74735D01*
X431619Y74809D01*
X431681Y74881D01*
X431746Y74950D01*
X431814Y75017D01*
X431884Y75080D01*
X431958Y75141D01*
X432033Y75199D01*
X432111Y75253D01*
X432191Y75305D01*
X432273Y75353D01*
X432356Y75397D01*
X432442Y75439D01*
X432529Y75476D01*
X432618Y75510D01*
X432708Y75541D01*
X432799Y75568D01*
X432891Y75591D01*
X432984Y75610D01*
X433078Y75625D01*
X433172Y75637D01*
X433267Y75645D01*
X433362Y75649D01*
X433456Y75649D01*
X433551Y75645D01*
X433646Y75637D01*
X433740Y75625D01*
X433834Y75610D01*
X433927Y75591D01*
X434019Y75568D01*
X434110Y75541D01*
X434200Y75510D01*
X434289Y75476D01*
X434376Y75439D01*
X434462Y75397D01*
X434545Y75353D01*
X434627Y75305D01*
X434707Y75253D01*
X434785Y75199D01*
X434860Y75141D01*
X434934Y75080D01*
X435004Y75017D01*
X435072Y74950D01*
X435137Y74881D01*
X435199Y74809D01*
X435258Y74735D01*
X435314Y74658D01*
X435367Y74580D01*
X435417Y74499D01*
X435464Y74416D01*
X435506Y74331D01*
X435546Y74245D01*
X435582Y74157D01*
X435614Y74067D01*
X435643Y73977D01*
X435668Y73885D01*
X435689Y73793D01*
X435706Y73699D01*
X435720Y73605D01*
X435729Y73511D01*
X435735Y73416D01*
X435737Y73321D01*
X435737Y70993D01*
X427355Y70993D01*
X427355Y73321D01*
X427357Y73406D01*
X427363Y73490D01*
X427372Y73575D01*
X427386Y73658D01*
X427403Y73741D01*
X427424Y73824D01*
X427449Y73905D01*
X427477Y73985D01*
X427509Y74063D01*
X427545Y74140D01*
X427584Y74216D01*
X427626Y74289D01*
X427672Y74360D01*
X427721Y74430D01*
X427773Y74497D01*
X427828Y74561D01*
X427886Y74623D01*
X427946Y74683D01*
X428010Y74739D01*
X428075Y74793D01*
X428144Y74843D01*
X428214Y74890D01*
X428287Y74934D01*
X428361Y74975D01*
X428437Y75012D01*
X428515Y75046D01*
X428594Y75076D01*
X428675Y75103D01*
X428756Y75126D01*
X428839Y75145D01*
X428922Y75160D01*
X429006Y75172D01*
X429091Y75180D01*
X429176Y75184D01*
X429260Y75184D01*
X429345Y75180D01*
X429430Y75172D01*
X429514Y75160D01*
X429597Y75145D01*
X429680Y75126D01*
X429761Y75103D01*
X429842Y75076D01*
X429921Y75046D01*
X429999Y75012D01*
X430075Y74975D01*
X430150Y74934D01*
X430222Y74890D01*
X430292Y74843D01*
X430361Y74793D01*
X430426Y74739D01*
X430490Y74683D01*
X430550Y74623D01*
X430608Y74561D01*
X430663Y74497D01*
X430715Y74430D01*
X430764Y74360D01*
X430810Y74289D01*
X430852Y74216D01*
X430891Y74140D01*
X430927Y74063D01*
X430959Y73985D01*
X430987Y73905D01*
X431012Y73824D01*
X431033Y73741D01*
X431050Y73658D01*
X431064Y73575D01*
X431073Y73490D01*
X431079Y73406D01*
X431081Y73321D01*
X427355Y81335D02*
X435737Y81335D01*
X427355Y79007D02*
X427355Y83663D01*
X427355Y87846D02*
X435737Y87846D01*
X435737Y92503D02*
X427355Y87846D01*
X427355Y92503D02*
X435737Y92503D01*
X416941Y70993D02*
X408559Y70993D01*
X416941Y70993D02*
X416941Y74718D01*
X416941Y78918D02*
X416941Y82643D01*
X416941Y78918D02*
X408559Y78918D01*
X408559Y82643D01*
X412284Y81712D02*
X412284Y78918D01*
X408559Y86814D02*
X416941Y86814D01*
X408559Y86814D02*
X408559Y89142D01*
X408561Y89236D01*
X408567Y89329D01*
X408576Y89423D01*
X408589Y89515D01*
X408606Y89608D01*
X408627Y89699D01*
X408651Y89790D01*
X408679Y89879D01*
X408710Y89968D01*
X408745Y90055D01*
X408784Y90140D01*
X408826Y90224D01*
X408871Y90306D01*
X408919Y90386D01*
X408971Y90464D01*
X409026Y90541D01*
X409084Y90614D01*
X409144Y90686D01*
X409208Y90755D01*
X409274Y90821D01*
X409343Y90885D01*
X409415Y90945D01*
X409488Y91003D01*
X409565Y91058D01*
X409643Y91110D01*
X409723Y91158D01*
X409805Y91203D01*
X409889Y91245D01*
X409975Y91284D01*
X410062Y91319D01*
X410150Y91350D01*
X410239Y91378D01*
X410330Y91402D01*
X410421Y91423D01*
X410514Y91440D01*
X410606Y91453D01*
X410700Y91462D01*
X410793Y91468D01*
X410887Y91470D01*
X414613Y91470D01*
X414707Y91468D01*
X414800Y91462D01*
X414894Y91453D01*
X414986Y91440D01*
X415079Y91423D01*
X415170Y91402D01*
X415261Y91378D01*
X415350Y91350D01*
X415439Y91319D01*
X415525Y91284D01*
X415611Y91245D01*
X415695Y91203D01*
X415777Y91158D01*
X415857Y91110D01*
X415935Y91058D01*
X416012Y91003D01*
X416085Y90945D01*
X416157Y90885D01*
X416226Y90821D01*
X416292Y90755D01*
X416356Y90686D01*
X416416Y90614D01*
X416474Y90541D01*
X416529Y90464D01*
X416581Y90386D01*
X416629Y90306D01*
X416674Y90224D01*
X416716Y90140D01*
X416755Y90054D01*
X416790Y89968D01*
X416821Y89879D01*
X416849Y89790D01*
X416873Y89699D01*
X416894Y89608D01*
X416911Y89515D01*
X416924Y89423D01*
X416933Y89329D01*
X416939Y89236D01*
X416941Y89142D01*
X416941Y86814D01*
X413681Y96406D02*
X413681Y101994D01*
X416475Y99200D02*
X410887Y99200D01*
X326517Y71924D02*
X318135Y71924D01*
X326517Y70993D02*
X326517Y72856D01*
X318135Y72856D02*
X318135Y70993D01*
X318135Y77216D02*
X326517Y77216D01*
X326517Y81873D02*
X318135Y77216D01*
X318135Y81873D02*
X326517Y81873D01*
X304377Y70993D02*
X300651Y70993D01*
X300556Y70995D01*
X300461Y71001D01*
X300367Y71010D01*
X300273Y71024D01*
X300179Y71041D01*
X300087Y71062D01*
X299995Y71087D01*
X299905Y71116D01*
X299815Y71148D01*
X299727Y71184D01*
X299641Y71224D01*
X299556Y71266D01*
X299473Y71313D01*
X299392Y71363D01*
X299314Y71416D01*
X299237Y71472D01*
X299163Y71531D01*
X299091Y71593D01*
X299022Y71658D01*
X298955Y71726D01*
X298892Y71796D01*
X298831Y71870D01*
X298773Y71945D01*
X298719Y72023D01*
X298667Y72103D01*
X298619Y72185D01*
X298575Y72268D01*
X298533Y72354D01*
X298496Y72441D01*
X298462Y72530D01*
X298431Y72620D01*
X298404Y72711D01*
X298381Y72803D01*
X298362Y72896D01*
X298347Y72990D01*
X298335Y73084D01*
X298327Y73179D01*
X298323Y73274D01*
X298323Y73368D01*
X298327Y73463D01*
X298335Y73558D01*
X298347Y73652D01*
X298362Y73746D01*
X298381Y73839D01*
X298404Y73931D01*
X298431Y74022D01*
X298462Y74112D01*
X298496Y74201D01*
X298533Y74288D01*
X298575Y74374D01*
X298619Y74457D01*
X298667Y74539D01*
X298719Y74619D01*
X298773Y74697D01*
X298831Y74772D01*
X298892Y74846D01*
X298955Y74916D01*
X299022Y74984D01*
X299091Y75049D01*
X299163Y75111D01*
X299237Y75170D01*
X299314Y75226D01*
X299392Y75279D01*
X299473Y75329D01*
X299556Y75376D01*
X299641Y75418D01*
X299727Y75458D01*
X299815Y75494D01*
X299905Y75526D01*
X299995Y75555D01*
X300087Y75580D01*
X300179Y75601D01*
X300273Y75618D01*
X300367Y75632D01*
X300461Y75641D01*
X300556Y75647D01*
X300651Y75649D01*
X300651Y75650D02*
X304377Y75650D01*
X304377Y75649D02*
X304472Y75647D01*
X304567Y75641D01*
X304661Y75632D01*
X304755Y75618D01*
X304849Y75601D01*
X304941Y75580D01*
X305033Y75555D01*
X305123Y75526D01*
X305213Y75494D01*
X305301Y75458D01*
X305387Y75418D01*
X305472Y75376D01*
X305555Y75329D01*
X305636Y75279D01*
X305714Y75226D01*
X305791Y75170D01*
X305865Y75111D01*
X305937Y75049D01*
X306006Y74984D01*
X306073Y74916D01*
X306136Y74846D01*
X306197Y74772D01*
X306255Y74697D01*
X306309Y74619D01*
X306361Y74539D01*
X306409Y74457D01*
X306453Y74374D01*
X306495Y74288D01*
X306532Y74201D01*
X306566Y74112D01*
X306597Y74022D01*
X306624Y73931D01*
X306647Y73839D01*
X306666Y73746D01*
X306681Y73652D01*
X306693Y73558D01*
X306701Y73463D01*
X306705Y73368D01*
X306705Y73274D01*
X306701Y73179D01*
X306693Y73084D01*
X306681Y72990D01*
X306666Y72896D01*
X306647Y72803D01*
X306624Y72711D01*
X306597Y72620D01*
X306566Y72530D01*
X306532Y72441D01*
X306495Y72354D01*
X306453Y72268D01*
X306409Y72185D01*
X306361Y72103D01*
X306309Y72023D01*
X306255Y71945D01*
X306197Y71870D01*
X306136Y71796D01*
X306073Y71726D01*
X306006Y71658D01*
X305937Y71593D01*
X305865Y71531D01*
X305791Y71472D01*
X305714Y71416D01*
X305636Y71363D01*
X305555Y71313D01*
X305472Y71266D01*
X305387Y71224D01*
X305301Y71184D01*
X305213Y71148D01*
X305123Y71116D01*
X305033Y71087D01*
X304941Y71062D01*
X304849Y71041D01*
X304755Y71024D01*
X304661Y71010D01*
X304567Y71001D01*
X304472Y70995D01*
X304377Y70993D01*
X304377Y80442D02*
X298323Y80442D01*
X304377Y80442D02*
X304472Y80444D01*
X304567Y80450D01*
X304661Y80459D01*
X304755Y80473D01*
X304849Y80490D01*
X304941Y80511D01*
X305033Y80536D01*
X305123Y80565D01*
X305213Y80597D01*
X305301Y80633D01*
X305387Y80673D01*
X305472Y80715D01*
X305555Y80762D01*
X305636Y80812D01*
X305714Y80865D01*
X305791Y80921D01*
X305865Y80980D01*
X305937Y81042D01*
X306006Y81107D01*
X306073Y81175D01*
X306136Y81245D01*
X306197Y81319D01*
X306255Y81394D01*
X306309Y81472D01*
X306361Y81552D01*
X306409Y81634D01*
X306453Y81717D01*
X306495Y81803D01*
X306532Y81890D01*
X306566Y81979D01*
X306597Y82069D01*
X306624Y82160D01*
X306647Y82252D01*
X306666Y82345D01*
X306681Y82439D01*
X306693Y82533D01*
X306701Y82628D01*
X306705Y82723D01*
X306705Y82817D01*
X306701Y82912D01*
X306693Y83007D01*
X306681Y83101D01*
X306666Y83195D01*
X306647Y83288D01*
X306624Y83380D01*
X306597Y83471D01*
X306566Y83561D01*
X306532Y83650D01*
X306495Y83737D01*
X306453Y83823D01*
X306409Y83906D01*
X306361Y83988D01*
X306309Y84068D01*
X306255Y84146D01*
X306197Y84221D01*
X306136Y84295D01*
X306073Y84365D01*
X306006Y84433D01*
X305937Y84498D01*
X305865Y84560D01*
X305791Y84619D01*
X305714Y84675D01*
X305636Y84728D01*
X305555Y84778D01*
X305472Y84825D01*
X305387Y84867D01*
X305301Y84907D01*
X305213Y84943D01*
X305123Y84975D01*
X305033Y85004D01*
X304941Y85029D01*
X304849Y85050D01*
X304755Y85067D01*
X304661Y85081D01*
X304567Y85090D01*
X304472Y85096D01*
X304377Y85098D01*
X298323Y85098D01*
X298323Y91609D02*
X306705Y91609D01*
X298323Y89281D02*
X298323Y93938D01*
X237617Y70993D02*
X229235Y70993D01*
X229235Y73321D01*
X229237Y73415D01*
X229243Y73508D01*
X229252Y73602D01*
X229265Y73694D01*
X229282Y73787D01*
X229303Y73878D01*
X229327Y73969D01*
X229355Y74058D01*
X229386Y74147D01*
X229421Y74234D01*
X229460Y74319D01*
X229502Y74403D01*
X229547Y74485D01*
X229595Y74565D01*
X229647Y74643D01*
X229702Y74720D01*
X229760Y74793D01*
X229820Y74865D01*
X229884Y74934D01*
X229950Y75000D01*
X230019Y75064D01*
X230091Y75124D01*
X230164Y75182D01*
X230241Y75237D01*
X230319Y75289D01*
X230399Y75337D01*
X230481Y75382D01*
X230565Y75424D01*
X230651Y75463D01*
X230738Y75498D01*
X230826Y75529D01*
X230915Y75557D01*
X231006Y75581D01*
X231097Y75602D01*
X231190Y75619D01*
X231282Y75632D01*
X231376Y75641D01*
X231469Y75647D01*
X231563Y75649D01*
X231563Y75650D02*
X235289Y75650D01*
X235289Y75649D02*
X235383Y75647D01*
X235476Y75641D01*
X235570Y75632D01*
X235662Y75619D01*
X235755Y75602D01*
X235846Y75581D01*
X235937Y75557D01*
X236026Y75529D01*
X236115Y75498D01*
X236201Y75463D01*
X236287Y75424D01*
X236371Y75382D01*
X236453Y75337D01*
X236533Y75289D01*
X236611Y75237D01*
X236688Y75182D01*
X236761Y75124D01*
X236833Y75064D01*
X236902Y75000D01*
X236968Y74934D01*
X237032Y74865D01*
X237092Y74793D01*
X237150Y74720D01*
X237205Y74643D01*
X237257Y74565D01*
X237305Y74485D01*
X237350Y74403D01*
X237392Y74319D01*
X237431Y74233D01*
X237466Y74147D01*
X237497Y74058D01*
X237525Y73969D01*
X237549Y73878D01*
X237570Y73787D01*
X237587Y73694D01*
X237600Y73602D01*
X237609Y73508D01*
X237615Y73415D01*
X237617Y73321D01*
X237617Y70993D01*
X237617Y79976D02*
X229235Y82770D01*
X237617Y85564D01*
X235522Y84866D02*
X235522Y80675D01*
X237617Y91304D02*
X229235Y91304D01*
X229235Y88976D02*
X229235Y93633D01*
X229235Y99839D02*
X237617Y97045D01*
X237617Y102633D02*
X229235Y99839D01*
X235522Y101934D02*
X235522Y97743D01*
X217805Y74718D02*
X217805Y72856D01*
X217803Y72770D01*
X217797Y72684D01*
X217787Y72599D01*
X217773Y72514D01*
X217756Y72429D01*
X217734Y72346D01*
X217708Y72264D01*
X217679Y72183D01*
X217646Y72104D01*
X217610Y72026D01*
X217570Y71949D01*
X217526Y71875D01*
X217479Y71803D01*
X217429Y71733D01*
X217375Y71666D01*
X217319Y71601D01*
X217259Y71539D01*
X217197Y71479D01*
X217132Y71423D01*
X217065Y71369D01*
X216995Y71319D01*
X216923Y71272D01*
X216849Y71228D01*
X216772Y71188D01*
X216695Y71152D01*
X216615Y71119D01*
X216534Y71090D01*
X216452Y71064D01*
X216369Y71042D01*
X216284Y71025D01*
X216199Y71011D01*
X216114Y71001D01*
X216028Y70995D01*
X215942Y70993D01*
X211286Y70993D01*
X211200Y70995D01*
X211114Y71001D01*
X211029Y71011D01*
X210944Y71025D01*
X210859Y71042D01*
X210776Y71064D01*
X210694Y71090D01*
X210613Y71119D01*
X210534Y71152D01*
X210456Y71188D01*
X210379Y71228D01*
X210305Y71272D01*
X210233Y71319D01*
X210163Y71369D01*
X210096Y71423D01*
X210031Y71479D01*
X209969Y71539D01*
X209909Y71601D01*
X209853Y71666D01*
X209799Y71733D01*
X209749Y71803D01*
X209702Y71875D01*
X209658Y71949D01*
X209618Y72026D01*
X209582Y72103D01*
X209549Y72183D01*
X209520Y72264D01*
X209494Y72346D01*
X209472Y72429D01*
X209455Y72514D01*
X209441Y72599D01*
X209431Y72684D01*
X209425Y72770D01*
X209423Y72856D01*
X209423Y74718D01*
X209423Y78989D02*
X217805Y78989D01*
X217805Y82714D01*
X217805Y87101D02*
X209423Y87101D01*
X209423Y91757D02*
X214545Y87101D01*
X212683Y88963D02*
X217805Y91757D01*
X148717Y74718D02*
X148717Y72856D01*
X148715Y72770D01*
X148709Y72684D01*
X148699Y72599D01*
X148685Y72514D01*
X148668Y72429D01*
X148646Y72346D01*
X148620Y72264D01*
X148591Y72183D01*
X148558Y72104D01*
X148522Y72026D01*
X148482Y71949D01*
X148438Y71875D01*
X148391Y71803D01*
X148341Y71733D01*
X148287Y71666D01*
X148231Y71601D01*
X148171Y71539D01*
X148109Y71479D01*
X148044Y71423D01*
X147977Y71369D01*
X147907Y71319D01*
X147835Y71272D01*
X147761Y71228D01*
X147684Y71188D01*
X147607Y71152D01*
X147527Y71119D01*
X147446Y71090D01*
X147364Y71064D01*
X147281Y71042D01*
X147196Y71025D01*
X147111Y71011D01*
X147026Y71001D01*
X146940Y70995D01*
X146854Y70993D01*
X142198Y70993D01*
X142112Y70995D01*
X142026Y71001D01*
X141941Y71011D01*
X141856Y71025D01*
X141771Y71042D01*
X141688Y71064D01*
X141606Y71090D01*
X141525Y71119D01*
X141446Y71152D01*
X141368Y71188D01*
X141291Y71228D01*
X141217Y71272D01*
X141145Y71319D01*
X141075Y71369D01*
X141008Y71423D01*
X140943Y71479D01*
X140881Y71539D01*
X140821Y71601D01*
X140765Y71666D01*
X140711Y71733D01*
X140661Y71803D01*
X140614Y71875D01*
X140570Y71949D01*
X140530Y72026D01*
X140494Y72103D01*
X140461Y72183D01*
X140432Y72264D01*
X140406Y72346D01*
X140384Y72429D01*
X140367Y72514D01*
X140353Y72599D01*
X140343Y72684D01*
X140337Y72770D01*
X140335Y72856D01*
X140335Y74718D01*
X140335Y78989D02*
X148717Y78989D01*
X148717Y82714D01*
X148717Y87101D02*
X140335Y87101D01*
X140335Y91757D02*
X145457Y87101D01*
X143595Y88963D02*
X148717Y91757D01*
X128905Y70993D02*
X120523Y70993D01*
X120523Y73321D01*
X120525Y73415D01*
X120531Y73508D01*
X120540Y73602D01*
X120553Y73694D01*
X120570Y73787D01*
X120591Y73878D01*
X120615Y73969D01*
X120643Y74058D01*
X120674Y74147D01*
X120709Y74234D01*
X120748Y74319D01*
X120790Y74403D01*
X120835Y74485D01*
X120883Y74565D01*
X120935Y74643D01*
X120990Y74720D01*
X121048Y74793D01*
X121108Y74865D01*
X121172Y74934D01*
X121238Y75000D01*
X121307Y75064D01*
X121379Y75124D01*
X121452Y75182D01*
X121529Y75237D01*
X121607Y75289D01*
X121687Y75337D01*
X121769Y75382D01*
X121853Y75424D01*
X121939Y75463D01*
X122026Y75498D01*
X122114Y75529D01*
X122203Y75557D01*
X122294Y75581D01*
X122385Y75602D01*
X122478Y75619D01*
X122570Y75632D01*
X122664Y75641D01*
X122757Y75647D01*
X122851Y75649D01*
X122851Y75650D02*
X126577Y75650D01*
X126577Y75649D02*
X126671Y75647D01*
X126764Y75641D01*
X126858Y75632D01*
X126950Y75619D01*
X127043Y75602D01*
X127134Y75581D01*
X127225Y75557D01*
X127314Y75529D01*
X127403Y75498D01*
X127489Y75463D01*
X127575Y75424D01*
X127659Y75382D01*
X127741Y75337D01*
X127821Y75289D01*
X127899Y75237D01*
X127976Y75182D01*
X128049Y75124D01*
X128121Y75064D01*
X128190Y75000D01*
X128256Y74934D01*
X128320Y74865D01*
X128380Y74793D01*
X128438Y74720D01*
X128493Y74643D01*
X128545Y74565D01*
X128593Y74485D01*
X128638Y74403D01*
X128680Y74319D01*
X128719Y74233D01*
X128754Y74147D01*
X128785Y74058D01*
X128813Y73969D01*
X128837Y73878D01*
X128858Y73787D01*
X128875Y73694D01*
X128888Y73602D01*
X128897Y73508D01*
X128903Y73415D01*
X128905Y73321D01*
X128905Y70993D01*
X128905Y79976D02*
X120523Y82770D01*
X128905Y85564D01*
X126810Y84866D02*
X126810Y80675D01*
X128905Y91304D02*
X120523Y91304D01*
X120523Y88976D02*
X120523Y93633D01*
X120523Y99839D02*
X128905Y97045D01*
X128905Y102633D02*
X120523Y99839D01*
X126810Y101934D02*
X126810Y97743D01*
D11*
X575183Y26797D02*
X575183Y16383D01*
X575183Y26797D02*
X578076Y26797D01*
X578183Y26795D01*
X578290Y26789D01*
X578396Y26779D01*
X578502Y26765D01*
X578608Y26748D01*
X578712Y26726D01*
X578816Y26701D01*
X578919Y26671D01*
X579021Y26638D01*
X579121Y26602D01*
X579220Y26561D01*
X579317Y26517D01*
X579413Y26469D01*
X579507Y26418D01*
X579599Y26364D01*
X579689Y26306D01*
X579776Y26244D01*
X579862Y26180D01*
X579945Y26113D01*
X580025Y26042D01*
X580103Y25968D01*
X580178Y25892D01*
X580250Y25813D01*
X580319Y25732D01*
X580385Y25647D01*
X580448Y25561D01*
X580507Y25472D01*
X580563Y25381D01*
X580616Y25288D01*
X580666Y25194D01*
X580712Y25097D01*
X580754Y24999D01*
X580792Y24899D01*
X580827Y24798D01*
X580859Y24696D01*
X580886Y24592D01*
X580909Y24488D01*
X580929Y24383D01*
X580945Y24277D01*
X580957Y24171D01*
X580965Y24064D01*
X580969Y23957D01*
X580969Y23851D01*
X580965Y23744D01*
X580957Y23637D01*
X580945Y23531D01*
X580929Y23425D01*
X580909Y23320D01*
X580886Y23216D01*
X580859Y23112D01*
X580827Y23010D01*
X580792Y22909D01*
X580754Y22809D01*
X580712Y22711D01*
X580666Y22614D01*
X580616Y22520D01*
X580563Y22427D01*
X580507Y22336D01*
X580448Y22247D01*
X580385Y22161D01*
X580319Y22076D01*
X580250Y21995D01*
X580178Y21916D01*
X580103Y21840D01*
X580025Y21766D01*
X579945Y21695D01*
X579862Y21628D01*
X579776Y21564D01*
X579689Y21502D01*
X579599Y21444D01*
X579507Y21390D01*
X579413Y21339D01*
X579317Y21291D01*
X579220Y21247D01*
X579121Y21206D01*
X579021Y21170D01*
X578919Y21137D01*
X578816Y21107D01*
X578712Y21082D01*
X578608Y21060D01*
X578502Y21043D01*
X578396Y21029D01*
X578290Y21019D01*
X578183Y21013D01*
X578076Y21011D01*
X575183Y21011D01*
X578654Y21011D02*
X580969Y16383D01*
X588046Y16383D02*
X590938Y16383D01*
X588046Y16383D02*
X587963Y16385D01*
X587881Y16391D01*
X587799Y16401D01*
X587717Y16414D01*
X587637Y16432D01*
X587557Y16453D01*
X587478Y16478D01*
X587401Y16507D01*
X587325Y16540D01*
X587251Y16576D01*
X587178Y16616D01*
X587107Y16659D01*
X587039Y16705D01*
X586973Y16754D01*
X586909Y16807D01*
X586848Y16863D01*
X586790Y16921D01*
X586734Y16982D01*
X586681Y17046D01*
X586632Y17112D01*
X586586Y17180D01*
X586543Y17251D01*
X586503Y17324D01*
X586467Y17398D01*
X586434Y17474D01*
X586405Y17551D01*
X586380Y17630D01*
X586359Y17710D01*
X586341Y17790D01*
X586328Y17872D01*
X586318Y17954D01*
X586312Y18036D01*
X586310Y18119D01*
X586310Y21011D01*
X586312Y21105D01*
X586318Y21200D01*
X586327Y21294D01*
X586341Y21387D01*
X586358Y21480D01*
X586379Y21572D01*
X586404Y21663D01*
X586432Y21753D01*
X586464Y21842D01*
X586500Y21929D01*
X586539Y22015D01*
X586582Y22099D01*
X586628Y22182D01*
X586677Y22262D01*
X586730Y22340D01*
X586786Y22417D01*
X586845Y22490D01*
X586906Y22562D01*
X586971Y22630D01*
X587039Y22697D01*
X587109Y22760D01*
X587181Y22820D01*
X587256Y22878D01*
X587334Y22932D01*
X587413Y22983D01*
X587494Y23031D01*
X587578Y23075D01*
X587663Y23116D01*
X587749Y23153D01*
X587837Y23187D01*
X587927Y23218D01*
X588017Y23244D01*
X588109Y23267D01*
X588202Y23286D01*
X588295Y23301D01*
X588388Y23313D01*
X588482Y23321D01*
X588577Y23325D01*
X588671Y23325D01*
X588766Y23321D01*
X588860Y23313D01*
X588953Y23301D01*
X589046Y23286D01*
X589139Y23267D01*
X589231Y23244D01*
X589321Y23218D01*
X589411Y23187D01*
X589499Y23153D01*
X589585Y23116D01*
X589670Y23075D01*
X589754Y23031D01*
X589835Y22983D01*
X589914Y22932D01*
X589992Y22878D01*
X590067Y22820D01*
X590139Y22760D01*
X590209Y22697D01*
X590277Y22630D01*
X590342Y22562D01*
X590403Y22490D01*
X590462Y22417D01*
X590518Y22340D01*
X590571Y22262D01*
X590620Y22182D01*
X590666Y22099D01*
X590709Y22015D01*
X590748Y21929D01*
X590784Y21842D01*
X590816Y21753D01*
X590844Y21663D01*
X590869Y21572D01*
X590890Y21480D01*
X590907Y21387D01*
X590921Y21294D01*
X590930Y21200D01*
X590936Y21105D01*
X590938Y21011D01*
X590938Y19854D01*
X586310Y19854D01*
X595835Y23326D02*
X598149Y16383D01*
X600463Y23326D01*
X604718Y16962D02*
X604718Y16383D01*
X604718Y16962D02*
X605296Y16962D01*
X605296Y16383D01*
X604718Y16383D01*
X619393Y26798D02*
X619493Y26796D01*
X619592Y26790D01*
X619692Y26781D01*
X619790Y26767D01*
X619889Y26750D01*
X619986Y26730D01*
X620083Y26705D01*
X620179Y26677D01*
X620273Y26645D01*
X620366Y26609D01*
X620458Y26570D01*
X620548Y26528D01*
X620637Y26482D01*
X620724Y26432D01*
X620808Y26380D01*
X620891Y26324D01*
X620972Y26265D01*
X621050Y26203D01*
X621126Y26138D01*
X621199Y26070D01*
X621269Y26000D01*
X621337Y25927D01*
X621402Y25851D01*
X621464Y25773D01*
X621523Y25692D01*
X621579Y25609D01*
X621631Y25525D01*
X621681Y25438D01*
X621727Y25349D01*
X621769Y25259D01*
X621808Y25167D01*
X621844Y25074D01*
X621876Y24980D01*
X621904Y24884D01*
X621929Y24787D01*
X621949Y24690D01*
X621966Y24591D01*
X621980Y24493D01*
X621989Y24393D01*
X621995Y24294D01*
X621997Y24194D01*
X619393Y26797D02*
X619279Y26795D01*
X619166Y26789D01*
X619053Y26780D01*
X618940Y26766D01*
X618827Y26749D01*
X618716Y26728D01*
X618605Y26703D01*
X618495Y26674D01*
X618386Y26642D01*
X618278Y26606D01*
X618171Y26566D01*
X618066Y26523D01*
X617963Y26476D01*
X617861Y26425D01*
X617761Y26372D01*
X617662Y26314D01*
X617566Y26254D01*
X617472Y26190D01*
X617380Y26123D01*
X617290Y26053D01*
X617203Y25980D01*
X617118Y25905D01*
X617036Y25826D01*
X616957Y25744D01*
X616881Y25660D01*
X616807Y25574D01*
X616736Y25485D01*
X616669Y25393D01*
X616604Y25299D01*
X616543Y25204D01*
X616485Y25106D01*
X616431Y25006D01*
X616380Y24904D01*
X616332Y24801D01*
X616288Y24696D01*
X616248Y24590D01*
X616211Y24483D01*
X621129Y22169D02*
X621202Y22241D01*
X621273Y22316D01*
X621340Y22394D01*
X621405Y22474D01*
X621467Y22556D01*
X621526Y22640D01*
X621581Y22727D01*
X621634Y22816D01*
X621683Y22906D01*
X621729Y22998D01*
X621771Y23092D01*
X621810Y23188D01*
X621845Y23284D01*
X621877Y23382D01*
X621905Y23481D01*
X621929Y23581D01*
X621950Y23682D01*
X621967Y23784D01*
X621980Y23886D01*
X621989Y23988D01*
X621995Y24091D01*
X621997Y24194D01*
X621129Y22169D02*
X616211Y16383D01*
X621997Y16383D01*
D12*
X349750Y257000D02*
X349748Y256842D01*
X349742Y256683D01*
X349732Y256525D01*
X349718Y256368D01*
X349701Y256210D01*
X349679Y256054D01*
X349654Y255897D01*
X349624Y255742D01*
X349591Y255587D01*
X349554Y255433D01*
X349513Y255280D01*
X349468Y255128D01*
X349419Y254978D01*
X349367Y254828D01*
X349311Y254680D01*
X349251Y254533D01*
X349188Y254388D01*
X349121Y254245D01*
X349051Y254103D01*
X348977Y253963D01*
X348899Y253825D01*
X348818Y253689D01*
X348734Y253555D01*
X348647Y253423D01*
X348556Y253293D01*
X348462Y253166D01*
X348365Y253041D01*
X348264Y252918D01*
X348161Y252798D01*
X348055Y252681D01*
X347946Y252566D01*
X347834Y252454D01*
X347719Y252345D01*
X347602Y252239D01*
X347482Y252136D01*
X347359Y252035D01*
X347234Y251938D01*
X347107Y251844D01*
X346977Y251753D01*
X346845Y251666D01*
X346711Y251582D01*
X346575Y251501D01*
X346437Y251423D01*
X346297Y251349D01*
X346155Y251279D01*
X346012Y251212D01*
X345867Y251149D01*
X345720Y251089D01*
X345572Y251033D01*
X345422Y250981D01*
X345272Y250932D01*
X345120Y250887D01*
X344967Y250846D01*
X344813Y250809D01*
X344658Y250776D01*
X344503Y250746D01*
X344346Y250721D01*
X344190Y250699D01*
X344032Y250682D01*
X343875Y250668D01*
X343717Y250658D01*
X343558Y250652D01*
X343400Y250650D01*
X343242Y250652D01*
X343083Y250658D01*
X342925Y250668D01*
X342768Y250682D01*
X342610Y250699D01*
X342454Y250721D01*
X342297Y250746D01*
X342142Y250776D01*
X341987Y250809D01*
X341833Y250846D01*
X341680Y250887D01*
X341528Y250932D01*
X341378Y250981D01*
X341228Y251033D01*
X341080Y251089D01*
X340933Y251149D01*
X340788Y251212D01*
X340645Y251279D01*
X340503Y251349D01*
X340363Y251423D01*
X340225Y251501D01*
X340089Y251582D01*
X339955Y251666D01*
X339823Y251753D01*
X339693Y251844D01*
X339566Y251938D01*
X339441Y252035D01*
X339318Y252136D01*
X339198Y252239D01*
X339081Y252345D01*
X338966Y252454D01*
X338854Y252566D01*
X338745Y252681D01*
X338639Y252798D01*
X338536Y252918D01*
X338435Y253041D01*
X338338Y253166D01*
X338244Y253293D01*
X338153Y253423D01*
X338066Y253555D01*
X337982Y253689D01*
X337901Y253825D01*
X337823Y253963D01*
X337749Y254103D01*
X337679Y254245D01*
X337612Y254388D01*
X337549Y254533D01*
X337489Y254680D01*
X337433Y254828D01*
X337381Y254978D01*
X337332Y255128D01*
X337287Y255280D01*
X337246Y255433D01*
X337209Y255587D01*
X337176Y255742D01*
X337146Y255897D01*
X337121Y256054D01*
X337099Y256210D01*
X337082Y256368D01*
X337068Y256525D01*
X337058Y256683D01*
X337052Y256842D01*
X337050Y257000D01*
X315460Y257000D01*
X315460Y155400D01*
X371340Y155400D01*
X371340Y257000D01*
X349750Y257000D01*
D13*
X114200Y237200D02*
X114200Y175200D01*
X114200Y237200D02*
X166200Y237200D01*
X166200Y175200D01*
X114200Y175200D01*
D14*
X158200Y183200D03*
D15*
X187280Y331220D02*
X103280Y331220D01*
X103280Y421220D01*
X187280Y421220D01*
X187280Y331220D01*
D16*
X145780Y335720D03*
D15*
X281080Y331220D02*
X365080Y331220D01*
X281080Y331220D02*
X281080Y421220D01*
X365080Y421220D01*
X365080Y331220D01*
D16*
X323580Y335720D03*
D13*
X370640Y63910D02*
X473640Y63910D01*
X473640Y14910D01*
X370640Y14910D01*
X370640Y63910D01*
X344420Y63910D02*
X281420Y63910D01*
X344420Y63910D02*
X344420Y14910D01*
X281420Y14910D01*
X281420Y63910D01*
X255520Y63910D02*
X192520Y63910D01*
X255520Y63910D02*
X255520Y14910D01*
X192520Y14910D01*
X192520Y63910D01*
X166620Y63910D02*
X103620Y63910D01*
X166620Y63910D02*
X166620Y14910D01*
X103620Y14910D01*
X103620Y63910D01*
D15*
X392840Y331220D02*
X476840Y331220D01*
X392840Y331220D02*
X392840Y421220D01*
X476840Y421220D01*
X476840Y331220D01*
D16*
X435340Y335720D03*
D12*
X513580Y169370D02*
X542790Y168100D01*
X513580Y169370D02*
X511040Y171910D01*
X511040Y265890D01*
X513580Y268430D01*
X542790Y269700D01*
X514596Y263858D02*
X514598Y263958D01*
X514604Y264059D01*
X514614Y264158D01*
X514628Y264258D01*
X514645Y264357D01*
X514667Y264455D01*
X514693Y264552D01*
X514722Y264648D01*
X514755Y264742D01*
X514792Y264836D01*
X514832Y264928D01*
X514876Y265018D01*
X514924Y265106D01*
X514975Y265193D01*
X515029Y265277D01*
X515087Y265359D01*
X515148Y265439D01*
X515212Y265516D01*
X515279Y265591D01*
X515349Y265663D01*
X515422Y265732D01*
X515497Y265798D01*
X515575Y265862D01*
X515655Y265922D01*
X515738Y265979D01*
X515823Y266032D01*
X515910Y266082D01*
X515999Y266129D01*
X516089Y266172D01*
X516181Y266212D01*
X516275Y266248D01*
X516370Y266280D01*
X516466Y266308D01*
X516564Y266333D01*
X516662Y266353D01*
X516761Y266370D01*
X516861Y266383D01*
X516960Y266392D01*
X517061Y266397D01*
X517161Y266398D01*
X517261Y266395D01*
X517362Y266388D01*
X517461Y266377D01*
X517561Y266362D01*
X517659Y266344D01*
X517757Y266321D01*
X517854Y266294D01*
X517949Y266264D01*
X518044Y266230D01*
X518137Y266192D01*
X518228Y266151D01*
X518318Y266106D01*
X518406Y266058D01*
X518492Y266006D01*
X518576Y265951D01*
X518657Y265892D01*
X518736Y265830D01*
X518813Y265766D01*
X518887Y265698D01*
X518958Y265627D01*
X519027Y265554D01*
X519092Y265478D01*
X519155Y265399D01*
X519214Y265318D01*
X519270Y265235D01*
X519323Y265150D01*
X519372Y265062D01*
X519418Y264973D01*
X519460Y264882D01*
X519499Y264789D01*
X519534Y264695D01*
X519565Y264600D01*
X519593Y264503D01*
X519616Y264406D01*
X519636Y264307D01*
X519652Y264208D01*
X519664Y264109D01*
X519672Y264008D01*
X519676Y263908D01*
X519676Y263808D01*
X519672Y263708D01*
X519664Y263607D01*
X519652Y263508D01*
X519636Y263409D01*
X519616Y263310D01*
X519593Y263213D01*
X519565Y263116D01*
X519534Y263021D01*
X519499Y262927D01*
X519460Y262834D01*
X519418Y262743D01*
X519372Y262654D01*
X519323Y262566D01*
X519270Y262481D01*
X519214Y262398D01*
X519155Y262317D01*
X519092Y262238D01*
X519027Y262162D01*
X518958Y262089D01*
X518887Y262018D01*
X518813Y261950D01*
X518736Y261886D01*
X518657Y261824D01*
X518576Y261765D01*
X518492Y261710D01*
X518406Y261658D01*
X518318Y261610D01*
X518228Y261565D01*
X518137Y261524D01*
X518044Y261486D01*
X517949Y261452D01*
X517854Y261422D01*
X517757Y261395D01*
X517659Y261372D01*
X517561Y261354D01*
X517461Y261339D01*
X517362Y261328D01*
X517261Y261321D01*
X517161Y261318D01*
X517061Y261319D01*
X516960Y261324D01*
X516861Y261333D01*
X516761Y261346D01*
X516662Y261363D01*
X516564Y261383D01*
X516466Y261408D01*
X516370Y261436D01*
X516275Y261468D01*
X516181Y261504D01*
X516089Y261544D01*
X515999Y261587D01*
X515910Y261634D01*
X515823Y261684D01*
X515738Y261737D01*
X515655Y261794D01*
X515575Y261854D01*
X515497Y261918D01*
X515422Y261984D01*
X515349Y262053D01*
X515279Y262125D01*
X515212Y262200D01*
X515148Y262277D01*
X515087Y262357D01*
X515029Y262439D01*
X514975Y262523D01*
X514924Y262610D01*
X514876Y262698D01*
X514832Y262788D01*
X514792Y262880D01*
X514755Y262974D01*
X514722Y263068D01*
X514693Y263164D01*
X514667Y263261D01*
X514645Y263359D01*
X514628Y263458D01*
X514614Y263558D01*
X514604Y263657D01*
X514598Y263758D01*
X514596Y263858D01*
D17*
X550410Y218900D03*
D18*
X544060Y262715D03*
D19*
X544060Y231600D03*
X544060Y206200D03*
D18*
X544060Y175085D03*
D12*
X5710Y396000D02*
X5720Y396842D01*
X5751Y397683D01*
X5803Y398523D01*
X5875Y399361D01*
X5968Y400197D01*
X6081Y401031D01*
X6215Y401862D01*
X6369Y402690D01*
X6543Y403513D01*
X6738Y404332D01*
X6952Y405146D01*
X7187Y405954D01*
X7441Y406756D01*
X7714Y407552D01*
X8008Y408341D01*
X8320Y409122D01*
X8652Y409896D01*
X9002Y410661D01*
X9371Y411417D01*
X9759Y412164D01*
X10165Y412901D01*
X10588Y413629D01*
X11030Y414345D01*
X11489Y415051D01*
X11965Y415744D01*
X12458Y416427D01*
X12968Y417096D01*
X13493Y417753D01*
X14035Y418397D01*
X14593Y419028D01*
X15166Y419644D01*
X15753Y420247D01*
X16356Y420834D01*
X16972Y421407D01*
X17603Y421965D01*
X18247Y422507D01*
X18904Y423032D01*
X19573Y423542D01*
X20256Y424035D01*
X20949Y424511D01*
X21655Y424970D01*
X22371Y425412D01*
X23099Y425835D01*
X23836Y426241D01*
X24583Y426629D01*
X25339Y426998D01*
X26104Y427348D01*
X26878Y427680D01*
X27659Y427992D01*
X28448Y428286D01*
X29244Y428559D01*
X30046Y428813D01*
X30854Y429048D01*
X31668Y429262D01*
X32487Y429457D01*
X33310Y429631D01*
X34138Y429785D01*
X34969Y429919D01*
X35803Y430032D01*
X36639Y430125D01*
X37477Y430197D01*
X38317Y430249D01*
X39158Y430280D01*
X40000Y430290D01*
X40842Y430280D01*
X41683Y430249D01*
X42523Y430197D01*
X43361Y430125D01*
X44197Y430032D01*
X45031Y429919D01*
X45862Y429785D01*
X46690Y429631D01*
X47513Y429457D01*
X48332Y429262D01*
X49146Y429048D01*
X49954Y428813D01*
X50756Y428559D01*
X51552Y428286D01*
X52341Y427992D01*
X53122Y427680D01*
X53896Y427348D01*
X54661Y426998D01*
X55417Y426629D01*
X56164Y426241D01*
X56901Y425835D01*
X57629Y425412D01*
X58345Y424970D01*
X59051Y424511D01*
X59744Y424035D01*
X60427Y423542D01*
X61096Y423032D01*
X61753Y422507D01*
X62397Y421965D01*
X63028Y421407D01*
X63644Y420834D01*
X64247Y420247D01*
X64834Y419644D01*
X65407Y419028D01*
X65965Y418397D01*
X66507Y417753D01*
X67032Y417096D01*
X67542Y416427D01*
X68035Y415744D01*
X68511Y415051D01*
X68970Y414345D01*
X69412Y413629D01*
X69835Y412901D01*
X70241Y412164D01*
X70629Y411417D01*
X70998Y410661D01*
X71348Y409896D01*
X71680Y409122D01*
X71992Y408341D01*
X72286Y407552D01*
X72559Y406756D01*
X72813Y405954D01*
X73048Y405146D01*
X73262Y404332D01*
X73457Y403513D01*
X73631Y402690D01*
X73785Y401862D01*
X73919Y401031D01*
X74032Y400197D01*
X74125Y399361D01*
X74197Y398523D01*
X74249Y397683D01*
X74280Y396842D01*
X74290Y396000D01*
X74280Y395158D01*
X74249Y394317D01*
X74197Y393477D01*
X74125Y392639D01*
X74032Y391803D01*
X73919Y390969D01*
X73785Y390138D01*
X73631Y389310D01*
X73457Y388487D01*
X73262Y387668D01*
X73048Y386854D01*
X72813Y386046D01*
X72559Y385244D01*
X72286Y384448D01*
X71992Y383659D01*
X71680Y382878D01*
X71348Y382104D01*
X70998Y381339D01*
X70629Y380583D01*
X70241Y379836D01*
X69835Y379099D01*
X69412Y378371D01*
X68970Y377655D01*
X68511Y376949D01*
X68035Y376256D01*
X67542Y375573D01*
X67032Y374904D01*
X66507Y374247D01*
X65965Y373603D01*
X65407Y372972D01*
X64834Y372356D01*
X64247Y371753D01*
X63644Y371166D01*
X63028Y370593D01*
X62397Y370035D01*
X61753Y369493D01*
X61096Y368968D01*
X60427Y368458D01*
X59744Y367965D01*
X59051Y367489D01*
X58345Y367030D01*
X57629Y366588D01*
X56901Y366165D01*
X56164Y365759D01*
X55417Y365371D01*
X54661Y365002D01*
X53896Y364652D01*
X53122Y364320D01*
X52341Y364008D01*
X51552Y363714D01*
X50756Y363441D01*
X49954Y363187D01*
X49146Y362952D01*
X48332Y362738D01*
X47513Y362543D01*
X46690Y362369D01*
X45862Y362215D01*
X45031Y362081D01*
X44197Y361968D01*
X43361Y361875D01*
X42523Y361803D01*
X41683Y361751D01*
X40842Y361720D01*
X40000Y361710D01*
X39158Y361720D01*
X38317Y361751D01*
X37477Y361803D01*
X36639Y361875D01*
X35803Y361968D01*
X34969Y362081D01*
X34138Y362215D01*
X33310Y362369D01*
X32487Y362543D01*
X31668Y362738D01*
X30854Y362952D01*
X30046Y363187D01*
X29244Y363441D01*
X28448Y363714D01*
X27659Y364008D01*
X26878Y364320D01*
X26104Y364652D01*
X25339Y365002D01*
X24583Y365371D01*
X23836Y365759D01*
X23099Y366165D01*
X22371Y366588D01*
X21655Y367030D01*
X20949Y367489D01*
X20256Y367965D01*
X19573Y368458D01*
X18904Y368968D01*
X18247Y369493D01*
X17603Y370035D01*
X16972Y370593D01*
X16356Y371166D01*
X15753Y371753D01*
X15166Y372356D01*
X14593Y372972D01*
X14035Y373603D01*
X13493Y374247D01*
X12968Y374904D01*
X12458Y375573D01*
X11965Y376256D01*
X11489Y376949D01*
X11030Y377655D01*
X10588Y378371D01*
X10165Y379099D01*
X9759Y379836D01*
X9371Y380583D01*
X9002Y381339D01*
X8652Y382104D01*
X8320Y382878D01*
X8008Y383659D01*
X7714Y384448D01*
X7441Y385244D01*
X7187Y386046D01*
X6952Y386854D01*
X6738Y387668D01*
X6543Y388487D01*
X6369Y389310D01*
X6215Y390138D01*
X6081Y390969D01*
X5968Y391803D01*
X5875Y392639D01*
X5803Y393477D01*
X5751Y394317D01*
X5720Y395158D01*
X5710Y396000D01*
X23000Y396000D02*
X23005Y396417D01*
X23020Y396834D01*
X23046Y397251D01*
X23082Y397666D01*
X23128Y398081D01*
X23184Y398494D01*
X23250Y398906D01*
X23327Y399317D01*
X23413Y399725D01*
X23509Y400131D01*
X23616Y400534D01*
X23732Y400935D01*
X23858Y401333D01*
X23994Y401727D01*
X24139Y402118D01*
X24294Y402506D01*
X24458Y402889D01*
X24632Y403268D01*
X24815Y403643D01*
X25007Y404014D01*
X25209Y404379D01*
X25419Y404740D01*
X25637Y405095D01*
X25865Y405445D01*
X26101Y405789D01*
X26345Y406127D01*
X26598Y406459D01*
X26859Y406785D01*
X27127Y407104D01*
X27404Y407417D01*
X27688Y407722D01*
X27979Y408021D01*
X28278Y408312D01*
X28583Y408596D01*
X28896Y408873D01*
X29215Y409141D01*
X29541Y409402D01*
X29873Y409655D01*
X30211Y409899D01*
X30555Y410135D01*
X30905Y410363D01*
X31260Y410581D01*
X31621Y410791D01*
X31986Y410993D01*
X32357Y411185D01*
X32732Y411368D01*
X33111Y411542D01*
X33494Y411706D01*
X33882Y411861D01*
X34273Y412006D01*
X34667Y412142D01*
X35065Y412268D01*
X35466Y412384D01*
X35869Y412491D01*
X36275Y412587D01*
X36683Y412673D01*
X37094Y412750D01*
X37506Y412816D01*
X37919Y412872D01*
X38334Y412918D01*
X38749Y412954D01*
X39166Y412980D01*
X39583Y412995D01*
X40000Y413000D01*
X40417Y412995D01*
X40834Y412980D01*
X41251Y412954D01*
X41666Y412918D01*
X42081Y412872D01*
X42494Y412816D01*
X42906Y412750D01*
X43317Y412673D01*
X43725Y412587D01*
X44131Y412491D01*
X44534Y412384D01*
X44935Y412268D01*
X45333Y412142D01*
X45727Y412006D01*
X46118Y411861D01*
X46506Y411706D01*
X46889Y411542D01*
X47268Y411368D01*
X47643Y411185D01*
X48014Y410993D01*
X48379Y410791D01*
X48740Y410581D01*
X49095Y410363D01*
X49445Y410135D01*
X49789Y409899D01*
X50127Y409655D01*
X50459Y409402D01*
X50785Y409141D01*
X51104Y408873D01*
X51417Y408596D01*
X51722Y408312D01*
X52021Y408021D01*
X52312Y407722D01*
X52596Y407417D01*
X52873Y407104D01*
X53141Y406785D01*
X53402Y406459D01*
X53655Y406127D01*
X53899Y405789D01*
X54135Y405445D01*
X54363Y405095D01*
X54581Y404740D01*
X54791Y404379D01*
X54993Y404014D01*
X55185Y403643D01*
X55368Y403268D01*
X55542Y402889D01*
X55706Y402506D01*
X55861Y402118D01*
X56006Y401727D01*
X56142Y401333D01*
X56268Y400935D01*
X56384Y400534D01*
X56491Y400131D01*
X56587Y399725D01*
X56673Y399317D01*
X56750Y398906D01*
X56816Y398494D01*
X56872Y398081D01*
X56918Y397666D01*
X56954Y397251D01*
X56980Y396834D01*
X56995Y396417D01*
X57000Y396000D01*
X56995Y395583D01*
X56980Y395166D01*
X56954Y394749D01*
X56918Y394334D01*
X56872Y393919D01*
X56816Y393506D01*
X56750Y393094D01*
X56673Y392683D01*
X56587Y392275D01*
X56491Y391869D01*
X56384Y391466D01*
X56268Y391065D01*
X56142Y390667D01*
X56006Y390273D01*
X55861Y389882D01*
X55706Y389494D01*
X55542Y389111D01*
X55368Y388732D01*
X55185Y388357D01*
X54993Y387986D01*
X54791Y387621D01*
X54581Y387260D01*
X54363Y386905D01*
X54135Y386555D01*
X53899Y386211D01*
X53655Y385873D01*
X53402Y385541D01*
X53141Y385215D01*
X52873Y384896D01*
X52596Y384583D01*
X52312Y384278D01*
X52021Y383979D01*
X51722Y383688D01*
X51417Y383404D01*
X51104Y383127D01*
X50785Y382859D01*
X50459Y382598D01*
X50127Y382345D01*
X49789Y382101D01*
X49445Y381865D01*
X49095Y381637D01*
X48740Y381419D01*
X48379Y381209D01*
X48014Y381007D01*
X47643Y380815D01*
X47268Y380632D01*
X46889Y380458D01*
X46506Y380294D01*
X46118Y380139D01*
X45727Y379994D01*
X45333Y379858D01*
X44935Y379732D01*
X44534Y379616D01*
X44131Y379509D01*
X43725Y379413D01*
X43317Y379327D01*
X42906Y379250D01*
X42494Y379184D01*
X42081Y379128D01*
X41666Y379082D01*
X41251Y379046D01*
X40834Y379020D01*
X40417Y379005D01*
X40000Y379000D01*
X39583Y379005D01*
X39166Y379020D01*
X38749Y379046D01*
X38334Y379082D01*
X37919Y379128D01*
X37506Y379184D01*
X37094Y379250D01*
X36683Y379327D01*
X36275Y379413D01*
X35869Y379509D01*
X35466Y379616D01*
X35065Y379732D01*
X34667Y379858D01*
X34273Y379994D01*
X33882Y380139D01*
X33494Y380294D01*
X33111Y380458D01*
X32732Y380632D01*
X32357Y380815D01*
X31986Y381007D01*
X31621Y381209D01*
X31260Y381419D01*
X30905Y381637D01*
X30555Y381865D01*
X30211Y382101D01*
X29873Y382345D01*
X29541Y382598D01*
X29215Y382859D01*
X28896Y383127D01*
X28583Y383404D01*
X28278Y383688D01*
X27979Y383979D01*
X27688Y384278D01*
X27404Y384583D01*
X27127Y384896D01*
X26859Y385215D01*
X26598Y385541D01*
X26345Y385873D01*
X26101Y386211D01*
X25865Y386555D01*
X25637Y386905D01*
X25419Y387260D01*
X25209Y387621D01*
X25007Y387986D01*
X24815Y388357D01*
X24632Y388732D01*
X24458Y389111D01*
X24294Y389494D01*
X24139Y389882D01*
X23994Y390273D01*
X23858Y390667D01*
X23732Y391065D01*
X23616Y391466D01*
X23509Y391869D01*
X23413Y392275D01*
X23327Y392683D01*
X23250Y393094D01*
X23184Y393506D01*
X23128Y393919D01*
X23082Y394334D01*
X23046Y394749D01*
X23020Y395166D01*
X23005Y395583D01*
X23000Y396000D01*
X636710Y396000D02*
X636720Y396842D01*
X636751Y397683D01*
X636803Y398523D01*
X636875Y399361D01*
X636968Y400197D01*
X637081Y401031D01*
X637215Y401862D01*
X637369Y402690D01*
X637543Y403513D01*
X637738Y404332D01*
X637952Y405146D01*
X638187Y405954D01*
X638441Y406756D01*
X638714Y407552D01*
X639008Y408341D01*
X639320Y409122D01*
X639652Y409896D01*
X640002Y410661D01*
X640371Y411417D01*
X640759Y412164D01*
X641165Y412901D01*
X641588Y413629D01*
X642030Y414345D01*
X642489Y415051D01*
X642965Y415744D01*
X643458Y416427D01*
X643968Y417096D01*
X644493Y417753D01*
X645035Y418397D01*
X645593Y419028D01*
X646166Y419644D01*
X646753Y420247D01*
X647356Y420834D01*
X647972Y421407D01*
X648603Y421965D01*
X649247Y422507D01*
X649904Y423032D01*
X650573Y423542D01*
X651256Y424035D01*
X651949Y424511D01*
X652655Y424970D01*
X653371Y425412D01*
X654099Y425835D01*
X654836Y426241D01*
X655583Y426629D01*
X656339Y426998D01*
X657104Y427348D01*
X657878Y427680D01*
X658659Y427992D01*
X659448Y428286D01*
X660244Y428559D01*
X661046Y428813D01*
X661854Y429048D01*
X662668Y429262D01*
X663487Y429457D01*
X664310Y429631D01*
X665138Y429785D01*
X665969Y429919D01*
X666803Y430032D01*
X667639Y430125D01*
X668477Y430197D01*
X669317Y430249D01*
X670158Y430280D01*
X671000Y430290D01*
X671842Y430280D01*
X672683Y430249D01*
X673523Y430197D01*
X674361Y430125D01*
X675197Y430032D01*
X676031Y429919D01*
X676862Y429785D01*
X677690Y429631D01*
X678513Y429457D01*
X679332Y429262D01*
X680146Y429048D01*
X680954Y428813D01*
X681756Y428559D01*
X682552Y428286D01*
X683341Y427992D01*
X684122Y427680D01*
X684896Y427348D01*
X685661Y426998D01*
X686417Y426629D01*
X687164Y426241D01*
X687901Y425835D01*
X688629Y425412D01*
X689345Y424970D01*
X690051Y424511D01*
X690744Y424035D01*
X691427Y423542D01*
X692096Y423032D01*
X692753Y422507D01*
X693397Y421965D01*
X694028Y421407D01*
X694644Y420834D01*
X695247Y420247D01*
X695834Y419644D01*
X696407Y419028D01*
X696965Y418397D01*
X697507Y417753D01*
X698032Y417096D01*
X698542Y416427D01*
X699035Y415744D01*
X699511Y415051D01*
X699970Y414345D01*
X700412Y413629D01*
X700835Y412901D01*
X701241Y412164D01*
X701629Y411417D01*
X701998Y410661D01*
X702348Y409896D01*
X702680Y409122D01*
X702992Y408341D01*
X703286Y407552D01*
X703559Y406756D01*
X703813Y405954D01*
X704048Y405146D01*
X704262Y404332D01*
X704457Y403513D01*
X704631Y402690D01*
X704785Y401862D01*
X704919Y401031D01*
X705032Y400197D01*
X705125Y399361D01*
X705197Y398523D01*
X705249Y397683D01*
X705280Y396842D01*
X705290Y396000D01*
X705280Y395158D01*
X705249Y394317D01*
X705197Y393477D01*
X705125Y392639D01*
X705032Y391803D01*
X704919Y390969D01*
X704785Y390138D01*
X704631Y389310D01*
X704457Y388487D01*
X704262Y387668D01*
X704048Y386854D01*
X703813Y386046D01*
X703559Y385244D01*
X703286Y384448D01*
X702992Y383659D01*
X702680Y382878D01*
X702348Y382104D01*
X701998Y381339D01*
X701629Y380583D01*
X701241Y379836D01*
X700835Y379099D01*
X700412Y378371D01*
X699970Y377655D01*
X699511Y376949D01*
X699035Y376256D01*
X698542Y375573D01*
X698032Y374904D01*
X697507Y374247D01*
X696965Y373603D01*
X696407Y372972D01*
X695834Y372356D01*
X695247Y371753D01*
X694644Y371166D01*
X694028Y370593D01*
X693397Y370035D01*
X692753Y369493D01*
X692096Y368968D01*
X691427Y368458D01*
X690744Y367965D01*
X690051Y367489D01*
X689345Y367030D01*
X688629Y366588D01*
X687901Y366165D01*
X687164Y365759D01*
X686417Y365371D01*
X685661Y365002D01*
X684896Y364652D01*
X684122Y364320D01*
X683341Y364008D01*
X682552Y363714D01*
X681756Y363441D01*
X680954Y363187D01*
X680146Y362952D01*
X679332Y362738D01*
X678513Y362543D01*
X677690Y362369D01*
X676862Y362215D01*
X676031Y362081D01*
X675197Y361968D01*
X674361Y361875D01*
X673523Y361803D01*
X672683Y361751D01*
X671842Y361720D01*
X671000Y361710D01*
X670158Y361720D01*
X669317Y361751D01*
X668477Y361803D01*
X667639Y361875D01*
X666803Y361968D01*
X665969Y362081D01*
X665138Y362215D01*
X664310Y362369D01*
X663487Y362543D01*
X662668Y362738D01*
X661854Y362952D01*
X661046Y363187D01*
X660244Y363441D01*
X659448Y363714D01*
X658659Y364008D01*
X657878Y364320D01*
X657104Y364652D01*
X656339Y365002D01*
X655583Y365371D01*
X654836Y365759D01*
X654099Y366165D01*
X653371Y366588D01*
X652655Y367030D01*
X651949Y367489D01*
X651256Y367965D01*
X650573Y368458D01*
X649904Y368968D01*
X649247Y369493D01*
X648603Y370035D01*
X647972Y370593D01*
X647356Y371166D01*
X646753Y371753D01*
X646166Y372356D01*
X645593Y372972D01*
X645035Y373603D01*
X644493Y374247D01*
X643968Y374904D01*
X643458Y375573D01*
X642965Y376256D01*
X642489Y376949D01*
X642030Y377655D01*
X641588Y378371D01*
X641165Y379099D01*
X640759Y379836D01*
X640371Y380583D01*
X640002Y381339D01*
X639652Y382104D01*
X639320Y382878D01*
X639008Y383659D01*
X638714Y384448D01*
X638441Y385244D01*
X638187Y386046D01*
X637952Y386854D01*
X637738Y387668D01*
X637543Y388487D01*
X637369Y389310D01*
X637215Y390138D01*
X637081Y390969D01*
X636968Y391803D01*
X636875Y392639D01*
X636803Y393477D01*
X636751Y394317D01*
X636720Y395158D01*
X636710Y396000D01*
X654000Y396000D02*
X654005Y396417D01*
X654020Y396834D01*
X654046Y397251D01*
X654082Y397666D01*
X654128Y398081D01*
X654184Y398494D01*
X654250Y398906D01*
X654327Y399317D01*
X654413Y399725D01*
X654509Y400131D01*
X654616Y400534D01*
X654732Y400935D01*
X654858Y401333D01*
X654994Y401727D01*
X655139Y402118D01*
X655294Y402506D01*
X655458Y402889D01*
X655632Y403268D01*
X655815Y403643D01*
X656007Y404014D01*
X656209Y404379D01*
X656419Y404740D01*
X656637Y405095D01*
X656865Y405445D01*
X657101Y405789D01*
X657345Y406127D01*
X657598Y406459D01*
X657859Y406785D01*
X658127Y407104D01*
X658404Y407417D01*
X658688Y407722D01*
X658979Y408021D01*
X659278Y408312D01*
X659583Y408596D01*
X659896Y408873D01*
X660215Y409141D01*
X660541Y409402D01*
X660873Y409655D01*
X661211Y409899D01*
X661555Y410135D01*
X661905Y410363D01*
X662260Y410581D01*
X662621Y410791D01*
X662986Y410993D01*
X663357Y411185D01*
X663732Y411368D01*
X664111Y411542D01*
X664494Y411706D01*
X664882Y411861D01*
X665273Y412006D01*
X665667Y412142D01*
X666065Y412268D01*
X666466Y412384D01*
X666869Y412491D01*
X667275Y412587D01*
X667683Y412673D01*
X668094Y412750D01*
X668506Y412816D01*
X668919Y412872D01*
X669334Y412918D01*
X669749Y412954D01*
X670166Y412980D01*
X670583Y412995D01*
X671000Y413000D01*
X671417Y412995D01*
X671834Y412980D01*
X672251Y412954D01*
X672666Y412918D01*
X673081Y412872D01*
X673494Y412816D01*
X673906Y412750D01*
X674317Y412673D01*
X674725Y412587D01*
X675131Y412491D01*
X675534Y412384D01*
X675935Y412268D01*
X676333Y412142D01*
X676727Y412006D01*
X677118Y411861D01*
X677506Y411706D01*
X677889Y411542D01*
X678268Y411368D01*
X678643Y411185D01*
X679014Y410993D01*
X679379Y410791D01*
X679740Y410581D01*
X680095Y410363D01*
X680445Y410135D01*
X680789Y409899D01*
X681127Y409655D01*
X681459Y409402D01*
X681785Y409141D01*
X682104Y408873D01*
X682417Y408596D01*
X682722Y408312D01*
X683021Y408021D01*
X683312Y407722D01*
X683596Y407417D01*
X683873Y407104D01*
X684141Y406785D01*
X684402Y406459D01*
X684655Y406127D01*
X684899Y405789D01*
X685135Y405445D01*
X685363Y405095D01*
X685581Y404740D01*
X685791Y404379D01*
X685993Y404014D01*
X686185Y403643D01*
X686368Y403268D01*
X686542Y402889D01*
X686706Y402506D01*
X686861Y402118D01*
X687006Y401727D01*
X687142Y401333D01*
X687268Y400935D01*
X687384Y400534D01*
X687491Y400131D01*
X687587Y399725D01*
X687673Y399317D01*
X687750Y398906D01*
X687816Y398494D01*
X687872Y398081D01*
X687918Y397666D01*
X687954Y397251D01*
X687980Y396834D01*
X687995Y396417D01*
X688000Y396000D01*
X687995Y395583D01*
X687980Y395166D01*
X687954Y394749D01*
X687918Y394334D01*
X687872Y393919D01*
X687816Y393506D01*
X687750Y393094D01*
X687673Y392683D01*
X687587Y392275D01*
X687491Y391869D01*
X687384Y391466D01*
X687268Y391065D01*
X687142Y390667D01*
X687006Y390273D01*
X686861Y389882D01*
X686706Y389494D01*
X686542Y389111D01*
X686368Y388732D01*
X686185Y388357D01*
X685993Y387986D01*
X685791Y387621D01*
X685581Y387260D01*
X685363Y386905D01*
X685135Y386555D01*
X684899Y386211D01*
X684655Y385873D01*
X684402Y385541D01*
X684141Y385215D01*
X683873Y384896D01*
X683596Y384583D01*
X683312Y384278D01*
X683021Y383979D01*
X682722Y383688D01*
X682417Y383404D01*
X682104Y383127D01*
X681785Y382859D01*
X681459Y382598D01*
X681127Y382345D01*
X680789Y382101D01*
X680445Y381865D01*
X680095Y381637D01*
X679740Y381419D01*
X679379Y381209D01*
X679014Y381007D01*
X678643Y380815D01*
X678268Y380632D01*
X677889Y380458D01*
X677506Y380294D01*
X677118Y380139D01*
X676727Y379994D01*
X676333Y379858D01*
X675935Y379732D01*
X675534Y379616D01*
X675131Y379509D01*
X674725Y379413D01*
X674317Y379327D01*
X673906Y379250D01*
X673494Y379184D01*
X673081Y379128D01*
X672666Y379082D01*
X672251Y379046D01*
X671834Y379020D01*
X671417Y379005D01*
X671000Y379000D01*
X670583Y379005D01*
X670166Y379020D01*
X669749Y379046D01*
X669334Y379082D01*
X668919Y379128D01*
X668506Y379184D01*
X668094Y379250D01*
X667683Y379327D01*
X667275Y379413D01*
X666869Y379509D01*
X666466Y379616D01*
X666065Y379732D01*
X665667Y379858D01*
X665273Y379994D01*
X664882Y380139D01*
X664494Y380294D01*
X664111Y380458D01*
X663732Y380632D01*
X663357Y380815D01*
X662986Y381007D01*
X662621Y381209D01*
X662260Y381419D01*
X661905Y381637D01*
X661555Y381865D01*
X661211Y382101D01*
X660873Y382345D01*
X660541Y382598D01*
X660215Y382859D01*
X659896Y383127D01*
X659583Y383404D01*
X659278Y383688D01*
X658979Y383979D01*
X658688Y384278D01*
X658404Y384583D01*
X658127Y384896D01*
X657859Y385215D01*
X657598Y385541D01*
X657345Y385873D01*
X657101Y386211D01*
X656865Y386555D01*
X656637Y386905D01*
X656419Y387260D01*
X656209Y387621D01*
X656007Y387986D01*
X655815Y388357D01*
X655632Y388732D01*
X655458Y389111D01*
X655294Y389494D01*
X655139Y389882D01*
X654994Y390273D01*
X654858Y390667D01*
X654732Y391065D01*
X654616Y391466D01*
X654509Y391869D01*
X654413Y392275D01*
X654327Y392683D01*
X654250Y393094D01*
X654184Y393506D01*
X654128Y393919D01*
X654082Y394334D01*
X654046Y394749D01*
X654020Y395166D01*
X654005Y395583D01*
X654000Y396000D01*
X5710Y40000D02*
X5720Y40842D01*
X5751Y41683D01*
X5803Y42523D01*
X5875Y43361D01*
X5968Y44197D01*
X6081Y45031D01*
X6215Y45862D01*
X6369Y46690D01*
X6543Y47513D01*
X6738Y48332D01*
X6952Y49146D01*
X7187Y49954D01*
X7441Y50756D01*
X7714Y51552D01*
X8008Y52341D01*
X8320Y53122D01*
X8652Y53896D01*
X9002Y54661D01*
X9371Y55417D01*
X9759Y56164D01*
X10165Y56901D01*
X10588Y57629D01*
X11030Y58345D01*
X11489Y59051D01*
X11965Y59744D01*
X12458Y60427D01*
X12968Y61096D01*
X13493Y61753D01*
X14035Y62397D01*
X14593Y63028D01*
X15166Y63644D01*
X15753Y64247D01*
X16356Y64834D01*
X16972Y65407D01*
X17603Y65965D01*
X18247Y66507D01*
X18904Y67032D01*
X19573Y67542D01*
X20256Y68035D01*
X20949Y68511D01*
X21655Y68970D01*
X22371Y69412D01*
X23099Y69835D01*
X23836Y70241D01*
X24583Y70629D01*
X25339Y70998D01*
X26104Y71348D01*
X26878Y71680D01*
X27659Y71992D01*
X28448Y72286D01*
X29244Y72559D01*
X30046Y72813D01*
X30854Y73048D01*
X31668Y73262D01*
X32487Y73457D01*
X33310Y73631D01*
X34138Y73785D01*
X34969Y73919D01*
X35803Y74032D01*
X36639Y74125D01*
X37477Y74197D01*
X38317Y74249D01*
X39158Y74280D01*
X40000Y74290D01*
X40842Y74280D01*
X41683Y74249D01*
X42523Y74197D01*
X43361Y74125D01*
X44197Y74032D01*
X45031Y73919D01*
X45862Y73785D01*
X46690Y73631D01*
X47513Y73457D01*
X48332Y73262D01*
X49146Y73048D01*
X49954Y72813D01*
X50756Y72559D01*
X51552Y72286D01*
X52341Y71992D01*
X53122Y71680D01*
X53896Y71348D01*
X54661Y70998D01*
X55417Y70629D01*
X56164Y70241D01*
X56901Y69835D01*
X57629Y69412D01*
X58345Y68970D01*
X59051Y68511D01*
X59744Y68035D01*
X60427Y67542D01*
X61096Y67032D01*
X61753Y66507D01*
X62397Y65965D01*
X63028Y65407D01*
X63644Y64834D01*
X64247Y64247D01*
X64834Y63644D01*
X65407Y63028D01*
X65965Y62397D01*
X66507Y61753D01*
X67032Y61096D01*
X67542Y60427D01*
X68035Y59744D01*
X68511Y59051D01*
X68970Y58345D01*
X69412Y57629D01*
X69835Y56901D01*
X70241Y56164D01*
X70629Y55417D01*
X70998Y54661D01*
X71348Y53896D01*
X71680Y53122D01*
X71992Y52341D01*
X72286Y51552D01*
X72559Y50756D01*
X72813Y49954D01*
X73048Y49146D01*
X73262Y48332D01*
X73457Y47513D01*
X73631Y46690D01*
X73785Y45862D01*
X73919Y45031D01*
X74032Y44197D01*
X74125Y43361D01*
X74197Y42523D01*
X74249Y41683D01*
X74280Y40842D01*
X74290Y40000D01*
X74280Y39158D01*
X74249Y38317D01*
X74197Y37477D01*
X74125Y36639D01*
X74032Y35803D01*
X73919Y34969D01*
X73785Y34138D01*
X73631Y33310D01*
X73457Y32487D01*
X73262Y31668D01*
X73048Y30854D01*
X72813Y30046D01*
X72559Y29244D01*
X72286Y28448D01*
X71992Y27659D01*
X71680Y26878D01*
X71348Y26104D01*
X70998Y25339D01*
X70629Y24583D01*
X70241Y23836D01*
X69835Y23099D01*
X69412Y22371D01*
X68970Y21655D01*
X68511Y20949D01*
X68035Y20256D01*
X67542Y19573D01*
X67032Y18904D01*
X66507Y18247D01*
X65965Y17603D01*
X65407Y16972D01*
X64834Y16356D01*
X64247Y15753D01*
X63644Y15166D01*
X63028Y14593D01*
X62397Y14035D01*
X61753Y13493D01*
X61096Y12968D01*
X60427Y12458D01*
X59744Y11965D01*
X59051Y11489D01*
X58345Y11030D01*
X57629Y10588D01*
X56901Y10165D01*
X56164Y9759D01*
X55417Y9371D01*
X54661Y9002D01*
X53896Y8652D01*
X53122Y8320D01*
X52341Y8008D01*
X51552Y7714D01*
X50756Y7441D01*
X49954Y7187D01*
X49146Y6952D01*
X48332Y6738D01*
X47513Y6543D01*
X46690Y6369D01*
X45862Y6215D01*
X45031Y6081D01*
X44197Y5968D01*
X43361Y5875D01*
X42523Y5803D01*
X41683Y5751D01*
X40842Y5720D01*
X40000Y5710D01*
X39158Y5720D01*
X38317Y5751D01*
X37477Y5803D01*
X36639Y5875D01*
X35803Y5968D01*
X34969Y6081D01*
X34138Y6215D01*
X33310Y6369D01*
X32487Y6543D01*
X31668Y6738D01*
X30854Y6952D01*
X30046Y7187D01*
X29244Y7441D01*
X28448Y7714D01*
X27659Y8008D01*
X26878Y8320D01*
X26104Y8652D01*
X25339Y9002D01*
X24583Y9371D01*
X23836Y9759D01*
X23099Y10165D01*
X22371Y10588D01*
X21655Y11030D01*
X20949Y11489D01*
X20256Y11965D01*
X19573Y12458D01*
X18904Y12968D01*
X18247Y13493D01*
X17603Y14035D01*
X16972Y14593D01*
X16356Y15166D01*
X15753Y15753D01*
X15166Y16356D01*
X14593Y16972D01*
X14035Y17603D01*
X13493Y18247D01*
X12968Y18904D01*
X12458Y19573D01*
X11965Y20256D01*
X11489Y20949D01*
X11030Y21655D01*
X10588Y22371D01*
X10165Y23099D01*
X9759Y23836D01*
X9371Y24583D01*
X9002Y25339D01*
X8652Y26104D01*
X8320Y26878D01*
X8008Y27659D01*
X7714Y28448D01*
X7441Y29244D01*
X7187Y30046D01*
X6952Y30854D01*
X6738Y31668D01*
X6543Y32487D01*
X6369Y33310D01*
X6215Y34138D01*
X6081Y34969D01*
X5968Y35803D01*
X5875Y36639D01*
X5803Y37477D01*
X5751Y38317D01*
X5720Y39158D01*
X5710Y40000D01*
X23000Y40000D02*
X23005Y40417D01*
X23020Y40834D01*
X23046Y41251D01*
X23082Y41666D01*
X23128Y42081D01*
X23184Y42494D01*
X23250Y42906D01*
X23327Y43317D01*
X23413Y43725D01*
X23509Y44131D01*
X23616Y44534D01*
X23732Y44935D01*
X23858Y45333D01*
X23994Y45727D01*
X24139Y46118D01*
X24294Y46506D01*
X24458Y46889D01*
X24632Y47268D01*
X24815Y47643D01*
X25007Y48014D01*
X25209Y48379D01*
X25419Y48740D01*
X25637Y49095D01*
X25865Y49445D01*
X26101Y49789D01*
X26345Y50127D01*
X26598Y50459D01*
X26859Y50785D01*
X27127Y51104D01*
X27404Y51417D01*
X27688Y51722D01*
X27979Y52021D01*
X28278Y52312D01*
X28583Y52596D01*
X28896Y52873D01*
X29215Y53141D01*
X29541Y53402D01*
X29873Y53655D01*
X30211Y53899D01*
X30555Y54135D01*
X30905Y54363D01*
X31260Y54581D01*
X31621Y54791D01*
X31986Y54993D01*
X32357Y55185D01*
X32732Y55368D01*
X33111Y55542D01*
X33494Y55706D01*
X33882Y55861D01*
X34273Y56006D01*
X34667Y56142D01*
X35065Y56268D01*
X35466Y56384D01*
X35869Y56491D01*
X36275Y56587D01*
X36683Y56673D01*
X37094Y56750D01*
X37506Y56816D01*
X37919Y56872D01*
X38334Y56918D01*
X38749Y56954D01*
X39166Y56980D01*
X39583Y56995D01*
X40000Y57000D01*
X40417Y56995D01*
X40834Y56980D01*
X41251Y56954D01*
X41666Y56918D01*
X42081Y56872D01*
X42494Y56816D01*
X42906Y56750D01*
X43317Y56673D01*
X43725Y56587D01*
X44131Y56491D01*
X44534Y56384D01*
X44935Y56268D01*
X45333Y56142D01*
X45727Y56006D01*
X46118Y55861D01*
X46506Y55706D01*
X46889Y55542D01*
X47268Y55368D01*
X47643Y55185D01*
X48014Y54993D01*
X48379Y54791D01*
X48740Y54581D01*
X49095Y54363D01*
X49445Y54135D01*
X49789Y53899D01*
X50127Y53655D01*
X50459Y53402D01*
X50785Y53141D01*
X51104Y52873D01*
X51417Y52596D01*
X51722Y52312D01*
X52021Y52021D01*
X52312Y51722D01*
X52596Y51417D01*
X52873Y51104D01*
X53141Y50785D01*
X53402Y50459D01*
X53655Y50127D01*
X53899Y49789D01*
X54135Y49445D01*
X54363Y49095D01*
X54581Y48740D01*
X54791Y48379D01*
X54993Y48014D01*
X55185Y47643D01*
X55368Y47268D01*
X55542Y46889D01*
X55706Y46506D01*
X55861Y46118D01*
X56006Y45727D01*
X56142Y45333D01*
X56268Y44935D01*
X56384Y44534D01*
X56491Y44131D01*
X56587Y43725D01*
X56673Y43317D01*
X56750Y42906D01*
X56816Y42494D01*
X56872Y42081D01*
X56918Y41666D01*
X56954Y41251D01*
X56980Y40834D01*
X56995Y40417D01*
X57000Y40000D01*
X56995Y39583D01*
X56980Y39166D01*
X56954Y38749D01*
X56918Y38334D01*
X56872Y37919D01*
X56816Y37506D01*
X56750Y37094D01*
X56673Y36683D01*
X56587Y36275D01*
X56491Y35869D01*
X56384Y35466D01*
X56268Y35065D01*
X56142Y34667D01*
X56006Y34273D01*
X55861Y33882D01*
X55706Y33494D01*
X55542Y33111D01*
X55368Y32732D01*
X55185Y32357D01*
X54993Y31986D01*
X54791Y31621D01*
X54581Y31260D01*
X54363Y30905D01*
X54135Y30555D01*
X53899Y30211D01*
X53655Y29873D01*
X53402Y29541D01*
X53141Y29215D01*
X52873Y28896D01*
X52596Y28583D01*
X52312Y28278D01*
X52021Y27979D01*
X51722Y27688D01*
X51417Y27404D01*
X51104Y27127D01*
X50785Y26859D01*
X50459Y26598D01*
X50127Y26345D01*
X49789Y26101D01*
X49445Y25865D01*
X49095Y25637D01*
X48740Y25419D01*
X48379Y25209D01*
X48014Y25007D01*
X47643Y24815D01*
X47268Y24632D01*
X46889Y24458D01*
X46506Y24294D01*
X46118Y24139D01*
X45727Y23994D01*
X45333Y23858D01*
X44935Y23732D01*
X44534Y23616D01*
X44131Y23509D01*
X43725Y23413D01*
X43317Y23327D01*
X42906Y23250D01*
X42494Y23184D01*
X42081Y23128D01*
X41666Y23082D01*
X41251Y23046D01*
X40834Y23020D01*
X40417Y23005D01*
X40000Y23000D01*
X39583Y23005D01*
X39166Y23020D01*
X38749Y23046D01*
X38334Y23082D01*
X37919Y23128D01*
X37506Y23184D01*
X37094Y23250D01*
X36683Y23327D01*
X36275Y23413D01*
X35869Y23509D01*
X35466Y23616D01*
X35065Y23732D01*
X34667Y23858D01*
X34273Y23994D01*
X33882Y24139D01*
X33494Y24294D01*
X33111Y24458D01*
X32732Y24632D01*
X32357Y24815D01*
X31986Y25007D01*
X31621Y25209D01*
X31260Y25419D01*
X30905Y25637D01*
X30555Y25865D01*
X30211Y26101D01*
X29873Y26345D01*
X29541Y26598D01*
X29215Y26859D01*
X28896Y27127D01*
X28583Y27404D01*
X28278Y27688D01*
X27979Y27979D01*
X27688Y28278D01*
X27404Y28583D01*
X27127Y28896D01*
X26859Y29215D01*
X26598Y29541D01*
X26345Y29873D01*
X26101Y30211D01*
X25865Y30555D01*
X25637Y30905D01*
X25419Y31260D01*
X25209Y31621D01*
X25007Y31986D01*
X24815Y32357D01*
X24632Y32732D01*
X24458Y33111D01*
X24294Y33494D01*
X24139Y33882D01*
X23994Y34273D01*
X23858Y34667D01*
X23732Y35065D01*
X23616Y35466D01*
X23509Y35869D01*
X23413Y36275D01*
X23327Y36683D01*
X23250Y37094D01*
X23184Y37506D01*
X23128Y37919D01*
X23082Y38334D01*
X23046Y38749D01*
X23020Y39166D01*
X23005Y39583D01*
X23000Y40000D01*
X636710Y40000D02*
X636720Y40842D01*
X636751Y41683D01*
X636803Y42523D01*
X636875Y43361D01*
X636968Y44197D01*
X637081Y45031D01*
X637215Y45862D01*
X637369Y46690D01*
X637543Y47513D01*
X637738Y48332D01*
X637952Y49146D01*
X638187Y49954D01*
X638441Y50756D01*
X638714Y51552D01*
X639008Y52341D01*
X639320Y53122D01*
X639652Y53896D01*
X640002Y54661D01*
X640371Y55417D01*
X640759Y56164D01*
X641165Y56901D01*
X641588Y57629D01*
X642030Y58345D01*
X642489Y59051D01*
X642965Y59744D01*
X643458Y60427D01*
X643968Y61096D01*
X644493Y61753D01*
X645035Y62397D01*
X645593Y63028D01*
X646166Y63644D01*
X646753Y64247D01*
X647356Y64834D01*
X647972Y65407D01*
X648603Y65965D01*
X649247Y66507D01*
X649904Y67032D01*
X650573Y67542D01*
X651256Y68035D01*
X651949Y68511D01*
X652655Y68970D01*
X653371Y69412D01*
X654099Y69835D01*
X654836Y70241D01*
X655583Y70629D01*
X656339Y70998D01*
X657104Y71348D01*
X657878Y71680D01*
X658659Y71992D01*
X659448Y72286D01*
X660244Y72559D01*
X661046Y72813D01*
X661854Y73048D01*
X662668Y73262D01*
X663487Y73457D01*
X664310Y73631D01*
X665138Y73785D01*
X665969Y73919D01*
X666803Y74032D01*
X667639Y74125D01*
X668477Y74197D01*
X669317Y74249D01*
X670158Y74280D01*
X671000Y74290D01*
X671842Y74280D01*
X672683Y74249D01*
X673523Y74197D01*
X674361Y74125D01*
X675197Y74032D01*
X676031Y73919D01*
X676862Y73785D01*
X677690Y73631D01*
X678513Y73457D01*
X679332Y73262D01*
X680146Y73048D01*
X680954Y72813D01*
X681756Y72559D01*
X682552Y72286D01*
X683341Y71992D01*
X684122Y71680D01*
X684896Y71348D01*
X685661Y70998D01*
X686417Y70629D01*
X687164Y70241D01*
X687901Y69835D01*
X688629Y69412D01*
X689345Y68970D01*
X690051Y68511D01*
X690744Y68035D01*
X691427Y67542D01*
X692096Y67032D01*
X692753Y66507D01*
X693397Y65965D01*
X694028Y65407D01*
X694644Y64834D01*
X695247Y64247D01*
X695834Y63644D01*
X696407Y63028D01*
X696965Y62397D01*
X697507Y61753D01*
X698032Y61096D01*
X698542Y60427D01*
X699035Y59744D01*
X699511Y59051D01*
X699970Y58345D01*
X700412Y57629D01*
X700835Y56901D01*
X701241Y56164D01*
X701629Y55417D01*
X701998Y54661D01*
X702348Y53896D01*
X702680Y53122D01*
X702992Y52341D01*
X703286Y51552D01*
X703559Y50756D01*
X703813Y49954D01*
X704048Y49146D01*
X704262Y48332D01*
X704457Y47513D01*
X704631Y46690D01*
X704785Y45862D01*
X704919Y45031D01*
X705032Y44197D01*
X705125Y43361D01*
X705197Y42523D01*
X705249Y41683D01*
X705280Y40842D01*
X705290Y40000D01*
X705280Y39158D01*
X705249Y38317D01*
X705197Y37477D01*
X705125Y36639D01*
X705032Y35803D01*
X704919Y34969D01*
X704785Y34138D01*
X704631Y33310D01*
X704457Y32487D01*
X704262Y31668D01*
X704048Y30854D01*
X703813Y30046D01*
X703559Y29244D01*
X703286Y28448D01*
X702992Y27659D01*
X702680Y26878D01*
X702348Y26104D01*
X701998Y25339D01*
X701629Y24583D01*
X701241Y23836D01*
X700835Y23099D01*
X700412Y22371D01*
X699970Y21655D01*
X699511Y20949D01*
X699035Y20256D01*
X698542Y19573D01*
X698032Y18904D01*
X697507Y18247D01*
X696965Y17603D01*
X696407Y16972D01*
X695834Y16356D01*
X695247Y15753D01*
X694644Y15166D01*
X694028Y14593D01*
X693397Y14035D01*
X692753Y13493D01*
X692096Y12968D01*
X691427Y12458D01*
X690744Y11965D01*
X690051Y11489D01*
X689345Y11030D01*
X688629Y10588D01*
X687901Y10165D01*
X687164Y9759D01*
X686417Y9371D01*
X685661Y9002D01*
X684896Y8652D01*
X684122Y8320D01*
X683341Y8008D01*
X682552Y7714D01*
X681756Y7441D01*
X680954Y7187D01*
X680146Y6952D01*
X679332Y6738D01*
X678513Y6543D01*
X677690Y6369D01*
X676862Y6215D01*
X676031Y6081D01*
X675197Y5968D01*
X674361Y5875D01*
X673523Y5803D01*
X672683Y5751D01*
X671842Y5720D01*
X671000Y5710D01*
X670158Y5720D01*
X669317Y5751D01*
X668477Y5803D01*
X667639Y5875D01*
X666803Y5968D01*
X665969Y6081D01*
X665138Y6215D01*
X664310Y6369D01*
X663487Y6543D01*
X662668Y6738D01*
X661854Y6952D01*
X661046Y7187D01*
X660244Y7441D01*
X659448Y7714D01*
X658659Y8008D01*
X657878Y8320D01*
X657104Y8652D01*
X656339Y9002D01*
X655583Y9371D01*
X654836Y9759D01*
X654099Y10165D01*
X653371Y10588D01*
X652655Y11030D01*
X651949Y11489D01*
X651256Y11965D01*
X650573Y12458D01*
X649904Y12968D01*
X649247Y13493D01*
X648603Y14035D01*
X647972Y14593D01*
X647356Y15166D01*
X646753Y15753D01*
X646166Y16356D01*
X645593Y16972D01*
X645035Y17603D01*
X644493Y18247D01*
X643968Y18904D01*
X643458Y19573D01*
X642965Y20256D01*
X642489Y20949D01*
X642030Y21655D01*
X641588Y22371D01*
X641165Y23099D01*
X640759Y23836D01*
X640371Y24583D01*
X640002Y25339D01*
X639652Y26104D01*
X639320Y26878D01*
X639008Y27659D01*
X638714Y28448D01*
X638441Y29244D01*
X638187Y30046D01*
X637952Y30854D01*
X637738Y31668D01*
X637543Y32487D01*
X637369Y33310D01*
X637215Y34138D01*
X637081Y34969D01*
X636968Y35803D01*
X636875Y36639D01*
X636803Y37477D01*
X636751Y38317D01*
X636720Y39158D01*
X636710Y40000D01*
X654000Y40000D02*
X654005Y40417D01*
X654020Y40834D01*
X654046Y41251D01*
X654082Y41666D01*
X654128Y42081D01*
X654184Y42494D01*
X654250Y42906D01*
X654327Y43317D01*
X654413Y43725D01*
X654509Y44131D01*
X654616Y44534D01*
X654732Y44935D01*
X654858Y45333D01*
X654994Y45727D01*
X655139Y46118D01*
X655294Y46506D01*
X655458Y46889D01*
X655632Y47268D01*
X655815Y47643D01*
X656007Y48014D01*
X656209Y48379D01*
X656419Y48740D01*
X656637Y49095D01*
X656865Y49445D01*
X657101Y49789D01*
X657345Y50127D01*
X657598Y50459D01*
X657859Y50785D01*
X658127Y51104D01*
X658404Y51417D01*
X658688Y51722D01*
X658979Y52021D01*
X659278Y52312D01*
X659583Y52596D01*
X659896Y52873D01*
X660215Y53141D01*
X660541Y53402D01*
X660873Y53655D01*
X661211Y53899D01*
X661555Y54135D01*
X661905Y54363D01*
X662260Y54581D01*
X662621Y54791D01*
X662986Y54993D01*
X663357Y55185D01*
X663732Y55368D01*
X664111Y55542D01*
X664494Y55706D01*
X664882Y55861D01*
X665273Y56006D01*
X665667Y56142D01*
X666065Y56268D01*
X666466Y56384D01*
X666869Y56491D01*
X667275Y56587D01*
X667683Y56673D01*
X668094Y56750D01*
X668506Y56816D01*
X668919Y56872D01*
X669334Y56918D01*
X669749Y56954D01*
X670166Y56980D01*
X670583Y56995D01*
X671000Y57000D01*
X671417Y56995D01*
X671834Y56980D01*
X672251Y56954D01*
X672666Y56918D01*
X673081Y56872D01*
X673494Y56816D01*
X673906Y56750D01*
X674317Y56673D01*
X674725Y56587D01*
X675131Y56491D01*
X675534Y56384D01*
X675935Y56268D01*
X676333Y56142D01*
X676727Y56006D01*
X677118Y55861D01*
X677506Y55706D01*
X677889Y55542D01*
X678268Y55368D01*
X678643Y55185D01*
X679014Y54993D01*
X679379Y54791D01*
X679740Y54581D01*
X680095Y54363D01*
X680445Y54135D01*
X680789Y53899D01*
X681127Y53655D01*
X681459Y53402D01*
X681785Y53141D01*
X682104Y52873D01*
X682417Y52596D01*
X682722Y52312D01*
X683021Y52021D01*
X683312Y51722D01*
X683596Y51417D01*
X683873Y51104D01*
X684141Y50785D01*
X684402Y50459D01*
X684655Y50127D01*
X684899Y49789D01*
X685135Y49445D01*
X685363Y49095D01*
X685581Y48740D01*
X685791Y48379D01*
X685993Y48014D01*
X686185Y47643D01*
X686368Y47268D01*
X686542Y46889D01*
X686706Y46506D01*
X686861Y46118D01*
X687006Y45727D01*
X687142Y45333D01*
X687268Y44935D01*
X687384Y44534D01*
X687491Y44131D01*
X687587Y43725D01*
X687673Y43317D01*
X687750Y42906D01*
X687816Y42494D01*
X687872Y42081D01*
X687918Y41666D01*
X687954Y41251D01*
X687980Y40834D01*
X687995Y40417D01*
X688000Y40000D01*
X687995Y39583D01*
X687980Y39166D01*
X687954Y38749D01*
X687918Y38334D01*
X687872Y37919D01*
X687816Y37506D01*
X687750Y37094D01*
X687673Y36683D01*
X687587Y36275D01*
X687491Y35869D01*
X687384Y35466D01*
X687268Y35065D01*
X687142Y34667D01*
X687006Y34273D01*
X686861Y33882D01*
X686706Y33494D01*
X686542Y33111D01*
X686368Y32732D01*
X686185Y32357D01*
X685993Y31986D01*
X685791Y31621D01*
X685581Y31260D01*
X685363Y30905D01*
X685135Y30555D01*
X684899Y30211D01*
X684655Y29873D01*
X684402Y29541D01*
X684141Y29215D01*
X683873Y28896D01*
X683596Y28583D01*
X683312Y28278D01*
X683021Y27979D01*
X682722Y27688D01*
X682417Y27404D01*
X682104Y27127D01*
X681785Y26859D01*
X681459Y26598D01*
X681127Y26345D01*
X680789Y26101D01*
X680445Y25865D01*
X680095Y25637D01*
X679740Y25419D01*
X679379Y25209D01*
X679014Y25007D01*
X678643Y24815D01*
X678268Y24632D01*
X677889Y24458D01*
X677506Y24294D01*
X677118Y24139D01*
X676727Y23994D01*
X676333Y23858D01*
X675935Y23732D01*
X675534Y23616D01*
X675131Y23509D01*
X674725Y23413D01*
X674317Y23327D01*
X673906Y23250D01*
X673494Y23184D01*
X673081Y23128D01*
X672666Y23082D01*
X672251Y23046D01*
X671834Y23020D01*
X671417Y23005D01*
X671000Y23000D01*
X670583Y23005D01*
X670166Y23020D01*
X669749Y23046D01*
X669334Y23082D01*
X668919Y23128D01*
X668506Y23184D01*
X668094Y23250D01*
X667683Y23327D01*
X667275Y23413D01*
X666869Y23509D01*
X666466Y23616D01*
X666065Y23732D01*
X665667Y23858D01*
X665273Y23994D01*
X664882Y24139D01*
X664494Y24294D01*
X664111Y24458D01*
X663732Y24632D01*
X663357Y24815D01*
X662986Y25007D01*
X662621Y25209D01*
X662260Y25419D01*
X661905Y25637D01*
X661555Y25865D01*
X661211Y26101D01*
X660873Y26345D01*
X660541Y26598D01*
X660215Y26859D01*
X659896Y27127D01*
X659583Y27404D01*
X659278Y27688D01*
X658979Y27979D01*
X658688Y28278D01*
X658404Y28583D01*
X658127Y28896D01*
X657859Y29215D01*
X657598Y29541D01*
X657345Y29873D01*
X657101Y30211D01*
X656865Y30555D01*
X656637Y30905D01*
X656419Y31260D01*
X656209Y31621D01*
X656007Y31986D01*
X655815Y32357D01*
X655632Y32732D01*
X655458Y33111D01*
X655294Y33494D01*
X655139Y33882D01*
X654994Y34273D01*
X654858Y34667D01*
X654732Y35065D01*
X654616Y35466D01*
X654509Y35869D01*
X654413Y36275D01*
X654327Y36683D01*
X654250Y37094D01*
X654184Y37506D01*
X654128Y37919D01*
X654082Y38334D01*
X654046Y38749D01*
X654020Y39166D01*
X654005Y39583D01*
X654000Y40000D01*
X504690Y301450D02*
X504532Y301452D01*
X504373Y301458D01*
X504215Y301468D01*
X504058Y301482D01*
X503900Y301499D01*
X503744Y301521D01*
X503587Y301546D01*
X503432Y301576D01*
X503277Y301609D01*
X503123Y301646D01*
X502970Y301687D01*
X502818Y301732D01*
X502668Y301781D01*
X502518Y301833D01*
X502370Y301889D01*
X502223Y301949D01*
X502078Y302012D01*
X501935Y302079D01*
X501793Y302149D01*
X501653Y302223D01*
X501515Y302301D01*
X501379Y302382D01*
X501245Y302466D01*
X501113Y302553D01*
X500983Y302644D01*
X500856Y302738D01*
X500731Y302835D01*
X500608Y302936D01*
X500488Y303039D01*
X500371Y303145D01*
X500256Y303254D01*
X500144Y303366D01*
X500035Y303481D01*
X499929Y303598D01*
X499826Y303718D01*
X499725Y303841D01*
X499628Y303966D01*
X499534Y304093D01*
X499443Y304223D01*
X499356Y304355D01*
X499272Y304489D01*
X499191Y304625D01*
X499113Y304763D01*
X499039Y304903D01*
X498969Y305045D01*
X498902Y305188D01*
X498839Y305333D01*
X498779Y305480D01*
X498723Y305628D01*
X498671Y305778D01*
X498622Y305928D01*
X498577Y306080D01*
X498536Y306233D01*
X498499Y306387D01*
X498466Y306542D01*
X498436Y306697D01*
X498411Y306854D01*
X498389Y307010D01*
X498372Y307168D01*
X498358Y307325D01*
X498348Y307483D01*
X498342Y307642D01*
X498340Y307800D01*
X498342Y307958D01*
X498348Y308117D01*
X498358Y308275D01*
X498372Y308432D01*
X498389Y308590D01*
X498411Y308746D01*
X498436Y308903D01*
X498466Y309058D01*
X498499Y309213D01*
X498536Y309367D01*
X498577Y309520D01*
X498622Y309672D01*
X498671Y309822D01*
X498723Y309972D01*
X498779Y310120D01*
X498839Y310267D01*
X498902Y310412D01*
X498969Y310555D01*
X499039Y310697D01*
X499113Y310837D01*
X499191Y310975D01*
X499272Y311111D01*
X499356Y311245D01*
X499443Y311377D01*
X499534Y311507D01*
X499628Y311634D01*
X499725Y311759D01*
X499826Y311882D01*
X499929Y312002D01*
X500035Y312119D01*
X500144Y312234D01*
X500256Y312346D01*
X500371Y312455D01*
X500488Y312561D01*
X500608Y312664D01*
X500731Y312765D01*
X500856Y312862D01*
X500983Y312956D01*
X501113Y313047D01*
X501245Y313134D01*
X501379Y313218D01*
X501515Y313299D01*
X501653Y313377D01*
X501793Y313451D01*
X501935Y313521D01*
X502078Y313588D01*
X502223Y313651D01*
X502370Y313711D01*
X502518Y313767D01*
X502668Y313819D01*
X502818Y313868D01*
X502970Y313913D01*
X503123Y313954D01*
X503277Y313991D01*
X503432Y314024D01*
X503587Y314054D01*
X503744Y314079D01*
X503900Y314101D01*
X504058Y314118D01*
X504215Y314132D01*
X504373Y314142D01*
X504532Y314148D01*
X504690Y314150D01*
X503420Y382730D02*
X503295Y382827D01*
X503172Y382926D01*
X503051Y383029D01*
X502933Y383135D01*
X502818Y383243D01*
X502705Y383355D01*
X502596Y383469D01*
X502489Y383586D01*
X502385Y383705D01*
X502284Y383827D01*
X502187Y383952D01*
X502092Y384079D01*
X502000Y384208D01*
X501912Y384339D01*
X501827Y384473D01*
X501746Y384609D01*
X501668Y384747D01*
X501593Y384886D01*
X501522Y385028D01*
X501454Y385171D01*
X501390Y385316D01*
X501330Y385462D01*
X501273Y385610D01*
X501220Y385759D01*
X501171Y385909D01*
X501126Y386061D01*
X501084Y386214D01*
X501046Y386368D01*
X501012Y386522D01*
X500982Y386678D01*
X500956Y386834D01*
X500933Y386990D01*
X500915Y387148D01*
X500900Y387305D01*
X500889Y387463D01*
X500883Y387621D01*
X500880Y387780D01*
X500881Y387938D01*
X500886Y388096D01*
X500896Y388254D01*
X500909Y388412D01*
X500926Y388570D01*
X500946Y388726D01*
X500971Y388883D01*
X501000Y389039D01*
X501033Y389193D01*
X501069Y389348D01*
X501109Y389501D01*
X501153Y389653D01*
X501201Y389804D01*
X501253Y389953D01*
X501308Y390102D01*
X501367Y390249D01*
X501430Y390394D01*
X501496Y390538D01*
X501566Y390680D01*
X501639Y390820D01*
X501716Y390959D01*
X501796Y391095D01*
X501879Y391230D01*
X501966Y391362D01*
X502057Y391492D01*
X502150Y391620D01*
X502247Y391745D01*
X502346Y391868D01*
X502449Y391989D01*
X502555Y392107D01*
X502663Y392222D01*
X502775Y392335D01*
X502889Y392444D01*
X503006Y392551D01*
X503125Y392655D01*
X503247Y392756D01*
X503372Y392853D01*
X503499Y392948D01*
X503628Y393040D01*
X503759Y393128D01*
X503893Y393213D01*
X504029Y393294D01*
X504167Y393372D01*
X504306Y393447D01*
X504448Y393518D01*
X504591Y393586D01*
X504736Y393650D01*
X504882Y393710D01*
X505030Y393767D01*
X505179Y393820D01*
X505329Y393869D01*
X505481Y393914D01*
X505634Y393956D01*
X505788Y393994D01*
X505942Y394028D01*
X506098Y394058D01*
X506254Y394084D01*
X506410Y394107D01*
X506568Y394125D01*
X506725Y394140D01*
X506883Y394151D01*
X507041Y394157D01*
X507200Y394160D01*
X507358Y394159D01*
X507516Y394154D01*
X507674Y394144D01*
X507832Y394131D01*
X507990Y394114D01*
X508146Y394094D01*
X508303Y394069D01*
X508459Y394040D01*
X508613Y394007D01*
X508768Y393971D01*
X508921Y393931D01*
X509073Y393887D01*
X509224Y393839D01*
X509373Y393787D01*
X509522Y393732D01*
X509669Y393673D01*
X509814Y393610D01*
X509958Y393544D01*
X510100Y393474D01*
X510240Y393401D01*
X510379Y393324D01*
X510515Y393244D01*
X510650Y393161D01*
X510782Y393074D01*
X510912Y392983D01*
X511040Y392890D01*
X506322Y351374D02*
X506157Y351399D01*
X505992Y351421D01*
X505826Y351438D01*
X505660Y351451D01*
X505493Y351461D01*
X505327Y351466D01*
X505160Y351467D01*
X504993Y351464D01*
X504826Y351457D01*
X504660Y351446D01*
X504494Y351431D01*
X504328Y351412D01*
X504163Y351388D01*
X503999Y351361D01*
X503835Y351330D01*
X503672Y351295D01*
X503510Y351256D01*
X503349Y351212D01*
X503189Y351165D01*
X503030Y351115D01*
X502872Y351060D01*
X502716Y351001D01*
X502562Y350939D01*
X502409Y350873D01*
X502257Y350803D01*
X502108Y350729D01*
X501960Y350652D01*
X501814Y350571D01*
X501670Y350487D01*
X501528Y350399D01*
X501388Y350308D01*
X501251Y350214D01*
X501116Y350116D01*
X500984Y350015D01*
X500853Y349910D01*
X500726Y349803D01*
X500601Y349692D01*
X500479Y349579D01*
X500360Y349462D01*
X500243Y349343D01*
X500130Y349221D01*
X500019Y349096D01*
X499912Y348968D01*
X499808Y348838D01*
X499707Y348705D01*
X499609Y348570D01*
X499515Y348433D01*
X499423Y348293D01*
X499336Y348151D01*
X499252Y348007D01*
X499171Y347861D01*
X499094Y347713D01*
X499021Y347564D01*
X498951Y347412D01*
X498885Y347259D01*
X498823Y347104D01*
X498764Y346948D01*
X498710Y346791D01*
X498659Y346632D01*
X498612Y346472D01*
X498569Y346311D01*
X498530Y346148D01*
X498495Y345985D01*
X498464Y345822D01*
X498437Y345657D01*
X498414Y345492D01*
X498395Y345326D01*
X498380Y345160D01*
X498369Y344994D01*
X498362Y344827D01*
X498359Y344660D01*
X498360Y344494D01*
X498366Y344327D01*
X498375Y344160D01*
X498389Y343994D01*
X498406Y343828D01*
X498428Y343663D01*
X498453Y343498D01*
X498483Y343334D01*
X498516Y343171D01*
X498554Y343008D01*
X498595Y342847D01*
X498641Y342686D01*
X498690Y342527D01*
X498743Y342369D01*
X498800Y342212D01*
X498861Y342057D01*
X498926Y341903D01*
X498994Y341751D01*
X499066Y341601D01*
X499142Y341452D01*
X499221Y341306D01*
X499304Y341161D01*
X499390Y341018D01*
X499480Y340878D01*
X499573Y340739D01*
X499670Y340603D01*
X499769Y340470D01*
X499872Y340339D01*
X499979Y340210D01*
X500088Y340084D01*
X500200Y339961D01*
X500316Y339840D01*
X500434Y339723D01*
X500555Y339608D01*
X500679Y339496D01*
X500805Y339388D01*
X500934Y339282D01*
X501066Y339180D01*
X501200Y339081D01*
X501337Y338985D01*
X501475Y338893D01*
X501616Y338803D01*
X501759Y338718D01*
X501905Y338636D01*
X502052Y338557D01*
X502201Y338482D01*
X502351Y338411D01*
X502504Y338344D01*
X502658Y338280D01*
X531360Y385270D02*
X531299Y385417D01*
X531241Y385565D01*
X531186Y385715D01*
X531136Y385866D01*
X531089Y386018D01*
X531046Y386172D01*
X531007Y386326D01*
X530972Y386481D01*
X530941Y386638D01*
X530913Y386795D01*
X530890Y386952D01*
X530871Y387110D01*
X530855Y387269D01*
X530843Y387428D01*
X530836Y387587D01*
X530832Y387746D01*
X530833Y387905D01*
X530837Y388064D01*
X530845Y388223D01*
X530858Y388382D01*
X530874Y388541D01*
X530894Y388699D01*
X530918Y388856D01*
X530947Y389013D01*
X530979Y389169D01*
X531014Y389324D01*
X531054Y389478D01*
X531098Y389631D01*
X531145Y389783D01*
X531197Y389934D01*
X531252Y390084D01*
X531310Y390232D01*
X531373Y390378D01*
X531439Y390523D01*
X531508Y390666D01*
X531581Y390808D01*
X531658Y390947D01*
X531738Y391085D01*
X531822Y391221D01*
X531909Y391354D01*
X531999Y391485D01*
X532093Y391614D01*
X532189Y391741D01*
X532289Y391865D01*
X532392Y391987D01*
X532498Y392105D01*
X532607Y392222D01*
X532718Y392335D01*
X532833Y392446D01*
X532950Y392554D01*
X533070Y392659D01*
X533193Y392760D01*
X533318Y392859D01*
X533445Y392955D01*
X533575Y393047D01*
X533707Y393136D01*
X533841Y393222D01*
X533977Y393304D01*
X534116Y393383D01*
X534256Y393458D01*
X534398Y393530D01*
X534542Y393599D01*
X534687Y393663D01*
X534835Y393724D01*
X534983Y393782D01*
X535133Y393835D01*
X535284Y393885D01*
X535437Y393931D01*
X535590Y393974D01*
X535745Y394012D01*
X535900Y394046D01*
X536057Y394077D01*
X536214Y394104D01*
X536371Y394126D01*
X536530Y394145D01*
X536688Y394160D01*
X536847Y394171D01*
X537006Y394178D01*
X537165Y394181D01*
X537325Y394180D01*
X537484Y394175D01*
X537643Y394166D01*
X537802Y394153D01*
X537960Y394136D01*
X538118Y394115D01*
X538275Y394090D01*
X538432Y394061D01*
X538588Y394029D01*
X538743Y393992D01*
X538897Y393952D01*
X539050Y393907D01*
X539202Y393859D01*
X539352Y393808D01*
X539501Y393752D01*
X539649Y393693D01*
X539796Y393630D01*
X539940Y393563D01*
X540083Y393493D01*
X540224Y393419D01*
X540364Y393342D01*
X540501Y393261D01*
X540636Y393177D01*
X540769Y393089D01*
X540900Y392999D01*
X541029Y392905D01*
X541155Y392807D01*
X541278Y392707D01*
X541400Y392604D01*
X541518Y392497D01*
X541634Y392388D01*
X541747Y392276D01*
X541857Y392161D01*
X541964Y392043D01*
X542069Y391923D01*
X542170Y391800D01*
X542268Y391674D01*
X542363Y391547D01*
X542455Y391416D01*
X542544Y391284D01*
X542629Y391149D01*
X542710Y391013D01*
X542789Y390874D01*
X542864Y390733D01*
X542935Y390591D01*
X543003Y390447D01*
X554220Y298910D02*
X504690Y301450D01*
X527296Y345646D02*
X505960Y351488D01*
X503928Y314150D02*
X544822Y318722D01*
X535678Y367744D02*
X531360Y385270D01*
X544822Y321516D02*
X544822Y318722D01*
X544822Y321516D02*
X502658Y338280D01*
X527296Y345646D02*
X528312Y347678D01*
X502404Y383746D01*
X533900Y366474D02*
X535678Y367744D01*
X533900Y366474D02*
X511040Y392890D01*
X618990Y136350D02*
X619148Y136348D01*
X619307Y136342D01*
X619465Y136332D01*
X619622Y136318D01*
X619780Y136301D01*
X619936Y136279D01*
X620093Y136254D01*
X620248Y136224D01*
X620403Y136191D01*
X620557Y136154D01*
X620710Y136113D01*
X620862Y136068D01*
X621012Y136019D01*
X621162Y135967D01*
X621310Y135911D01*
X621457Y135851D01*
X621602Y135788D01*
X621745Y135721D01*
X621887Y135651D01*
X622027Y135577D01*
X622165Y135499D01*
X622301Y135418D01*
X622435Y135334D01*
X622567Y135247D01*
X622697Y135156D01*
X622824Y135062D01*
X622949Y134965D01*
X623072Y134864D01*
X623192Y134761D01*
X623309Y134655D01*
X623424Y134546D01*
X623536Y134434D01*
X623645Y134319D01*
X623751Y134202D01*
X623854Y134082D01*
X623955Y133959D01*
X624052Y133834D01*
X624146Y133707D01*
X624237Y133577D01*
X624324Y133445D01*
X624408Y133311D01*
X624489Y133175D01*
X624567Y133037D01*
X624641Y132897D01*
X624711Y132755D01*
X624778Y132612D01*
X624841Y132467D01*
X624901Y132320D01*
X624957Y132172D01*
X625009Y132022D01*
X625058Y131872D01*
X625103Y131720D01*
X625144Y131567D01*
X625181Y131413D01*
X625214Y131258D01*
X625244Y131103D01*
X625269Y130946D01*
X625291Y130790D01*
X625308Y130632D01*
X625322Y130475D01*
X625332Y130317D01*
X625338Y130158D01*
X625340Y130000D01*
X625338Y129842D01*
X625332Y129683D01*
X625322Y129525D01*
X625308Y129368D01*
X625291Y129210D01*
X625269Y129054D01*
X625244Y128897D01*
X625214Y128742D01*
X625181Y128587D01*
X625144Y128433D01*
X625103Y128280D01*
X625058Y128128D01*
X625009Y127978D01*
X624957Y127828D01*
X624901Y127680D01*
X624841Y127533D01*
X624778Y127388D01*
X624711Y127245D01*
X624641Y127103D01*
X624567Y126963D01*
X624489Y126825D01*
X624408Y126689D01*
X624324Y126555D01*
X624237Y126423D01*
X624146Y126293D01*
X624052Y126166D01*
X623955Y126041D01*
X623854Y125918D01*
X623751Y125798D01*
X623645Y125681D01*
X623536Y125566D01*
X623424Y125454D01*
X623309Y125345D01*
X623192Y125239D01*
X623072Y125136D01*
X622949Y125035D01*
X622824Y124938D01*
X622697Y124844D01*
X622567Y124753D01*
X622435Y124666D01*
X622301Y124582D01*
X622165Y124501D01*
X622027Y124423D01*
X621887Y124349D01*
X621745Y124279D01*
X621602Y124212D01*
X621457Y124149D01*
X621310Y124089D01*
X621162Y124033D01*
X621012Y123981D01*
X620862Y123932D01*
X620710Y123887D01*
X620557Y123846D01*
X620403Y123809D01*
X620248Y123776D01*
X620093Y123746D01*
X619936Y123721D01*
X619780Y123699D01*
X619622Y123682D01*
X619465Y123668D01*
X619307Y123658D01*
X619148Y123652D01*
X618990Y123650D01*
X620260Y55070D02*
X620385Y54973D01*
X620508Y54874D01*
X620629Y54771D01*
X620747Y54665D01*
X620862Y54557D01*
X620975Y54445D01*
X621084Y54331D01*
X621191Y54214D01*
X621295Y54095D01*
X621396Y53973D01*
X621493Y53848D01*
X621588Y53721D01*
X621680Y53592D01*
X621768Y53461D01*
X621853Y53327D01*
X621934Y53191D01*
X622012Y53053D01*
X622087Y52914D01*
X622158Y52772D01*
X622226Y52629D01*
X622290Y52484D01*
X622350Y52338D01*
X622407Y52190D01*
X622460Y52041D01*
X622509Y51891D01*
X622554Y51739D01*
X622596Y51586D01*
X622634Y51432D01*
X622668Y51278D01*
X622698Y51122D01*
X622724Y50966D01*
X622747Y50810D01*
X622765Y50652D01*
X622780Y50495D01*
X622791Y50337D01*
X622797Y50179D01*
X622800Y50020D01*
X622799Y49862D01*
X622794Y49704D01*
X622784Y49546D01*
X622771Y49388D01*
X622754Y49230D01*
X622734Y49074D01*
X622709Y48917D01*
X622680Y48761D01*
X622647Y48607D01*
X622611Y48452D01*
X622571Y48299D01*
X622527Y48147D01*
X622479Y47996D01*
X622427Y47847D01*
X622372Y47698D01*
X622313Y47551D01*
X622250Y47406D01*
X622184Y47262D01*
X622114Y47120D01*
X622041Y46980D01*
X621964Y46841D01*
X621884Y46705D01*
X621801Y46570D01*
X621714Y46438D01*
X621623Y46308D01*
X621530Y46180D01*
X621433Y46055D01*
X621334Y45932D01*
X621231Y45811D01*
X621125Y45693D01*
X621017Y45578D01*
X620905Y45465D01*
X620791Y45356D01*
X620674Y45249D01*
X620555Y45145D01*
X620433Y45044D01*
X620308Y44947D01*
X620181Y44852D01*
X620052Y44760D01*
X619921Y44672D01*
X619787Y44587D01*
X619651Y44506D01*
X619513Y44428D01*
X619374Y44353D01*
X619232Y44282D01*
X619089Y44214D01*
X618944Y44150D01*
X618798Y44090D01*
X618650Y44033D01*
X618501Y43980D01*
X618351Y43931D01*
X618199Y43886D01*
X618046Y43844D01*
X617892Y43806D01*
X617738Y43772D01*
X617582Y43742D01*
X617426Y43716D01*
X617270Y43693D01*
X617112Y43675D01*
X616955Y43660D01*
X616797Y43649D01*
X616639Y43643D01*
X616480Y43640D01*
X616322Y43641D01*
X616164Y43646D01*
X616006Y43656D01*
X615848Y43669D01*
X615690Y43686D01*
X615534Y43706D01*
X615377Y43731D01*
X615221Y43760D01*
X615067Y43793D01*
X614912Y43829D01*
X614759Y43869D01*
X614607Y43913D01*
X614456Y43961D01*
X614307Y44013D01*
X614158Y44068D01*
X614011Y44127D01*
X613866Y44190D01*
X613722Y44256D01*
X613580Y44326D01*
X613440Y44399D01*
X613301Y44476D01*
X613165Y44556D01*
X613030Y44639D01*
X612898Y44726D01*
X612768Y44817D01*
X612640Y44910D01*
X617358Y86424D02*
X617523Y86399D01*
X617688Y86377D01*
X617854Y86360D01*
X618020Y86347D01*
X618187Y86337D01*
X618354Y86332D01*
X618521Y86331D01*
X618687Y86334D01*
X618854Y86341D01*
X619020Y86352D01*
X619186Y86367D01*
X619352Y86386D01*
X619517Y86410D01*
X619682Y86437D01*
X619846Y86468D01*
X620009Y86503D01*
X620171Y86543D01*
X620332Y86586D01*
X620492Y86633D01*
X620651Y86684D01*
X620808Y86738D01*
X620965Y86797D01*
X621119Y86859D01*
X621272Y86926D01*
X621424Y86995D01*
X621574Y87069D01*
X621721Y87146D01*
X621867Y87227D01*
X622011Y87311D01*
X622153Y87399D01*
X622293Y87490D01*
X622430Y87585D01*
X622565Y87683D01*
X622698Y87784D01*
X622828Y87888D01*
X622955Y87996D01*
X623080Y88106D01*
X623202Y88220D01*
X623322Y88337D01*
X623438Y88456D01*
X623552Y88578D01*
X623662Y88703D01*
X623770Y88831D01*
X623874Y88961D01*
X623975Y89094D01*
X624073Y89229D01*
X624167Y89366D01*
X624258Y89506D01*
X624346Y89648D01*
X624430Y89792D01*
X624511Y89938D01*
X624588Y90086D01*
X624661Y90236D01*
X624731Y90387D01*
X624797Y90540D01*
X624859Y90695D01*
X624918Y90851D01*
X624972Y91009D01*
X625023Y91168D01*
X625070Y91328D01*
X625113Y91489D01*
X625152Y91651D01*
X625187Y91814D01*
X625218Y91978D01*
X625245Y92143D01*
X625268Y92308D01*
X625287Y92474D01*
X625302Y92640D01*
X625313Y92806D01*
X625320Y92973D01*
X625323Y93140D01*
X625322Y93306D01*
X625316Y93473D01*
X625307Y93640D01*
X625293Y93806D01*
X625276Y93972D01*
X625254Y94137D01*
X625229Y94302D01*
X625199Y94466D01*
X625166Y94630D01*
X625128Y94792D01*
X625087Y94954D01*
X625041Y95114D01*
X624992Y95273D01*
X624939Y95432D01*
X624882Y95588D01*
X624821Y95744D01*
X624756Y95897D01*
X624688Y96050D01*
X624616Y96200D01*
X624540Y96349D01*
X624461Y96495D01*
X624378Y96640D01*
X624292Y96783D01*
X624202Y96923D01*
X624109Y97062D01*
X624012Y97198D01*
X623912Y97331D01*
X623809Y97463D01*
X623703Y97591D01*
X623594Y97717D01*
X623481Y97840D01*
X623366Y97961D01*
X623248Y98078D01*
X623127Y98193D01*
X623003Y98305D01*
X622876Y98414D01*
X622747Y98519D01*
X622615Y98622D01*
X622481Y98721D01*
X622345Y98817D01*
X622206Y98909D01*
X622065Y98998D01*
X621922Y99084D01*
X621777Y99166D01*
X621629Y99244D01*
X621480Y99319D01*
X621330Y99391D01*
X621177Y99458D01*
X621023Y99522D01*
X592318Y52529D02*
X592380Y52382D01*
X592438Y52234D01*
X592492Y52084D01*
X592542Y51933D01*
X592589Y51781D01*
X592632Y51628D01*
X592671Y51473D01*
X592706Y51318D01*
X592737Y51162D01*
X592765Y51005D01*
X592788Y50848D01*
X592807Y50689D01*
X592823Y50531D01*
X592835Y50372D01*
X592842Y50213D01*
X592846Y50054D01*
X592845Y49895D01*
X592841Y49736D01*
X592833Y49577D01*
X592820Y49418D01*
X592804Y49260D01*
X592784Y49102D01*
X592760Y48944D01*
X592731Y48788D01*
X592699Y48632D01*
X592664Y48476D01*
X592624Y48322D01*
X592580Y48169D01*
X592533Y48017D01*
X592482Y47866D01*
X592427Y47717D01*
X592368Y47569D01*
X592306Y47422D01*
X592240Y47278D01*
X592170Y47134D01*
X592097Y46993D01*
X592020Y46853D01*
X591940Y46716D01*
X591856Y46580D01*
X591769Y46447D01*
X591679Y46316D01*
X591586Y46187D01*
X591489Y46060D01*
X591389Y45936D01*
X591286Y45815D01*
X591181Y45696D01*
X591072Y45580D01*
X590960Y45466D01*
X590846Y45355D01*
X590728Y45248D01*
X590609Y45143D01*
X590486Y45041D01*
X590361Y44942D01*
X590234Y44847D01*
X590104Y44755D01*
X589972Y44666D01*
X589838Y44580D01*
X589702Y44498D01*
X589563Y44419D01*
X589423Y44343D01*
X589281Y44271D01*
X589137Y44203D01*
X588992Y44138D01*
X588845Y44077D01*
X588696Y44020D01*
X588546Y43966D01*
X588395Y43917D01*
X588242Y43871D01*
X588089Y43828D01*
X587934Y43790D01*
X587779Y43756D01*
X587623Y43725D01*
X587466Y43698D01*
X587308Y43675D01*
X587150Y43657D01*
X586992Y43642D01*
X586833Y43631D01*
X586674Y43624D01*
X586514Y43621D01*
X586355Y43622D01*
X586196Y43627D01*
X586037Y43636D01*
X585878Y43649D01*
X585720Y43666D01*
X585562Y43687D01*
X585405Y43712D01*
X585248Y43741D01*
X585093Y43773D01*
X584938Y43810D01*
X584784Y43850D01*
X584631Y43894D01*
X584479Y43943D01*
X584328Y43994D01*
X584179Y44050D01*
X584031Y44109D01*
X583885Y44172D01*
X583741Y44239D01*
X583598Y44309D01*
X583457Y44383D01*
X583317Y44460D01*
X583180Y44541D01*
X583045Y44625D01*
X582912Y44712D01*
X582781Y44803D01*
X582653Y44897D01*
X582526Y44994D01*
X582403Y45095D01*
X582282Y45198D01*
X582163Y45304D01*
X582047Y45414D01*
X581934Y45526D01*
X581824Y45641D01*
X581717Y45758D01*
X581613Y45879D01*
X581511Y46002D01*
X581413Y46127D01*
X581318Y46255D01*
X581227Y46385D01*
X581138Y46517D01*
X581053Y46652D01*
X580971Y46788D01*
X580893Y46927D01*
X580818Y47068D01*
X580747Y47210D01*
X580679Y47354D01*
X569460Y138890D02*
X618990Y136350D01*
X596384Y92154D02*
X617720Y86312D01*
X619498Y123650D02*
X578858Y119078D01*
X590542Y67516D02*
X592320Y52530D01*
X578858Y116284D02*
X578858Y119078D01*
X578858Y116284D02*
X621022Y99520D01*
X596384Y92154D02*
X595368Y90122D01*
X621276Y54054D01*
X592320Y68786D02*
X590542Y67516D01*
X592320Y68786D02*
X612640Y44910D01*
X618990Y301450D02*
X619148Y301452D01*
X619307Y301458D01*
X619465Y301468D01*
X619622Y301482D01*
X619780Y301499D01*
X619936Y301521D01*
X620093Y301546D01*
X620248Y301576D01*
X620403Y301609D01*
X620557Y301646D01*
X620710Y301687D01*
X620862Y301732D01*
X621012Y301781D01*
X621162Y301833D01*
X621310Y301889D01*
X621457Y301949D01*
X621602Y302012D01*
X621745Y302079D01*
X621887Y302149D01*
X622027Y302223D01*
X622165Y302301D01*
X622301Y302382D01*
X622435Y302466D01*
X622567Y302553D01*
X622697Y302644D01*
X622824Y302738D01*
X622949Y302835D01*
X623072Y302936D01*
X623192Y303039D01*
X623309Y303145D01*
X623424Y303254D01*
X623536Y303366D01*
X623645Y303481D01*
X623751Y303598D01*
X623854Y303718D01*
X623955Y303841D01*
X624052Y303966D01*
X624146Y304093D01*
X624237Y304223D01*
X624324Y304355D01*
X624408Y304489D01*
X624489Y304625D01*
X624567Y304763D01*
X624641Y304903D01*
X624711Y305045D01*
X624778Y305188D01*
X624841Y305333D01*
X624901Y305480D01*
X624957Y305628D01*
X625009Y305778D01*
X625058Y305928D01*
X625103Y306080D01*
X625144Y306233D01*
X625181Y306387D01*
X625214Y306542D01*
X625244Y306697D01*
X625269Y306854D01*
X625291Y307010D01*
X625308Y307168D01*
X625322Y307325D01*
X625332Y307483D01*
X625338Y307642D01*
X625340Y307800D01*
X625338Y307958D01*
X625332Y308117D01*
X625322Y308275D01*
X625308Y308432D01*
X625291Y308590D01*
X625269Y308746D01*
X625244Y308903D01*
X625214Y309058D01*
X625181Y309213D01*
X625144Y309367D01*
X625103Y309520D01*
X625058Y309672D01*
X625009Y309822D01*
X624957Y309972D01*
X624901Y310120D01*
X624841Y310267D01*
X624778Y310412D01*
X624711Y310555D01*
X624641Y310697D01*
X624567Y310837D01*
X624489Y310975D01*
X624408Y311111D01*
X624324Y311245D01*
X624237Y311377D01*
X624146Y311507D01*
X624052Y311634D01*
X623955Y311759D01*
X623854Y311882D01*
X623751Y312002D01*
X623645Y312119D01*
X623536Y312234D01*
X623424Y312346D01*
X623309Y312455D01*
X623192Y312561D01*
X623072Y312664D01*
X622949Y312765D01*
X622824Y312862D01*
X622697Y312956D01*
X622567Y313047D01*
X622435Y313134D01*
X622301Y313218D01*
X622165Y313299D01*
X622027Y313377D01*
X621887Y313451D01*
X621745Y313521D01*
X621602Y313588D01*
X621457Y313651D01*
X621310Y313711D01*
X621162Y313767D01*
X621012Y313819D01*
X620862Y313868D01*
X620710Y313913D01*
X620557Y313954D01*
X620403Y313991D01*
X620248Y314024D01*
X620093Y314054D01*
X619936Y314079D01*
X619780Y314101D01*
X619622Y314118D01*
X619465Y314132D01*
X619307Y314142D01*
X619148Y314148D01*
X618990Y314150D01*
X620260Y382730D02*
X620385Y382827D01*
X620508Y382926D01*
X620629Y383029D01*
X620747Y383135D01*
X620862Y383243D01*
X620975Y383355D01*
X621084Y383469D01*
X621191Y383586D01*
X621295Y383705D01*
X621396Y383827D01*
X621493Y383952D01*
X621588Y384079D01*
X621680Y384208D01*
X621768Y384339D01*
X621853Y384473D01*
X621934Y384609D01*
X622012Y384747D01*
X622087Y384886D01*
X622158Y385028D01*
X622226Y385171D01*
X622290Y385316D01*
X622350Y385462D01*
X622407Y385610D01*
X622460Y385759D01*
X622509Y385909D01*
X622554Y386061D01*
X622596Y386214D01*
X622634Y386368D01*
X622668Y386522D01*
X622698Y386678D01*
X622724Y386834D01*
X622747Y386990D01*
X622765Y387148D01*
X622780Y387305D01*
X622791Y387463D01*
X622797Y387621D01*
X622800Y387780D01*
X622799Y387938D01*
X622794Y388096D01*
X622784Y388254D01*
X622771Y388412D01*
X622754Y388570D01*
X622734Y388726D01*
X622709Y388883D01*
X622680Y389039D01*
X622647Y389193D01*
X622611Y389348D01*
X622571Y389501D01*
X622527Y389653D01*
X622479Y389804D01*
X622427Y389953D01*
X622372Y390102D01*
X622313Y390249D01*
X622250Y390394D01*
X622184Y390538D01*
X622114Y390680D01*
X622041Y390820D01*
X621964Y390959D01*
X621884Y391095D01*
X621801Y391230D01*
X621714Y391362D01*
X621623Y391492D01*
X621530Y391620D01*
X621433Y391745D01*
X621334Y391868D01*
X621231Y391989D01*
X621125Y392107D01*
X621017Y392222D01*
X620905Y392335D01*
X620791Y392444D01*
X620674Y392551D01*
X620555Y392655D01*
X620433Y392756D01*
X620308Y392853D01*
X620181Y392948D01*
X620052Y393040D01*
X619921Y393128D01*
X619787Y393213D01*
X619651Y393294D01*
X619513Y393372D01*
X619374Y393447D01*
X619232Y393518D01*
X619089Y393586D01*
X618944Y393650D01*
X618798Y393710D01*
X618650Y393767D01*
X618501Y393820D01*
X618351Y393869D01*
X618199Y393914D01*
X618046Y393956D01*
X617892Y393994D01*
X617738Y394028D01*
X617582Y394058D01*
X617426Y394084D01*
X617270Y394107D01*
X617112Y394125D01*
X616955Y394140D01*
X616797Y394151D01*
X616639Y394157D01*
X616480Y394160D01*
X616322Y394159D01*
X616164Y394154D01*
X616006Y394144D01*
X615848Y394131D01*
X615690Y394114D01*
X615534Y394094D01*
X615377Y394069D01*
X615221Y394040D01*
X615067Y394007D01*
X614912Y393971D01*
X614759Y393931D01*
X614607Y393887D01*
X614456Y393839D01*
X614307Y393787D01*
X614158Y393732D01*
X614011Y393673D01*
X613866Y393610D01*
X613722Y393544D01*
X613580Y393474D01*
X613440Y393401D01*
X613301Y393324D01*
X613165Y393244D01*
X613030Y393161D01*
X612898Y393074D01*
X612768Y392983D01*
X612640Y392890D01*
X617358Y351374D02*
X617523Y351399D01*
X617688Y351421D01*
X617854Y351438D01*
X618020Y351451D01*
X618187Y351461D01*
X618353Y351466D01*
X618520Y351467D01*
X618687Y351464D01*
X618854Y351457D01*
X619020Y351446D01*
X619186Y351431D01*
X619352Y351412D01*
X619517Y351388D01*
X619681Y351361D01*
X619845Y351330D01*
X620008Y351295D01*
X620170Y351256D01*
X620331Y351212D01*
X620491Y351165D01*
X620650Y351115D01*
X620808Y351060D01*
X620964Y351001D01*
X621118Y350939D01*
X621271Y350873D01*
X621423Y350803D01*
X621572Y350729D01*
X621720Y350652D01*
X621866Y350571D01*
X622010Y350487D01*
X622152Y350399D01*
X622292Y350308D01*
X622429Y350214D01*
X622564Y350116D01*
X622696Y350015D01*
X622827Y349910D01*
X622954Y349803D01*
X623079Y349692D01*
X623201Y349579D01*
X623320Y349462D01*
X623437Y349343D01*
X623550Y349221D01*
X623661Y349096D01*
X623768Y348968D01*
X623872Y348838D01*
X623973Y348705D01*
X624071Y348570D01*
X624165Y348433D01*
X624257Y348293D01*
X624344Y348151D01*
X624428Y348007D01*
X624509Y347861D01*
X624586Y347713D01*
X624659Y347564D01*
X624729Y347412D01*
X624795Y347259D01*
X624857Y347104D01*
X624916Y346948D01*
X624970Y346791D01*
X625021Y346632D01*
X625068Y346472D01*
X625111Y346311D01*
X625150Y346148D01*
X625185Y345985D01*
X625216Y345822D01*
X625243Y345657D01*
X625266Y345492D01*
X625285Y345326D01*
X625300Y345160D01*
X625311Y344994D01*
X625318Y344827D01*
X625321Y344660D01*
X625320Y344494D01*
X625314Y344327D01*
X625305Y344160D01*
X625291Y343994D01*
X625274Y343828D01*
X625252Y343663D01*
X625227Y343498D01*
X625197Y343334D01*
X625164Y343171D01*
X625126Y343008D01*
X625085Y342847D01*
X625039Y342686D01*
X624990Y342527D01*
X624937Y342369D01*
X624880Y342212D01*
X624819Y342057D01*
X624754Y341903D01*
X624686Y341751D01*
X624614Y341601D01*
X624538Y341452D01*
X624459Y341306D01*
X624376Y341161D01*
X624290Y341018D01*
X624200Y340878D01*
X624107Y340739D01*
X624010Y340603D01*
X623911Y340470D01*
X623808Y340339D01*
X623701Y340210D01*
X623592Y340084D01*
X623480Y339961D01*
X623364Y339840D01*
X623246Y339723D01*
X623125Y339608D01*
X623001Y339496D01*
X622875Y339388D01*
X622746Y339282D01*
X622614Y339180D01*
X622480Y339081D01*
X622343Y338985D01*
X622205Y338893D01*
X622064Y338803D01*
X621921Y338718D01*
X621775Y338636D01*
X621628Y338557D01*
X621479Y338482D01*
X621329Y338411D01*
X621176Y338344D01*
X621022Y338280D01*
X592320Y385270D02*
X592381Y385417D01*
X592439Y385565D01*
X592494Y385715D01*
X592544Y385866D01*
X592591Y386018D01*
X592634Y386172D01*
X592673Y386326D01*
X592708Y386481D01*
X592739Y386638D01*
X592767Y386795D01*
X592790Y386952D01*
X592809Y387110D01*
X592825Y387269D01*
X592837Y387428D01*
X592844Y387587D01*
X592848Y387746D01*
X592847Y387905D01*
X592843Y388064D01*
X592835Y388223D01*
X592822Y388382D01*
X592806Y388541D01*
X592786Y388699D01*
X592762Y388856D01*
X592733Y389013D01*
X592701Y389169D01*
X592666Y389324D01*
X592626Y389478D01*
X592582Y389631D01*
X592535Y389783D01*
X592483Y389934D01*
X592428Y390084D01*
X592370Y390232D01*
X592307Y390378D01*
X592241Y390523D01*
X592172Y390666D01*
X592099Y390808D01*
X592022Y390947D01*
X591942Y391085D01*
X591858Y391221D01*
X591771Y391354D01*
X591681Y391485D01*
X591587Y391614D01*
X591491Y391741D01*
X591391Y391865D01*
X591288Y391987D01*
X591182Y392105D01*
X591073Y392222D01*
X590962Y392335D01*
X590847Y392446D01*
X590730Y392554D01*
X590610Y392659D01*
X590487Y392760D01*
X590362Y392859D01*
X590235Y392955D01*
X590105Y393047D01*
X589973Y393136D01*
X589839Y393222D01*
X589703Y393304D01*
X589564Y393383D01*
X589424Y393458D01*
X589282Y393530D01*
X589138Y393599D01*
X588993Y393663D01*
X588845Y393724D01*
X588697Y393782D01*
X588547Y393835D01*
X588396Y393885D01*
X588243Y393931D01*
X588090Y393974D01*
X587935Y394012D01*
X587780Y394046D01*
X587623Y394077D01*
X587466Y394104D01*
X587309Y394126D01*
X587150Y394145D01*
X586992Y394160D01*
X586833Y394171D01*
X586674Y394178D01*
X586515Y394181D01*
X586355Y394180D01*
X586196Y394175D01*
X586037Y394166D01*
X585878Y394153D01*
X585720Y394136D01*
X585562Y394115D01*
X585405Y394090D01*
X585248Y394061D01*
X585092Y394029D01*
X584937Y393992D01*
X584783Y393952D01*
X584630Y393907D01*
X584478Y393859D01*
X584328Y393808D01*
X584179Y393752D01*
X584031Y393693D01*
X583884Y393630D01*
X583740Y393563D01*
X583597Y393493D01*
X583456Y393419D01*
X583316Y393342D01*
X583179Y393261D01*
X583044Y393177D01*
X582911Y393089D01*
X582780Y392999D01*
X582651Y392905D01*
X582525Y392807D01*
X582402Y392707D01*
X582280Y392604D01*
X582162Y392497D01*
X582046Y392388D01*
X581933Y392276D01*
X581823Y392161D01*
X581716Y392043D01*
X581611Y391923D01*
X581510Y391800D01*
X581412Y391674D01*
X581317Y391547D01*
X581225Y391416D01*
X581136Y391284D01*
X581051Y391149D01*
X580970Y391013D01*
X580891Y390874D01*
X580816Y390733D01*
X580745Y390591D01*
X580677Y390447D01*
X569460Y298910D02*
X618990Y301450D01*
X617720Y351488D02*
X595114Y345646D01*
X578858Y318722D02*
X619244Y314150D01*
X588002Y367744D02*
X592320Y385270D01*
X578858Y321516D02*
X578858Y318722D01*
X578858Y321516D02*
X621022Y338280D01*
X595114Y345646D02*
X594098Y347678D01*
X621276Y383746D01*
X589780Y366474D02*
X588002Y367744D01*
X589780Y366474D02*
X612640Y392890D01*
X504690Y136350D02*
X504532Y136348D01*
X504373Y136342D01*
X504215Y136332D01*
X504058Y136318D01*
X503900Y136301D01*
X503744Y136279D01*
X503587Y136254D01*
X503432Y136224D01*
X503277Y136191D01*
X503123Y136154D01*
X502970Y136113D01*
X502818Y136068D01*
X502668Y136019D01*
X502518Y135967D01*
X502370Y135911D01*
X502223Y135851D01*
X502078Y135788D01*
X501935Y135721D01*
X501793Y135651D01*
X501653Y135577D01*
X501515Y135499D01*
X501379Y135418D01*
X501245Y135334D01*
X501113Y135247D01*
X500983Y135156D01*
X500856Y135062D01*
X500731Y134965D01*
X500608Y134864D01*
X500488Y134761D01*
X500371Y134655D01*
X500256Y134546D01*
X500144Y134434D01*
X500035Y134319D01*
X499929Y134202D01*
X499826Y134082D01*
X499725Y133959D01*
X499628Y133834D01*
X499534Y133707D01*
X499443Y133577D01*
X499356Y133445D01*
X499272Y133311D01*
X499191Y133175D01*
X499113Y133037D01*
X499039Y132897D01*
X498969Y132755D01*
X498902Y132612D01*
X498839Y132467D01*
X498779Y132320D01*
X498723Y132172D01*
X498671Y132022D01*
X498622Y131872D01*
X498577Y131720D01*
X498536Y131567D01*
X498499Y131413D01*
X498466Y131258D01*
X498436Y131103D01*
X498411Y130946D01*
X498389Y130790D01*
X498372Y130632D01*
X498358Y130475D01*
X498348Y130317D01*
X498342Y130158D01*
X498340Y130000D01*
X498342Y129842D01*
X498348Y129683D01*
X498358Y129525D01*
X498372Y129368D01*
X498389Y129210D01*
X498411Y129054D01*
X498436Y128897D01*
X498466Y128742D01*
X498499Y128587D01*
X498536Y128433D01*
X498577Y128280D01*
X498622Y128128D01*
X498671Y127978D01*
X498723Y127828D01*
X498779Y127680D01*
X498839Y127533D01*
X498902Y127388D01*
X498969Y127245D01*
X499039Y127103D01*
X499113Y126963D01*
X499191Y126825D01*
X499272Y126689D01*
X499356Y126555D01*
X499443Y126423D01*
X499534Y126293D01*
X499628Y126166D01*
X499725Y126041D01*
X499826Y125918D01*
X499929Y125798D01*
X500035Y125681D01*
X500144Y125566D01*
X500256Y125454D01*
X500371Y125345D01*
X500488Y125239D01*
X500608Y125136D01*
X500731Y125035D01*
X500856Y124938D01*
X500983Y124844D01*
X501113Y124753D01*
X501245Y124666D01*
X501379Y124582D01*
X501515Y124501D01*
X501653Y124423D01*
X501793Y124349D01*
X501935Y124279D01*
X502078Y124212D01*
X502223Y124149D01*
X502370Y124089D01*
X502518Y124033D01*
X502668Y123981D01*
X502818Y123932D01*
X502970Y123887D01*
X503123Y123846D01*
X503277Y123809D01*
X503432Y123776D01*
X503587Y123746D01*
X503744Y123721D01*
X503900Y123699D01*
X504058Y123682D01*
X504215Y123668D01*
X504373Y123658D01*
X504532Y123652D01*
X504690Y123650D01*
X503420Y55070D02*
X503295Y54973D01*
X503172Y54874D01*
X503051Y54771D01*
X502933Y54665D01*
X502818Y54557D01*
X502705Y54445D01*
X502596Y54331D01*
X502489Y54214D01*
X502385Y54095D01*
X502284Y53973D01*
X502187Y53848D01*
X502092Y53721D01*
X502000Y53592D01*
X501912Y53461D01*
X501827Y53327D01*
X501746Y53191D01*
X501668Y53053D01*
X501593Y52914D01*
X501522Y52772D01*
X501454Y52629D01*
X501390Y52484D01*
X501330Y52338D01*
X501273Y52190D01*
X501220Y52041D01*
X501171Y51891D01*
X501126Y51739D01*
X501084Y51586D01*
X501046Y51432D01*
X501012Y51278D01*
X500982Y51122D01*
X500956Y50966D01*
X500933Y50810D01*
X500915Y50652D01*
X500900Y50495D01*
X500889Y50337D01*
X500883Y50179D01*
X500880Y50020D01*
X500881Y49862D01*
X500886Y49704D01*
X500896Y49546D01*
X500909Y49388D01*
X500926Y49230D01*
X500946Y49074D01*
X500971Y48917D01*
X501000Y48761D01*
X501033Y48607D01*
X501069Y48452D01*
X501109Y48299D01*
X501153Y48147D01*
X501201Y47996D01*
X501253Y47847D01*
X501308Y47698D01*
X501367Y47551D01*
X501430Y47406D01*
X501496Y47262D01*
X501566Y47120D01*
X501639Y46980D01*
X501716Y46841D01*
X501796Y46705D01*
X501879Y46570D01*
X501966Y46438D01*
X502057Y46308D01*
X502150Y46180D01*
X502247Y46055D01*
X502346Y45932D01*
X502449Y45811D01*
X502555Y45693D01*
X502663Y45578D01*
X502775Y45465D01*
X502889Y45356D01*
X503006Y45249D01*
X503125Y45145D01*
X503247Y45044D01*
X503372Y44947D01*
X503499Y44852D01*
X503628Y44760D01*
X503759Y44672D01*
X503893Y44587D01*
X504029Y44506D01*
X504167Y44428D01*
X504306Y44353D01*
X504448Y44282D01*
X504591Y44214D01*
X504736Y44150D01*
X504882Y44090D01*
X505030Y44033D01*
X505179Y43980D01*
X505329Y43931D01*
X505481Y43886D01*
X505634Y43844D01*
X505788Y43806D01*
X505942Y43772D01*
X506098Y43742D01*
X506254Y43716D01*
X506410Y43693D01*
X506568Y43675D01*
X506725Y43660D01*
X506883Y43649D01*
X507041Y43643D01*
X507200Y43640D01*
X507358Y43641D01*
X507516Y43646D01*
X507674Y43656D01*
X507832Y43669D01*
X507990Y43686D01*
X508146Y43706D01*
X508303Y43731D01*
X508459Y43760D01*
X508613Y43793D01*
X508768Y43829D01*
X508921Y43869D01*
X509073Y43913D01*
X509224Y43961D01*
X509373Y44013D01*
X509522Y44068D01*
X509669Y44127D01*
X509814Y44190D01*
X509958Y44256D01*
X510100Y44326D01*
X510240Y44399D01*
X510379Y44476D01*
X510515Y44556D01*
X510650Y44639D01*
X510782Y44726D01*
X510912Y44817D01*
X511040Y44910D01*
X506322Y86424D02*
X506157Y86399D01*
X505992Y86377D01*
X505826Y86360D01*
X505660Y86347D01*
X505493Y86337D01*
X505326Y86332D01*
X505159Y86331D01*
X504993Y86334D01*
X504826Y86341D01*
X504660Y86352D01*
X504494Y86367D01*
X504328Y86386D01*
X504163Y86410D01*
X503998Y86437D01*
X503834Y86468D01*
X503671Y86503D01*
X503509Y86543D01*
X503348Y86586D01*
X503188Y86633D01*
X503029Y86684D01*
X502872Y86738D01*
X502715Y86797D01*
X502561Y86859D01*
X502408Y86926D01*
X502256Y86995D01*
X502106Y87069D01*
X501959Y87146D01*
X501813Y87227D01*
X501669Y87311D01*
X501527Y87399D01*
X501387Y87490D01*
X501250Y87585D01*
X501115Y87683D01*
X500982Y87784D01*
X500852Y87888D01*
X500725Y87996D01*
X500600Y88106D01*
X500478Y88220D01*
X500358Y88337D01*
X500242Y88456D01*
X500128Y88578D01*
X500018Y88703D01*
X499910Y88831D01*
X499806Y88961D01*
X499705Y89094D01*
X499607Y89229D01*
X499513Y89366D01*
X499422Y89506D01*
X499334Y89648D01*
X499250Y89792D01*
X499169Y89938D01*
X499092Y90086D01*
X499019Y90236D01*
X498949Y90387D01*
X498883Y90540D01*
X498821Y90695D01*
X498762Y90851D01*
X498708Y91009D01*
X498657Y91168D01*
X498610Y91328D01*
X498567Y91489D01*
X498528Y91651D01*
X498493Y91814D01*
X498462Y91978D01*
X498435Y92143D01*
X498412Y92308D01*
X498393Y92474D01*
X498378Y92640D01*
X498367Y92806D01*
X498360Y92973D01*
X498357Y93140D01*
X498358Y93306D01*
X498364Y93473D01*
X498373Y93640D01*
X498387Y93806D01*
X498404Y93972D01*
X498426Y94137D01*
X498451Y94302D01*
X498481Y94466D01*
X498514Y94630D01*
X498552Y94792D01*
X498593Y94954D01*
X498639Y95114D01*
X498688Y95273D01*
X498741Y95432D01*
X498798Y95588D01*
X498859Y95744D01*
X498924Y95897D01*
X498992Y96050D01*
X499064Y96200D01*
X499140Y96349D01*
X499219Y96495D01*
X499302Y96640D01*
X499388Y96783D01*
X499478Y96923D01*
X499571Y97062D01*
X499668Y97198D01*
X499768Y97331D01*
X499871Y97463D01*
X499977Y97591D01*
X500086Y97717D01*
X500199Y97840D01*
X500314Y97961D01*
X500432Y98078D01*
X500553Y98193D01*
X500677Y98305D01*
X500804Y98414D01*
X500933Y98519D01*
X501065Y98622D01*
X501199Y98721D01*
X501335Y98817D01*
X501474Y98909D01*
X501615Y98998D01*
X501758Y99084D01*
X501903Y99166D01*
X502051Y99244D01*
X502200Y99319D01*
X502350Y99391D01*
X502503Y99458D01*
X502657Y99522D01*
X531362Y52529D02*
X531300Y52382D01*
X531242Y52234D01*
X531188Y52084D01*
X531138Y51933D01*
X531091Y51781D01*
X531048Y51628D01*
X531009Y51473D01*
X530974Y51318D01*
X530943Y51162D01*
X530915Y51005D01*
X530892Y50848D01*
X530873Y50689D01*
X530857Y50531D01*
X530845Y50372D01*
X530838Y50213D01*
X530834Y50054D01*
X530835Y49895D01*
X530839Y49736D01*
X530847Y49577D01*
X530860Y49418D01*
X530876Y49260D01*
X530896Y49102D01*
X530920Y48944D01*
X530949Y48788D01*
X530981Y48632D01*
X531016Y48476D01*
X531056Y48322D01*
X531100Y48169D01*
X531147Y48017D01*
X531198Y47866D01*
X531253Y47717D01*
X531312Y47569D01*
X531374Y47422D01*
X531440Y47278D01*
X531510Y47134D01*
X531583Y46993D01*
X531660Y46853D01*
X531740Y46716D01*
X531824Y46580D01*
X531911Y46447D01*
X532001Y46316D01*
X532094Y46187D01*
X532191Y46060D01*
X532291Y45936D01*
X532394Y45815D01*
X532499Y45696D01*
X532608Y45580D01*
X532720Y45466D01*
X532834Y45355D01*
X532952Y45248D01*
X533071Y45143D01*
X533194Y45041D01*
X533319Y44942D01*
X533446Y44847D01*
X533576Y44755D01*
X533708Y44666D01*
X533842Y44580D01*
X533978Y44498D01*
X534117Y44419D01*
X534257Y44343D01*
X534399Y44271D01*
X534543Y44203D01*
X534688Y44138D01*
X534835Y44077D01*
X534984Y44020D01*
X535134Y43966D01*
X535285Y43917D01*
X535438Y43871D01*
X535591Y43828D01*
X535746Y43790D01*
X535901Y43756D01*
X536057Y43725D01*
X536214Y43698D01*
X536372Y43675D01*
X536530Y43657D01*
X536688Y43642D01*
X536847Y43631D01*
X537006Y43624D01*
X537166Y43621D01*
X537325Y43622D01*
X537484Y43627D01*
X537643Y43636D01*
X537802Y43649D01*
X537960Y43666D01*
X538118Y43687D01*
X538275Y43712D01*
X538432Y43741D01*
X538587Y43773D01*
X538742Y43810D01*
X538896Y43850D01*
X539049Y43894D01*
X539201Y43943D01*
X539352Y43994D01*
X539501Y44050D01*
X539649Y44109D01*
X539795Y44172D01*
X539939Y44239D01*
X540082Y44309D01*
X540223Y44383D01*
X540363Y44460D01*
X540500Y44541D01*
X540635Y44625D01*
X540768Y44712D01*
X540899Y44803D01*
X541027Y44897D01*
X541154Y44994D01*
X541277Y45095D01*
X541398Y45198D01*
X541517Y45304D01*
X541633Y45414D01*
X541746Y45526D01*
X541856Y45641D01*
X541963Y45758D01*
X542067Y45879D01*
X542169Y46002D01*
X542267Y46127D01*
X542362Y46255D01*
X542453Y46385D01*
X542542Y46517D01*
X542627Y46652D01*
X542709Y46788D01*
X542787Y46927D01*
X542862Y47068D01*
X542933Y47210D01*
X543001Y47354D01*
X554220Y138890D02*
X504690Y136350D01*
X527296Y92154D02*
X505960Y86312D01*
X504182Y123650D02*
X544822Y119078D01*
X534408Y67516D02*
X531360Y52530D01*
X544822Y116284D02*
X544822Y119078D01*
X544822Y116284D02*
X502658Y99520D01*
X527296Y92154D02*
X528312Y90122D01*
X502404Y54054D01*
X532630Y68786D02*
X534408Y67516D01*
X532630Y68786D02*
X511040Y44910D01*
X554220Y138890D02*
X554220Y298910D01*
X569460Y298910D02*
X569460Y138890D01*
X550410Y370030D02*
X542790Y390604D01*
X573270Y370030D02*
X580890Y390858D01*
X550410Y67770D02*
X542790Y46942D01*
X573270Y67770D02*
X580890Y46942D01*
X551680Y145240D02*
X536440Y145240D01*
X547870Y142700D02*
X552950Y145240D01*
X547870Y147780D01*
X547870Y146510D02*
X552950Y145240D01*
X547870Y146510D02*
X547870Y147780D01*
X547870Y143970D02*
X547870Y142700D01*
X547870Y143970D02*
X547870Y146510D01*
X547870Y143970D02*
X551680Y145240D01*
X552950Y145240D01*
M02*
