G04 EAGLE Gerber RS-274X export*
G75*
%MOMM*%
%FSLAX34Y34*%
%LPD*%
%INSoldermask Bottom*%
%IPPOS*%
%AMOC8*
5,1,8,0,0,1.08239X$1,22.5*%
G01*
%ADD10C,1.625600*%
%ADD11R,2.870200X2.870200*%
%ADD12P,3.106676X8X292.500000*%
%ADD13R,1.625600X1.625600*%
%ADD14P,1.759533X8X112.500000*%
%ADD15C,1.828800*%
%ADD16C,6.045200*%
%ADD17C,1.212800*%
%ADD18C,4.013200*%


D10*
X298188Y244300D02*
X312412Y244300D01*
X312412Y218900D02*
X298188Y218900D01*
X298188Y193500D02*
X312412Y193500D01*
X312412Y168100D02*
X298188Y168100D01*
X374388Y168100D02*
X388612Y168100D01*
X388612Y193500D02*
X374388Y193500D01*
X374388Y218900D02*
X388612Y218900D01*
X388612Y244300D02*
X374388Y244300D01*
D11*
X165080Y366220D03*
D12*
X125480Y366220D03*
D11*
X342880Y366220D03*
D12*
X303280Y366220D03*
D13*
X392140Y44910D03*
D14*
X412140Y44910D03*
X432140Y44910D03*
X452140Y44910D03*
D13*
X302920Y44910D03*
D14*
X322920Y44910D03*
D13*
X214020Y44910D03*
D14*
X234020Y44910D03*
D13*
X125120Y44910D03*
D14*
X145120Y44910D03*
D11*
X454640Y366220D03*
D12*
X415040Y366220D03*
D15*
X520692Y244300D02*
X536948Y244300D01*
X536948Y218900D02*
X520692Y218900D01*
X520692Y193500D02*
X536948Y193500D01*
D16*
X40000Y396000D03*
D17*
X31872Y417844D03*
X47112Y418098D03*
X59304Y408954D03*
X63114Y393714D03*
X56002Y379236D03*
X41524Y372886D03*
X25522Y377966D03*
X17140Y391682D03*
X19680Y407430D03*
D16*
X671000Y396000D03*
D17*
X662872Y417844D03*
X678112Y418098D03*
X690304Y408954D03*
X694114Y393714D03*
X687002Y379236D03*
X672524Y372886D03*
X656522Y377966D03*
X648140Y391682D03*
X650680Y407430D03*
D16*
X40000Y40000D03*
D17*
X31872Y61844D03*
X47112Y62098D03*
X59304Y52954D03*
X63114Y37714D03*
X56002Y23236D03*
X41524Y16886D03*
X25522Y21966D03*
X17140Y35682D03*
X19680Y51430D03*
D16*
X671000Y40000D03*
D17*
X662872Y61844D03*
X678112Y62098D03*
X690304Y52954D03*
X694114Y37714D03*
X687002Y23236D03*
X672524Y16886D03*
X656522Y21966D03*
X648140Y35682D03*
X650680Y51430D03*
D18*
X561840Y91900D03*
X561840Y345900D03*
M02*
